<mxfile host="app.diagrams.net" modified="2024-03-06T23:39:01.151Z" agent="Mozilla/5.0 (X11; Linux x86_64) AppleWebKit/537.36 (KHTML, like Gecko) Chrome/120.0.0.0 Safari/537.36" etag="XgnJURHUXc5TUz_LIFy3" version="24.0.2" type="github">
  <diagram id="C5RBs43oDa-KdzZeNtuy" name="Page-1">
    <mxGraphModel dx="1196" dy="1874" grid="1" gridSize="10" guides="1" tooltips="1" connect="1" arrows="1" fold="1" page="1" pageScale="1" pageWidth="827" pageHeight="1169" math="0" shadow="0">
      <root>
        <mxCell id="WIyWlLk6GJQsqaUBKTNV-0" />
        <mxCell id="WIyWlLk6GJQsqaUBKTNV-1" parent="WIyWlLk6GJQsqaUBKTNV-0" />
        <mxCell id="WIyWlLk6GJQsqaUBKTNV-3" value="Generator&lt;div style=&quot;font-size: 18px;&quot;&gt;(CNN)&lt;/div&gt;" style="rounded=1;whiteSpace=wrap;html=1;fontSize=18;glass=0;strokeWidth=4;shadow=0;fontStyle=1" parent="WIyWlLk6GJQsqaUBKTNV-1" vertex="1">
          <mxGeometry x="320" y="165" width="160" height="80" as="geometry" />
        </mxCell>
        <mxCell id="tTjq3sFlfbg2cPFl6WFy-59" style="edgeStyle=orthogonalEdgeStyle;rounded=0;orthogonalLoop=1;jettySize=auto;html=1;strokeWidth=4;" parent="WIyWlLk6GJQsqaUBKTNV-1" source="WIyWlLk6GJQsqaUBKTNV-11" edge="1">
          <mxGeometry relative="1" as="geometry">
            <mxPoint x="1187" y="127.5" as="targetPoint" />
          </mxGeometry>
        </mxCell>
        <mxCell id="WIyWlLk6GJQsqaUBKTNV-11" value="Discriminator&lt;div&gt;(CNN)&lt;/div&gt;" style="rounded=1;whiteSpace=wrap;html=1;fontSize=18;glass=0;strokeWidth=4;shadow=0;fontStyle=1" parent="WIyWlLk6GJQsqaUBKTNV-1" vertex="1">
          <mxGeometry x="977" y="87.5" width="160" height="80" as="geometry" />
        </mxCell>
        <mxCell id="tTjq3sFlfbg2cPFl6WFy-25" style="edgeStyle=orthogonalEdgeStyle;rounded=0;orthogonalLoop=1;jettySize=auto;html=1;entryX=0.5;entryY=0;entryDx=0;entryDy=0;strokeWidth=4;endArrow=blockThin;endFill=1;" parent="WIyWlLk6GJQsqaUBKTNV-1" source="tTjq3sFlfbg2cPFl6WFy-1" target="tTjq3sFlfbg2cPFl6WFy-24" edge="1">
          <mxGeometry relative="1" as="geometry">
            <mxPoint x="140" y="90" as="targetPoint" />
          </mxGeometry>
        </mxCell>
        <mxCell id="tTjq3sFlfbg2cPFl6WFy-1" value="" style="rounded=0;whiteSpace=wrap;html=1;rotation=-90;strokeWidth=2;fillStyle=zigzag-line;gradientDirection=north;fillColor=#1A1A1A;" parent="WIyWlLk6GJQsqaUBKTNV-1" vertex="1">
          <mxGeometry x="195" y="35" width="70" height="45" as="geometry" />
        </mxCell>
        <mxCell id="tTjq3sFlfbg2cPFl6WFy-3" value="Noise" style="text;html=1;strokeColor=none;fillColor=none;align=center;verticalAlign=middle;whiteSpace=wrap;rounded=0;strokeWidth=4;fontSize=16;fontStyle=1" parent="WIyWlLk6GJQsqaUBKTNV-1" vertex="1">
          <mxGeometry x="200" y="-15" width="60" height="30" as="geometry" />
        </mxCell>
        <mxCell id="tTjq3sFlfbg2cPFl6WFy-9" value="Selenastraceae&lt;br&gt;Green Microalga&lt;br&gt;Image Set" style="shape=cylinder3;whiteSpace=wrap;html=1;boundedLbl=1;backgroundOutline=1;size=15;fontSize=16;strokeWidth=4;fontStyle=1" parent="WIyWlLk6GJQsqaUBKTNV-1" vertex="1">
          <mxGeometry x="330" y="-7.5" width="140" height="130" as="geometry" />
        </mxCell>
        <mxCell id="qqBHOzDwhK9ZLctGtH0j-7" style="edgeStyle=orthogonalEdgeStyle;rounded=0;orthogonalLoop=1;jettySize=auto;html=1;entryX=0;entryY=0.5;entryDx=0;entryDy=0;strokeWidth=3;endArrow=blockThin;endFill=1;" parent="WIyWlLk6GJQsqaUBKTNV-1" source="tTjq3sFlfbg2cPFl6WFy-24" target="WIyWlLk6GJQsqaUBKTNV-3" edge="1">
          <mxGeometry relative="1" as="geometry" />
        </mxCell>
        <mxCell id="tTjq3sFlfbg2cPFl6WFy-24" value="+" style="ellipse;whiteSpace=wrap;html=1;aspect=fixed;fontSize=50;strokeWidth=4;" parent="WIyWlLk6GJQsqaUBKTNV-1" vertex="1">
          <mxGeometry x="200" y="175" width="60" height="60" as="geometry" />
        </mxCell>
        <mxCell id="tTjq3sFlfbg2cPFl6WFy-61" style="edgeStyle=orthogonalEdgeStyle;rounded=0;orthogonalLoop=1;jettySize=auto;html=1;strokeWidth=4;endArrow=blockThin;endFill=1;" parent="WIyWlLk6GJQsqaUBKTNV-1" source="tTjq3sFlfbg2cPFl6WFy-48" edge="1">
          <mxGeometry relative="1" as="geometry">
            <mxPoint x="230" y="240" as="targetPoint" />
          </mxGeometry>
        </mxCell>
        <mxCell id="tTjq3sFlfbg2cPFl6WFy-48" value="Label" style="shape=process;whiteSpace=wrap;html=1;backgroundOutline=1;strokeWidth=3;fontSize=16;fontStyle=1" parent="WIyWlLk6GJQsqaUBKTNV-1" vertex="1">
          <mxGeometry x="175" y="330" width="110" height="30" as="geometry" />
        </mxCell>
        <mxCell id="tTjq3sFlfbg2cPFl6WFy-66" style="edgeStyle=orthogonalEdgeStyle;rounded=0;orthogonalLoop=1;jettySize=auto;html=1;strokeWidth=4;" parent="WIyWlLk6GJQsqaUBKTNV-1" source="tTjq3sFlfbg2cPFl6WFy-49" edge="1">
          <mxGeometry relative="1" as="geometry">
            <mxPoint x="1057" y="87.5" as="targetPoint" />
          </mxGeometry>
        </mxCell>
        <mxCell id="tTjq3sFlfbg2cPFl6WFy-49" value="Label" style="shape=process;whiteSpace=wrap;html=1;backgroundOutline=1;strokeWidth=3;fontSize=16;fontStyle=1" parent="WIyWlLk6GJQsqaUBKTNV-1" vertex="1">
          <mxGeometry x="1005.5" y="-2.5" width="103" height="30" as="geometry" />
        </mxCell>
        <mxCell id="tTjq3sFlfbg2cPFl6WFy-53" style="edgeStyle=orthogonalEdgeStyle;rounded=0;orthogonalLoop=1;jettySize=auto;html=1;entryX=0.5;entryY=0;entryDx=0;entryDy=0;strokeWidth=4;" parent="WIyWlLk6GJQsqaUBKTNV-1" source="tTjq3sFlfbg2cPFl6WFy-52" edge="1">
          <mxGeometry relative="1" as="geometry">
            <mxPoint x="852.0100000000002" y="127.5" as="targetPoint" />
          </mxGeometry>
        </mxCell>
        <mxCell id="tTjq3sFlfbg2cPFl6WFy-52" value="Select&lt;br style=&quot;font-size: 16px;&quot;&gt;Input" style="shape=hexagon;perimeter=hexagonPerimeter2;whiteSpace=wrap;html=1;fixedSize=1;strokeWidth=4;fontSize=16;fontStyle=3" parent="WIyWlLk6GJQsqaUBKTNV-1" vertex="1">
          <mxGeometry x="710" y="102.5" width="90" height="50" as="geometry" />
        </mxCell>
        <mxCell id="tTjq3sFlfbg2cPFl6WFy-62" value="Real or Artificial" style="text;html=1;strokeColor=none;fillColor=none;align=center;verticalAlign=middle;whiteSpace=wrap;rounded=0;fontStyle=2;fontSize=16;" parent="WIyWlLk6GJQsqaUBKTNV-1" vertex="1">
          <mxGeometry x="1197" y="112.5" width="60" height="30" as="geometry" />
        </mxCell>
        <mxCell id="JjVMrEau3r5ZCOMxklfh-4" style="edgeStyle=orthogonalEdgeStyle;rounded=0;orthogonalLoop=1;jettySize=auto;html=1;entryX=0;entryY=0.5;entryDx=0;entryDy=0;fontSize=11;strokeWidth=4;" parent="WIyWlLk6GJQsqaUBKTNV-1" source="JjVMrEau3r5ZCOMxklfh-0" target="WIyWlLk6GJQsqaUBKTNV-11" edge="1">
          <mxGeometry relative="1" as="geometry" />
        </mxCell>
        <mxCell id="JjVMrEau3r5ZCOMxklfh-0" value="" style="shape=image;verticalLabelPosition=bottom;labelBackgroundColor=default;verticalAlign=top;aspect=fixed;imageAspect=0;image=data:image/png,iVBORw0KGgoAAAANSUhEUgAAAQAAAAECCAYAAAARugltAAAACXBIWXMAAA7EAAAOxAGVKw4bAAAgAElEQVR4nIS9R7NkSXIu9oU6IjOvKtXV3YMRwBAAxwh7BMkHig244o+lGTdc0Yzc0mhv8QQ5MHsgZnowGNEz3aWuyMwjQjgXHh4RJ28NX7aVddW9mSdDeLh//rkI9T//L/8raa2hlAIAEBEAIEZCSglaaxhjkFIAEYGIoJSC1hrt55ZlgXMOWmt47+G9BwBYa2GMQYwRSqnyDP6OiJQSuq4DACiloDSQUoL3HlprdF0HpRSCj7DWIsaIaZpAROi6DsYYEBHWdYVzDsaYMg8ZW4wRXe8AACHwPKy1m/ellDBNE1JKGIYBWmus64oQAowx0IQyb5mDjM9ai2VZEEKAUhoppTI+efa8ruW9Wmss64xpmtB1Fn3fQ2uN9+/f43g84ssvv8Tbt1/h/fv3+N3vfoeUEt6+fYvdbocYI7z3SCnBGIO+78uctNYw2m72JaXE8471M/JH1mCe57zHqYxd9kgpxfNWBsuyYFkWKKXQ9z2ccyAixBihteb15K8tz5H/j+MA7z26vEffffsH3N/f49UXb/Dy5UvElPL68QOM5nWcT2es64rD4cBjsQZKKUznGcfjEdZa3NzcQGng/v4emhJijDhPR14fZ5ES4JxD1w11/MMApVRZCyKFeZ6RUsI4jujGoayHtRYx/z8lnlNnHay18N5jmiacTifc3NzgsNvh/v4ey7Kg6zqkFOGcg+07jOMIrTWmacI8zzxPY8raee/x+PgI7z2ur69xOBzKWmrD844xYl3XMq6+72Gtxbos8N6DiMozRdZCCEh5feVMghRCCLCy4K2wtC8RBK2rYF/+Xn4mGygHRd7P36GhlAZR2ExaBuo6W56zrmv5nCgNmYCMUX4m4xeFJAdUhFd+J89p59vOL8aYNywV5WWMwTAMPMcQN89pxyBKUhZ4t9vBe49lWYoCvBzDbrfLigZlHkopWGtxPB5xPp9xe3uLEAJCCNjv90W5ymGXNRQlKHvY7mMZK2jzs5T4oBBRGbe82jWSv8vayGfavb+Uic+9ZH2Hvi/Cu9vt0Pd9mbuMWxT56XTC6XjEOI7FUJBSWJYFx+MRj4+P2O12uLu7w+oXxBhhrdnsIZwtsjOOBl3fF8Mje6KUQiACjMY0T5jWBS/MC4zjiBACvPcw2mI6Tei6Dn02PMMwIESP7999h6enJ/RDx0rfGDjn8jyGcg4+ffqEvu8xjiOICOfzGUQE51zZezEGraGRPyInwzAgxsh/QoBtjF67N/M8QxOyAuN908oApECkkBJgW2GJMTYCpcoXslCFzaFsBVoWUyyB1hrOuY1CsHZrOa0z0KYepnVdnwm1HJyUEmz+P1KCUQrUoAkRrmKFmsUyeTNirNblUrHIvOQQC0KQZxtjYPJBbt8va7MsS7GuWpuNMpLNHfL3ee/5EIEPat+7IvBXV1dlc0+nE5xzeHFzW5CJCLUgLTn4W4VX90YUAlF7/FGER/ZeKVWUgMyr/dPKRtd1G4E02TJ9TulWWar7viwLiAivXr1i1EQZ7eX3CXrss8Jpxwig7IvWGuM44nA4wFqLx6eHrKCQEce4GYNYQ1tkwEApjQheM+dsUYYiz845xJCglSnKT+TrPJ0QUyjrVhSZBhJFhJQwWIsuH+hP9x/x8eNHjONYrLa1drNeKSVcX1/ncae8f4QQKCNig9RYcUUK67qW/THGoDO2yCQRwWSURgmgBMAgKxeWEwvoxiKItVfQGuA9JQDPrUqraeR1KQhyYEIIMFaDKAGKoDRAFAEQtFbFWvJnGKpTAmJIUKjwciOgRDCNImoPPxEhgUApAVpBqfr5zXsaAWufI6gkhFA2XeYDMNIRDb+ua9Hk4zgWWBhjLK7EsixFo4sgzcuEZVlwuN7j9vYWpICbu1vM56msxfF4LK6H9yu89xgydJUxi0UuSkdVYW8Pe4i+jEGE9nOI73JP5SWwU9apRS3tZy7loSqQwK5GXttieX3gZ2YLH2PEhw8fsBtH3N3dwWlT9mCeZ4zWoOs6HA4HXF1doe97TNNU0IDRjBAAVlaKEpQyxSBBGQAagRJUIijPa9APA3wI/AxjYI1D8FVJhvw7rTXO5zPmZcLDwwOstfjiiy+wZhdP1up8mopy3O12ACk420Erg3Xx0EYVF0yUNO9PLKhADBARIWNoJGxRnihNQRAiY/JsYxS6rkdcZlC2/FpbaG0B6OoCtPCUD0LdWKVUgYCtn/inNl+0kTzTew8Hu/ke71nTOueKYMmERcBYG/NGii/e+qoAioUVyy2HOMZUDlsLqS4XT8YUQoC1Fl3XFSskB8l7j9hwFYIQhmFACKEIXN/3G77DGFP8w/1+X9BISgk0N5urFB4fH1ljK53REHMRKabN2OXQyxq3+8ODq8imnaMIhfiI8rsWKV0q9naPjan710Jn2V959nNEUpWnWNeUEpStbqAxBrrxW4moWDBxwY7HI8/JsOUXZbuuKx4fH8sBn+YJ0zRht2flSzGV/QohwRhdFGqMEdoY9Bl1AcDV9Q2/14ciU+zPD8VqKqVwOp2wrivu7u7KeApazQpunmf0/YgY2TjImRBfvt0jkW9rTZmTcDxARVTOuY3SkGd2hsecyt7FgjTk2TFUNCXPsSGsZQDirwIJPsTyxWyxA5QGtFKghhBLkTIxETIMr5BLBHYcRyB5HqzlA7L4tRwc5xwUMVkxuA4gQqIIpRV8XBAXX7Rc13UIKUBZjaSoWEUihnJKZUuuNLTlccZASAjFJXGOFco8z7COoXdKCafTqRAwu91uc7CX5YQ1ziAQlCVERAQKgNHQ2c+E0dDWwhBBJYCURkhASIBPAYHYVTFao+97dF2HcRgRfcLx8YSHhweM41jGM88zE0jOIq4nKJWwrvwzlTSS5z0LMSDm9Vca+O1vf4un8wk/+MEPcHW1R/IRAQSkTMRq8fEVdENsiuIS6+O9B2WYT0hgIEXQRiERYfUry4uigjC0UlDirkEMCspBV/n3k18RYoB1jgm2fIBTSnjz5g3LSLaqIQacIs/70HXszihCpFjQUud6PD094Xw88bp2Bxh0QJZpMhZEAaTzHKEwDD26bgCgEbyHUQZWOyBVKytELzRh8TNCMiAFDOMB1gU4twfQZd4qoustdvtrxMRKxziN4/mJlanR6KzbkHUUI7RiI9PbDp0b8O77j/j06RPu7u6gTVcUEhCfu2jIJHiIWf4VlFZQsPARWAO7jaLMnDNQihDCDO9XNstCLGitAZU1f9r62ESxkHkpJbY0uloYsUAtSnDOoetdsVgAYDOL673Hw8ND9oN77IY9iAin9cSHo2dfE9nKyGEMgSGj1bZYC/4ZCowCAKUzrDIGRIBRdmPtRCDloA3DUBjdYRgKGSNW2rmxWLEYU1Z4KJpdXjEFhOgrCrDAze2hKFdZm5ubm7IO4iK0BKZob4ARVZ/JM6Xq2FtLQhRwdXWFeZ7w6dMnPJ6OePv2LbpuwLpuIzit1dGEDQqT75PvEPkQjkb+3bpLsi6tK9aSwLIP8r2XCFLcJLGe7WeFhBu7fsMLCTkqSMg5ly1uj2EYMO6ZZFXIctA5PD4+4ng8YhgG3N7eZjg/Y10DDocDE2RZxlrkCACRxCdPm/PinIMPSzGONeoxbohNQYby3OIaNb8X99E5h6urq7LHWmvovEeyhi3KbPe0RXXtn8u9lGdYgX6i9QnVJ976c/mLSEGhssry83XlQ5QSQx8ogvUWxmRILv600YUA0VoDiWC1wTrNZQwyUPm7cw59PxQoxwogjyclKGJ/XysFIGXrseTJswZFqovTst4xshURwRKXoo14EBFAHApzViP4CEqEGGooRt5f2NkY8zyFEGTfVQ67/H1ZlgJn5SWCLusRQoAyFloTKOb9cQwzKYhV0AVaf/VnP8DdNPG4iKAaQS5RCygkqgq7dQ1CCFDA5jAqcIgxhMDEmNbM01AmAqHLH16zVNwRntTWVZS/XzLeMsZWQVhrYax79l5WsBps/JhbstaWPdwoVcWhy3VdYQyH8M7nMx4eHgrvxAq6ciMV/RL86jchbXm/GAlZ13rgt5ENozQSxc3hFIPVEsohRhwOhwL9d8NYwr4i/7JH8rp0u2TdPve7lugEUBVAiL457FVjFI2CrLXUljCLkTZ+YKIIn90K7z2M4YXvXEUC4ttcXV3BLwwjV78WNMAQl0NvAVR8Q4CJkBgiziGHfZpDK+MKIWCdl0KMsBCkcuBbC+a0K+7KbrfDOI7FP5K1iDEixap8xN8MIQBzXiOKG6VV/T2NlAjG8HPE1RIBnKYJWmscDgfc3NwUS9r6/EopEKrQX36PHOIYA7Q2uDpcYzfuMY4jYkxYlhVD5lFijNCu+tolXCbCA7CCb3iEltNpxybjaS29/P3yECuI+0jPvo9SgrMWlBJSRlyikGy2jMu6Yl5WLLNH13XociQEWelKRMKOY4lUhJDdIgUQFJzr0fdrUazH4xEPDw/Y768apYIcsRJDIIdbwVoDk1n2lDxCoM2B48NdDzUrr4xY1lAUhHBTxhiYHAGKMcLneYg8i4JojVYbQm8P9X9KAVzuiYzRQhEAyj4GCqSrZAULSKIIRbooBwldeV8HPc9zOfxyaLUGkg8gbQpE8t4DRHDGIupQhDDGCEWAMxYpIwytFGIIUNniJyH3vGcIm5NttGZfU4NgtULXu/LzlCKssSV8JgultS5srCxMqyBa2GaMAiEgkQJUrOGerABB/D1ECtZ25VkEJtBaou10OhVBkCSiytqaZ5vHB8gAhAKlBZKTtcxLGI3TPEFlFy2BMK9L2dNWEFphKVYyJT78WWnKoSrWrnGHROhqiDU+y9G4/I5WGbSvVmHI70UBt9GK4D2eHh8BAC9fvtyQrULcSuKVrGE7fkBv3BQeqi5y3O59G1GS+KlEX2Te7SFv90t4DxmfEHCyty18l7Mm/JOEsiXiIs9s90+4sNZluwx/y6s96AL9KzJlmbfPNLXisB8RhwFlEWPMmkOZzcRFgASycPZchOsktpxgkJWGtbCKmdmQExNSSizMVBfDGIMU2cL2u7FoZqIEQkLXO/SOhVTCcbKwYqG7MW9Y4gyraLa+Vyuksqli1VtIJgJJKiFSgoICtIJRclAViBKUVjDGgkhx1hYMKwsAPnqsa0A/cJjreDyWyIBwCLLRbdix/X9LSrVj21ofJj/53+JvWhjjEMKyUXJA9vWJ2DI3inHjCmQhstnytQdX9v5PhRNbHxR47tq1z2pzOSSmPk3Txp0SGWu5EeamCNZqKOXQMvXQGlGQUwCQlbPOroxzDi9evCi5BN57IGUFQeJjbzMqq8yLkozgMHMCe6TiTml4v2KaJlhjsBv3cI3Satdumia8f/8eh8MBt7e3Ze3Z1dWwxmBuFC+AzR59Tl7k1XJ0otTb91iZUM0mq2RH62sRMbwUy8e+lByCBK0tDgcmao7HI2KIWKMHIWHs+qqNdE1NJCJYpdEZC6MsOldTZ+VAy0LETKyx4A3ojIXWBs5YGKUZIiNBIgEmC0GkRtg/s1BEqTCkrSJs3RVrLXwIIAKgFLQ2wMXBqzyKKmtiLP989RHLfEZM4Zn2F1TSaukWWpcDng9pSmxloFQZQzunmJWRBgso9KXLlhVvPvztZ9s/mgBjJYnLQVtOqa0pz5xJFkJCCExOtqTZlkNR2bBsrVQ7bxlHiz43FlcZHPZXHI1QqvjFWlfLzchhaxUVNLPiSnxsynNYS65G3/coiW/IYdbE7oNrMgklvNdyPeKXX6LHDU+ROR2Z4yYsDeI9M7oQjZdJdKIAW9Qj4T1JBBK34XLt5E9rHFs3zsrDxOqntCXA5GEClbTOCxI9YgqFOZVBOHcNAHh8fOTJaweAkzNSjFBCymiGboNjzaRRUzjXdYW2vGhC0CmVE1pCzrijbLlVzekXwQohIBaCxYCZ8wqpWmgkGXmCPNoDJe+JIWXfTxhYoGDDBvKx3+k3VprXVyM5VwRF1rKGXVE4lBYyt4rJDTmlNFTCSebajndd1vwcibE7hODRuQ5Eda4tMSjr0iIkkQsm1TpEIlhrirvWHoQWFougi1UvB6HZo1axXboH7b/l7zyvmkEpa8ZCbTKbf86RG7X5Hq1MiVAJRzVNEx4ePiGlhNvbWwzDAGu7Bmle1sEkWGeYG0gVQYnCknyEFp6fz2feU5fDiIrATAg2CtI4zj15/fp1lbdseETxaK2LC7Isy2ZdW2Uq+3h5dpViYl72U9YOyAhABs4DIxhji4aR32nSSD4BeuX3xsghOivaNWKez9jvr3B7+6IMzvUOfl0xHx9AwUIZXQ4mjAGMg3MWIUSkvEnn87lC0TVgTStgIpQxsJbDIYGYMIRRIAVMEwu+NhqRCD54UKCyQSHEbEkyqZJqmEcbjegDUuRNouwfKjDTrVRCDD7DTVNciwK7jQESIURGNsqgII+us1DWgKjjtbUWV9fXG2Fv0Y5SNbmD4SfDSc30NEgBrnPFVxQ3SDa1szWKoSghLudsObJSVwnaNIpQGSgohMgxd2cIT09PMNrhcLgGwLHmmFLhOFjmKvJhueGkLUXZ2lECRV8OkiRmsRWyG7SgtSCugGWp82HrlpiHMpyOrpRCQgQlBR94z8ZxBMgjBg3SKJBcqxoy9GHNUaqA8/lYineurm6gYBF8hIJFzIlXQz8CuUBIa80JWvMCncPPKSWYbKQo8dhPpyOIUAqXUiKkyNGWdc3nJkcryoFNEZ2z6E2tGUkpYSVCSAkKjH7WwJY+pAAoFNTQDX12d7LiaxSAbpAwYiaqxW5J1EQg57Is2O12RXhEG5XCGAhM22YIttaDiDBNU9E+8jPnHJasvfZXB2it8fDwBAA4XN00PhH71uL/CbmIbNGt7TZEDy+iRgixjKWOTZh/lfmMSjSx1qwWLKUEo6oP3Fo4ecncC1xVWw0rFk+EV+X3MoKRKkXORGsJIspjEk2vdZ2HrB+P8TlvcelL88/SZg4FCqYLq0Bbi9F1HSdUxYWFFRG73QFaG66Syym5LffQwv3W9RTfuDD51iJQKPkGIl8tgmhRhJBdbYqrNblYjDRAGinx+vnoMzx3GWoLurOb+cnLWlti7Pv9flOJam1FgOKyCHwXN0cstCDGmAQtGIzjbuM2KqWwxpBlQJcKx5ZILevvetaEqO4nK2wmkkOIm3m0kL7ljiTPRvaFiJF962a1L9sSAy1885lll8FKSEUeXBZXIIiS8lJd/JR1XZF8wjgMUEbDzwH394/QWmPK5ZDaOAzDAABVCLNC8t4zIRQjSBlY28FaSUlGtkRcHqugc9yZj189tPUwFf9W66IURDFIimj7uaoENJTKlRTye82wVjyBruvQ9z1iLprSkKKVPrsaCgBXqznnSr1Am/q8hbY1Z74loFrY9zkyDbRN0ilwsDwgz6t5nkDM3W6Hh4cJ7z9+hCaN6+tbXF3tEMNcE28a0ondHokWSGFQJSxbRa1SJReFR/gcByCKtP08ABjtoFxNfQYUrE0IyRcfuetq+atSqsiVwF8Z936/xzAMpZw8hpqLX5VarrHIxVVQgDYVohN4TxUqEtztdvBRalE0oC0MqXywU1nzjbFKQCICcuRZDMNlIhIjr2p0Q+CEoVrWnp6t2efCfq3RVkpxHoAwr20ISoi6UhUHYdGr1mIonL/EiP8nSoT9ohj4gO7GA1IgfLq/R0qpVL0dj0copUrmlGizSDVSoLXG4HpY4zIsz/n8lK2meh46u0QE4s9Vy1NrAtp5//+9WutbXiqTj4rgOoe0bIkhIu5VYKzb+NmivVNDdMqmycbJmPlZ5pkiuBybWPrLQ8XWdZuZJ2Sl0RV6SnHTx48fESPh7dc/wMthQEjAcjxvBKo1Jkx0LhjMAK3tZu0BFlwilXNG2IWQNGdW+NisFxetxIKWWiUoz5ZcEmdqyjnAB0iy6VofXkdRMKGgimLNS9JSzN9dY+Yy0XY92/CbUow61hDgjIG124PHUQcA+XvFynNeNQFgyy39L1JK8DGC8ntFNl2DwBgdqLymlY+o7lgCVAIhMlLNZ6RFhJKkZa2pSTRtowERCkEC8sXGqCKkssFEhKRy1Z+psdz9fg8XWMhhDIztclEFwbkOgEeMHt4vGMceKQXM87mwtEoRSCUMuxGmcyXLrE1Sks2UcMhz2F4VQBvtSKlCQ87J/tO9EIgI2jyvSGz/HWPEPM+lOnC325XEntYSt81SmJNQGxSgFD07vLJp7c8+N06lFAvzxfxbUrf+vAqzrIkgvfP5jHUN5ZD2vcLpPGflnoohkO9u/9T12RKM7atFBm2kR9y7FuXI+0PYMuzyc+sMIARyyBWLea8k61IpxYajKJeaMapUjmAYjTZzse5Bdh3150vB5ewYpRC93xxaXnvec2eABofVtclbwUlzNfVXai+Sohy+1IUUB5AjFA7ANo+iWHvdKCzFSVbly3KVLxFxFEAO+jRNpZPJ9fV19n1WaA2ElHLXHWG7pS7ZfVYQxApqmzd5DdDWlcq+Fpq0YRb5rFRXdeOQK6pi8WMvQ01EUmKcILK2RQDsMoi2lAW7jIm2h00WSH6uFYf+CJUfaQVUnjfPc+mwQ0TouwEghSVnOoZQfdthGOCysm0hsSir1k+UPIwWHbTz/JzV3whyTAARrHAQ2Jb0ShmsRGGmaSlZirvdDo9PT/A+MimldSb9UkFAl+7KpUBC1eQYViqcPj1NUwlltVZQOAEiylGYGs1puQijn3dp4u8jTkpLeLambfSD/533H6m4tEUmkpTXXmRnas2GDREqp3xLCjUaA6mUglFbt03GuUGrmslsraUbUlMmrERBVyPW925ToXs61XoS/iJdCO+YIigSdEM+ystWH7FCae99KawozKTfNs5orZhAis8pAmhGA7ZhT5+enjaHUayi+Gx934M0C5MkhfDzmpErrkpTivMS6s+T7Gy7jZBMMLG28qyiPVH/XT+z5QmKJSWC0jLHWBCAMaZo5s71ZU3aXO4WlsYYuXpOqeZ3z0lAVrb1wP8pNNAq1D+FEuR9FpwkI+O5uroq/jP7sITVeyij0XdjIcNIiSIShVm7OgHbhJmUWWylDYh8GbfEots0ZHGVZB02LkGiTI7yIeCpS5ivJtS0n6kH7iK3vyglWT+1kYfLtSqHlFLeK2buAYIGIebnd7bj6E+MiKGShNoYGGuwJEJSqCw8toqJyduqsEU+lFLQTjdohQ+yyKPwdeytVDeoVXQxRkQfyx62xqNUoEimlbG6xuK1xjB0xWcX3wqoYY0CqaOEslJOcMn5AimUSUqVExFhOh2zMHD9c0wehIgYKsQXJcEoxEA17ofCthKKU5a3/j9vLJdJagMEXzv8SPy4bDh9PotKhKFlZjl0KNZ4W0K73+/zh/lZ8zzzBuXNda4rJGDrSlWiBp8lyGS87ea2ira+d+v6lM83vQrbQyqHTVJ62T1zcHFrwct4CjKJm3GLUBLpzbpWBUpIMZTDz3HzAKMtnAXGYVfGVpBYsd4K87wWZdXuh1a2oM12LUUpCzktz5SefuJqyfiMRBn0lp0nIljNJLCzBiHW7klaa1CMXGZNCUYBax6X9H8s48zcSNKcUNauESOjbHCwdd3kwIYY8yHnPRZ3nYhKNWtbHcvP5agSEbBMHoCG1tszYo1lMiKmCG0Uxm4sloD/z/HXdT2j7x1MxyERnyKO04ykLV69eoV55pg0Mrm2rjmVEgrkI5LJjS6guPQSzPQrcCFI9Al+CUhZCLpxgDEG8+JLXLlltlXiP6LJvc+JG9oCOYU7JQJpB200QlghhUyy8BJGFIEyum1vxfnnRFRq+GMKAAius7DGFcKJiDBPPltBn4UDIB+QUoA2hKAIWle+BchssnAPpODXAOMMoAwSEnzkfgMx92MIQYSEFW4NUYWNuwIFaC5qh9JcOTl5D2ccfArQuipPZRRc79ANnCtgbAJhBaUZKS4gDfSDg+sMzAyEIBA2K3ifYIxDiglKWRhnS3TAe49ECT75gtJ8IE7YMQrnxxMA4Pb2triG7eGS+aSUQDGUXI9xHOGsYfhPCWGZa14IdP5e/mzQEYN1SD5g8SuM0mXvtNboxIgQ4D2Hmzc5+yaX4sYAWAdrgQhCEHmxvP4uk23WGSTis9T1DutKSD6C4gqfw5UuJ+RwQ5mE+/v7kprsHKMWKI1+GFmhaw1Crv5LnA5P4H4JFJGLqAICa0wwb5HbiDkL23dQ64ykEpIxsJ3NZ9TDSqad+GYSGhELL3UAclg4ESJVJrfr8yGI4Gw7gZ/P447WWlC2LOM4AgDOp6dSDLMRYtGw+aC0Typ+JiXoHMIhzY0utFi/BsIzVBRUsCWnWtglL7EU8vf63udujrynFhpJmuiWK9DKXnxvDUfKM4rQKQWltz48Ndab55OzBtWWkKoKJmUlmK2ifG96jhqcc7i5ucEp7wX/zMLnikth66fTXBReO/+ilBsuhC5KXyFQOef7TxN37pFiKJHBlt/YuF1AqRTVmnP1jTEwqL0B2tTd+cx1BGJIpKmr1dsQWYvCvPcIKW3Ss+W9bYfnFnnKZ2OMufoyFj5tt9vhcDjwnD7jql3KQvuqv8+uYo7iCOourl7Tk0MpBVNcseq6Sjhd5izG3TnHeQDC+gsTKfFF31hATV1WCrUtlzEGYz8grNmXS8/DY3Xe4qtt21BdLqYIrc7VXVDPmfBW0CUGfXmIC9nCD6g58dCbBQK2G1B9sItEmmbzWuFsf8YHVz4fNuNQOYc/SL8FlKaLDQyMnBjUjMXkAt0gc+eUrOoyECuBlAuV6hLkeaoalmQ/hHsTqJzEoJRC11uQJpynIz7cv8f9/T2ICA8PD5jmE4ahwzj2uFfESOpijTcHHduWcXKQ2tRnaYIiMFa4mUslK36wHAhp2Sayxoql8lLyWeFiUkowOULUHlxRGFrr0ly2nU8rZ6QqT9U2DK3GMZb5Cg9yOp1wPp9LZCME7nxUZJy2fQCkmhkcoLkAACAASURBVLF1SbZuLHHqe+JMP2MMjLKIFEGmHn4Oief1y+F6TQCIU47bserMGVg58CGEUn0lMXlZWOmOGgl4fOD2Rlpx3bnUXkPlPxAGnfeJE3w1VAyQJBWgVjG5bkDIdxBIaW2MEYH4bgJBJLJBRb80SqC1RlKLo7C16GWRlITkav23CNjnYqrP/OmccJRoK+Qt0ST/F1dCKVXmKAIr7shm7FnR8EZyMrK8bOYASNesQaN1SXcVAo3oMuRXDw8jRAujLZROSArQBrC9RUwrPt2/x8PDA+4fPkLB4HR6wtP9B4S4oHdd2bc2000OhqQwX1qygsCaBhkSypJGKHJYN4agOQjCS7Q9DBLV6sHUWO155qQl13HLtZhdTcot7pCo3PfgnEOXezyUEFx63ukYAFIkrIsvfJi1rsiCyW3wuOeewtCPMNpi6EdOKycFJOQK0sjNaWJCII8UI6xWQBtmJhSkzDKXScEghLUpJLQopMvkn0RbRRLXnFWpap1K5jdY8CUU0/r/LamQIpMNp9MJROzH9X0PQkJMtNl4IYmEtABQCJkCibXJZEiCtdy2uzL0tCE5drsdbIbuoYFum0mztKHJpG2+S28jBRcCeml5NhZd/o6qXduXtJeW6UvjRaF7xd8GiCv6RGk0a9GSX4RKqonAUkzZ9XJljUCZJLOqJPDww9Tm+wUJUEgcGspuEn+PytaSw1in0xPO52P2jwnerzidnzBNp6YYTMJQfbbQHiH4zV5chipZqadNzX7f99jv9xuUILIolkoIwzbtdZ5nrlWwUjac4/25qOZ8PuN8PuNwdc0WWW/XWKmti9miRmstyrKX/chKXW2Vu6yF/Ex4g3VdcXNzs8lNEYVSumABjcKuyTsl0tK4Ju36ANwfQ9y5lHJnY1BRcKkYQMkLoXKGZQySkh1CqMVAoklkkOLLtMIqscmNhowMswSSpbKgUl6ckYSu8C+EeplBCAHDMDQKiN8fSPyVFSFYjLsr/r0IiKoWk/AcvslLQ5WzwO+/TPS4ZKsrrG9RgCCK+h21KQS/l90bYZdlUzmHPMJpAw3J+9qime14qg+fEvdSUIlKNOUypCUEYFEMJQGkQRUpMQGlLJRhq5hsRG8c3OCw2w/oRoPZT6WKrTMay3TC6ekJyzRjt2O0J4jMWo5VC/suh7WuMx82SbEuxTB57MIBTdMEpVRJAW9hv6yLMQYppmK5reWLZFJKOE5nPD4+Yn99VZ7ZxtzF1SvKS9fMwjZ0KfJPFy6eaiyzrLkcnkv0dolgZH/499seAPJ5ncO+MYWMkrYt3SVzUttctUu0kYMC/UV5FvnIBlBVnutSOTMiUNsGEbIQ7aL0vUEiYH+1g8mXeQxjXybO2m4FH3azOTiUfVij2xis5vCNUugc+0BrN5fF4tx+UTRbskmeEbP/Khq6rZ9uX2WDMuRPF8UyRNgc/Lp5VQkYY7gneyNY20Pbflfuradq/8EYI1TXN+8nRLQwvcJj+RzyRSZJfGjiZB5pp24HqQgMCMGDSpZXzZXPo9quu7blUNjOYRxH7A8HKBUwL2dME7e7vnl5g5ubKyhNSMQZnl3H+fZch17H38bfJT8jpaoMREBbck8pbq19f3+Pqys+vBJ+bmVQ9l2Kf4gIh8MBrrM4nU749OkTpmnCeNgXRcLh62GzL9LWHMAz6y1jAlAUQHuwU0rQUMXdbbMXL+Wh67pyxZjksBTlDG431q6LtWbzLFmb6v5kGSEFq2uBk86FbsI5CXIwUkSUW/hJ2bxY/fJsMJqwQuhJnXGbUitv5rpmjl+7K1s2WikFAyqElyxCXsn8Pkajq1/RWYveOaiug498CKw1sF0H23fZf1tBIcBCo3cdW9TcT0BIJJVh0MbSN8qBV5IKQuCB1QNaftAIyOXfpa5c5iTEGx+058ytbADRVoFULuByfZ5bjZRDPAzttq3Juo7vIPC5kEZgeCs4PO2aQNISQ1oZ7n+Yu+EQau7HMPZ4ePyET58+lHZlX331Ff7mb/4Gr774ouRutOm7gthEkKWPvzZtb4QKgVuSmYjdyePxiHmeyx14gg7b72kViMyxxMZzQwxJKJKD75wDQZUwmHMOGoKWqutIRKUvQtmHC+WeclRHaVM+J0pdeAdZG5lze6bk7+L6VMRYrXAIITcl2V7TppuxpRQ/62a1xkNkRSnmFOR5IYSNwRYlRkSwIUa+GCFDL5vTNP3K7YxUIijnMPkFrS9jHV9K6RNP3scEawxf20V8a4/S3P4rRr6ZZtwN6IcuW+sAk/OcSWXiSjOCMMYhhdxazCqs3mMJEV3fY+d2UEoDJdmhsucEwOZoQyBudWWMQSRCCAq274DIUQNpjiAhOyoJQrl5Z6wb5L0HdPYndUZJimA0oJIUZ2Q0JGGmqKCVw2AtglrhnOZEJ5JuSMIyGxCIY7pEyM0IirXbK4Nh6BEVEEA4zvk+udhDBQWb52/y1Wsp1CYSzrkCeZd5wuSP2I97jOMAuA7WavSDgVMO07Liu+8/YqWAm1fXuHv9Bq+/+gpffv1DRKV5/FaBjEXSDlpxPYBWDDeXlWs4hmFX8gC05gQWJMLq8wWkvt5QJIeodWWkQQyFWJKrnDYgeMznJ05WUwkUEpzmnJLr62vs+h3CEvJ3A96vvP+5D4RPEQrZIGlBdwleXFpR8LG2sDeGO07xWD1WufDWGViX03ApwlhGfFKKXVBqrD0BY8ocjbJlDDEFqJRbnZGC5OgLx8AKbiocVunlhwSfFYhxDqS4NwIAWGOxeo+Yy+lT5MtPogslyWhZFsTselu5aXccx8LOtv4FN/qYcw0AQEbSRbcNCETTUUpbzQVAgdCZrmy0aNAYpS1VhYipsVyiKZkEqj38mVPQz6xEqxHbwgpkH9UojdhAc5lrJYi2hEtBFERARgH0p94DdoWslq6xFeJxerJk30mIbwsfJRMvNbcyy/yXZYEd+jI/gcmi/JCtuXA58u/2go8WsbCi4dEY7UAgnI5n3N9/LChpns94enqAe/8ORju8fv0aXV8RGEVOIpL02P3+ClrbjXUVd4h97VwbomroS8bf930pj5YiI4lfX6aPy+ekUOnly9dlH1pEIpBXXq1MtO8V69kiXnm1lrKW59ZqxzZhqBqiilDa5/mwNiixZpeKpXe2a7JUt30DOJyZw6jaIvilrE1pJ59D8GtcC1KMMdbuybi4U1I4P1nstlmDfDE3wxT/2jDJRVwa7FW9NFMmGkIA5fbZyJ2CIFyCFYb3wr+KnKrb9sVXGT1ozQUX0SdQtryhEWZhptvPxbzAbY59SmnDBrcbLP9OUuHdKJFLPqEVNE3gpJrsDkh2l4JUVfJlJShNOlmPJAgHIdGFfBCtwdnXrq2CPMQ123W164/U07fk5efaRreugNIaxsgB1jkKYOFcD0DhdJrgfW2cejo/4p9//Uu8//Qeu92Ar776KoftnljxIgLEqcuUCApNFmaT3GSshnPbcmvZP0mckTm1EFcpVWpRpH26uAofP37Euq65n59+dmhaBc1jqaRfe2jlu9rD3+57+zv2qSuBeKlIpHuWdIq6vMKrlR2ghoDlWbIOLQkv+3kJ9wF2qzW2Ms41N7ljN7g5j84KWK4Xp5TgcycprTXsbrcDUOPyxZfWuUdAnwtdsiKIJJB+Gw/mck0N0tySumgvsO3TuXlkUpLCanNDxNr8QBhw+b1SCgErlHneN09ukpHc+9YHJuKQmyxyiBExpGIR27hvq80ZkqMs8ObQk9CZEruXXHiUw0rEeQv90BVB89HDB75WTbILjdkSUO04ZOMFLbGEpY3AihCKUK/rWppetLnyJV/AGFCqXX+s7ZBMgrN8iw6BSnjXWg2jFebliPfv/4ikEqb5BEJgBeDEsvEfTuwSS8mJQC33UdFWzl9oDpeMc13X0mTW5pqFceyx2w1YlgWPj/dlTWIkzPOaO0ZxGFYODX8nH3g+dDUxqvW92+7P20jO85Bwq7DkoF5GYlqlQCoTuVk+KP/XKh+gXroie9xGPto8CHkFH6FVAFw1ftZyV39KVMqHxZB67wDjy9V1CsAyz5imCU9PT1jXFdfX17ACseRPmXCGTC77kCYnEJhMilBQxZrwAm1huLy/CK1sespOwYZBbVIZG4aWiACfb41FFZjLRdoQgLTtrlOsZEwgna3vxeGW7xWBFfJQNb+/1PrI1l9bDp0+TVOB2ofDAV3H8WlmxTvuOpO7BRUtgy0akoSYeZ7zYay33MjeSNHHZQ/89j0isBJSCyGgy30e5coxsgr94PId9wEfP77HskxwHfdGmOcJd3d36DqNh4ePGXL3G8Uph0mgK1srBaUIBI2UPCuHQOVwKqVzRuKWwBLSzOal6TpbyEIuQ+8xjvty8OQSF/GViZATg+pdDvJe+b9YfkFVkjHYlqG3h+5PHX55jyiRFvK3iqESylXZty5b+0zTXHUnbkebC1DnWe9jUEqVBLzW1ZNqXt5/gjSTWdeVE73u72GMYQXQ+h1tuayE7Sh39BF+QPwOrQxSrKynLJ5REmvN0CUQEAHrHEgRfFwRY0JSz3sCCNTSRkPniz/XkEDKcIYWFOaJW4l141AEREpwOV78fCNFobRwimJOHtIVdbRa+FIIFGVsKyR+gyTYL1W5fh64ubnK4Shgnjlhx1nkkN1aFFWMXEUGVZWWhI5qtl+9SjvGWBBPm9YqAiIC0x5SSV91xXfN8d9c9+GcwXF6xPsP7+ADN2aZz1MJyX38+BGd+z2O//kJdzfXsKaDMQ5wgM++KFGFrrz2yOEpzn3gQy43/djMFXGLLaJQ0JPWGqBUrkwTToOjHfy58/mMEEK5lXddPWLkW5Fk30XxtYoqphqKu1SaklvQRhouD3+KVJrGGp2NBaf5bRT5pfsoeyNKScbVjq81ZjL2FqXK39sQqVFZFBO4AM8HWFUzAru+h5HMyRDgGtcipZQbol5VBSCTaAmKlBI08d/nfNWWjwl99j289/AxlCSOdV1hlMV+36EzFrOvxSNJO+gcShENJ5uhS4iF2y4bYwAi+Pz5y3bZRFQTZELt185QNxafvzTH0ar2dmteRAREJiHb+X/O/283lP/PSkVgddd1+PDhA87nM66urnB7e4u+zzfWnmdY15Xacf6uPM7cnbhoemtKTNx7j0gJzrZVhDU/4Xw+Q6t6dful0MqayJhDCBldOIwDt69SmvD4+BGPjx9hDCv42Flo4pz207Sgc1d4ejzh1Qvuy8g+pspJWpwGzKy/QVsmzGOpd0e0VlFkbFmWUhTU9z3iumxcB2Nru7gPHz5gXdeytkBNRGrRZru/lCQXZUsQtsagjdO3YyzKI0a0aezyO/atq3K+rGfg8QRIN+mi5FD7PhaZpOd8QZtcxQV5Fpq7DVb5hXyOu3XJ3vd9X5VOCDBaw2mD3W4HrTVubm8xjGNtCtrCFdZ4khTEh3Pc77fRAVC5elgWNIQAlPRSLh5CJuTWdc1loPkQSygmH6ZxHJkoS5L5tdXYYklE2RTYZWu9tywKz2eb8pkaV6GFdK3mvfTtmEtA/VmiGi4CwWgNm0muw+GAeZ7x/v17dF2Hly9f4sWLFxnGnzHNHgo1xtsKUjumIvw+M8quRlSMMaXNVYwRT09PGMvFFtvrtZ4x0SkrAJoBJAzU5fbg7ONLdEX20yo+KK7fIyVgWXyWBQejLUdFteYD36xRcd2IraZUMfJBJRDVa+hFybV7J7kCxiqsft64c7sd3/i73+9LVKglwFoFrlV1bUVRt/57u/4iu5uEpkYBhBDgbK07aFOTraudggWx8H6KQUEOd9YMP1EAsi5ac5FaQd95vhxFkvb8a9lXHpco1IgYq5E8n49sOFL+fN9BEUeSTC7FPxwO6PM9A7bv5Qotj+AX9NZBAXg8cW/+/Q1DrcfpyIMyApUAuUyB2XpgN14DVBtW9H0PlSfrKWClBSox413Lc7MLEHkDEhIUCM5Z7Pdjhj8KUSfEZYYbh00CBhR3hpWNXdcVSgMu9zo0xuWQEpOGyrAy4Ko7Du1FSoiL32hkKcawGTnM6wSnDZx1uSabkBQhkUK/P0Bb1q7RL/iPP/9/0JmIv//7v8fu5QHaEvz9CpMUVLJQysHPC6zrAYqIcYFfF87J1xYKBGM1TNb1wa85C9ADERh2O3hKIL+CrMHYOSRrcDqdANIFHVlj0BkutyVFSFCIhrCCrznrrMOoAH86IywBKSnEXAI8Hq5xc/0S3e4Aawas/oRIR3SDx7zew0DDddumKiwLUkXKRWBE7KL4cM6dfS1f+AqFpA2M7TEOLMjJB/glH0QYpAgo5bj/fmfQycHUCkkRlNVIIUFbCyiTLZ2BdQ4pBaSQkCghUIAOtaagVXQASmFQa8EvIbyE8cSq9raHdTU5qKS4l9ZojCx5XTiXRVADESGFUGL04n774Dcuw3JaMkfhsJIHSCNpi845WI2sGAIo5yo8TRVx++wujMMuB6ISXFZWXdfBWQDkYVV2awkazvWIFLHmUk2tNRa/wnY13CYdYbSukFRrvr8spVQy3AqkdRrGafgpE2CJ89UJlXCT56SU4PLFmhLq4jvfFIahg2t8NNGW5d75uI3li1C2VhYonEnLA5Y5tIIsUQCxAtY4mBypSIkv6ECq3/Hq1Sv88Ic/xO9+/2t8+PAOP//5z3F7e4u/+x/+OxyudiCtAPUECgrLEutV4ZkMiyAESlANedUSUxImc85uXJ5pmorbwbBve0V5JWYJTisoo2GdgrOco5CQsIYF3k/QmjAXrsfg9u6AJWh4v+Dx8RHL7GFtB2Ms/LwA0KU8V/iYut4A+8s58kIyDrmMtMJ1LiwKmLzH6mcM43WN4+c79nZuyO+vPrm0wmZ5k1bq0lat3vwkiT8iA7KmIkNi5VtOqjUGl+6XoCtxeyUCI25xK59t625ekWwQ5Qq4rIiM1lgT81IxhHo5jtaw2sJpdpG14mSlxYdcG+ELKkkpYZ8h/tSiEooYx6a9X0oZ0enaEzCllHOdc3fbGKAStzse0fi+OdDLIa16WQJRRKKYGeSZm1CC+/XxInQ55FHj4GKFBQ6WRVLbZBeiVBhO2TDxgY0Gs5kZ4l0SeS3x0m7+psPIxYHjedbvks8lXihESjBS3JOz1owx+OoHX+Pm5ga/+c1vcP94j3/3H/4d3M7gb//2v0Y33oFIwZkeH94/IOQrvFLki0NKR9wsaLbxFdsxmMblkXRagXVs0epNvcWdSwnGEqzhvnVa8/31rjNI8JinE0L08OuMGD1ev3mJH/7wK/zg6y/x8fGMf/n1tzgejwihxtKXBGilYW2uz1cR88z3M3AqruTWc1JUyqWsBgxjQ4bnXddh7Aeczo+4v/8Ev67cTdo5fP/990hK4+3bt0XxskvJ+RQs9Cjyx1exS9/+fPCznIZQXZHW/WvXuE3HFegt0RlxO+X9KaVS9z/PM66urnA4HEpYs0USl/LXGqrW8BSCz9Q7IwtiSNL6PBV+pE2CEx5IIiNKMSk9+Sn327Qwpl6BJu6X5SuC+EYerTWgDLp+RD/kxBJnuZz5glyJSSDfNhkCJSacY/spwWiXLQVf8il93yU8yC/pyrJkrc6FDtxzH/Crr36tZk24mnrnH7JgyYE3zYWQAGBUbpzRzGFD1uToYK2izTkBSQgpHpNVGtIZl4WBWytpZ3F9d427Fy9AKuLpfMKvf/sr6H/DQvTf/N1/iy+//ALf4z2ST3i4f8I0LTCWffFeDUgXXXR4/JxQpJpwrWx+63O31Xai0FpOQUUFSlxQJG3IjFEIFHE8P+F8mhACM+7O9rh7+RIvXr8BqXv8wb6rxVZ813O+06CSWZLC2taApJSQ4DO3k9C5npNXUg11cc6Ewun0hOPxkdt9NUU3kNoCqasv+7etTi2l6/nOSmubkuq8HjEwtyJrKBba2a6EJaU3htREMDdVIyvn8xkxxtLpR0jM/X5fQqHbA1vHWN0kXW7havdI5tGiBiEruaqVZVDmwwrfZVjvSqgPQO7sPCGuHkhcTi5ZqC3/YoEtEQKl0fdD0XbGGATPmW0GCkmaS0oTQ1Unq7UGdD1cWvM9fTH7fJcTjpERg0BU+bmgAbE2Av0kFVS0+M3NDWL0eHp6glKmsYIoGF82FZcdeuSwN0U/8v4W8rGfL9dPV2QgzSiRqHREGscRN69eYHd1wLt3J6hlwR/ffYd/83/9n+jHAX/7X/5rvH79En6NOJ9mhNC0UNMKKdR+AsZu+xKkwkZz4xYiwvX19aYZZDuHNuzJP+PrslQCDAyU7mDsgEAzTtMC7yNAHL71njBNHt9/9wHfffsd4hpLpltKVemEUHPdCaFA+xgjVPZRQ1oBaAwdJx3NS+4CFD2U5qSoh6cHfPfdd1hjwMv9gHHX4+k0wfYdDlc3CDHBGYtaafo8iaok2aSKltgYeGjNV4vxeqbNZ1rizzQFP3LgW7jfWm8Jh19fX3NF5QVJ3qKFNupw6aa2kYjS7qz5mWQHCgqR36lG+fNZqhxYjMynhGUFEmG/2xV0I1E1+W5b4KLKTGjn8kAq1A7ec4hBaejcTlq63Lb1xsz0ctZXWdh8uaP3W+2l2KyBb2rZMviSqSXVbgyz+QAH4jRcrZnsSomAmLBE7gm32+14sVKtx48xd10BoMWvVhc+QH6xr75NCzWKCc0UuKEXpwBFvoY7K8TlPGG/f4H91QH7qwPm9QTyKx4f77GcJ/wf//v/Bmc6/Ou/++/x8tUdnp7OOVlDWlvlBqWfSVm21mI65Vbqtt6dB6D08xe0I5BYXpKsBeS8/5TbvuXEoHNIOE8LYtBYZoa1h/0NPn064f7jhE/vP+J8nDD/gC1d348wVjoBVTdD0ozlmi2BUjESh640hxa9l6KnSsJxWe8HOOfwxRdfYL/f47t3H0p2YN93oMhGQlrKXR7M9mIN/t6QexssPOZREqe6IlO8v1Qsp/SlIOKS45bxl/ySznH40a+s+Pa7Q3NO6ntFzilxfRc3YjGIAFLkIh3ZY0auASDaXr0GzWnWia9qZ2emvtq8BUEWUtMTErs7lAJ2+6Ec+CoXDs71rAB40Nw40GrOBIsST8+9yIFa9KI1Sq49Sout2m2FkYAqjTokSYP5ArlpRbKh6q00AqlE6KUJpIHC5BceG22LjwDuKvvw8IR1musdfc0NORQiVG9LifDlAeN5bPkFribUsJq76CSK8H6FspVIESEsMWAF3N3d4eb2Fu8/voNPEXENSD7g6ekJv/vdb/CjH/4Er15+jemLFU+Pp2pZKGQImRFS7pAkW35pQYprk8cg7dz4/kS7CTMVRaA5PCdhtqSAZZlwPB5xms5YFg8oSeqx2A07GFj89vQ7rOsCoG0Gw1a+JIwRsC6+fKfWBkYnWNOxYMeIOc6cTEVSXKOwrBGEiKurK7x48QKvX7/etKUXdFkzQCuP1IbluAMVZVTRtg5nuXOOCVJ+RkWp0tjFGCbMtKmdewTSxxjhbFcY9nb96/fEgkJUY0BKxanapke3/JLIYEtay75dEpYFIYiSMK6cK04sU3DaIirPLeUEsa8eysrlKkyUdl3HXBMvsC8HskwUuQ6A6+A4nHBhOVu/RqmambbdPJ+vAkOBkgTp4yYaKZetLgvmeS4JCyEkoLVqiZBCRDQx+0sS7z5imiYM+11utyx3GzpmUFXaZPGVA99o0xbmFQHRCtZYnM6P8PMCN4y1MSUq93E+nwEAX//Zn+EnP/0L/OpffoWnpxPurva43V/hp3/+E9xeH/Dhwwfsxjvc3Nzg7du3+PDhE6emCqyDNGNZS1GRMabcDz9PbKGkU2/f95jnGY+PjyAi7Pe6JMe0hKgxJocvPYxOWREHLOuE83Qs6bFfff0FXr58ia+//hr7cY/v//A9xnEEUeTW4KZWPgIaFNmA3N/fY5omGMN3PzjHOQOdRskFCBnmxsgtrUMIUJrX+ac//Slub28BcLbf4bCDNJJd1xXq4s4+Y7a583KzLyXwtdndgK7zxd9uZbX9u6wTXx2eytXdrSvYHsANb5TS5nmiFGqZedzIirxa90x8ccljaKMS4kqI4eU5Zna/6TshoXLvPcLqS0k+gJL/IByYnEGZm9W5TNdYYF4XWMv1zSnJ/fOEoADyK3pIwoouGXfW2hxXj5xso4AYPOZYC1EkKymlxLFTW5tYWtsXLcpFISFrKIYoIQSsIYCMhnIOlAKiTrAUAQldxojTfML7D+8Ba3C4uipkjlX8XSFyJqOyBtoZDrcQXzdGRKDsyyrwVehaccddFROUZgGY1nw/fD/A5g4zFBOMQ74T8IirmwPevHmF68MO3yWPkDx+9rc/w1//F/8ZlLZI3YI/fPoNOrdHf+WwWwcoq7B85LrvmJaybowEmJ2cKILIIIIw5DvhH45P2OUUV9IKy7LCxQBLHD4DEUIiDMOARXn4lDAMHTwCErH18GvE49MTEgJef/ECf/HTH+PrN1/idneAnwLOxxMndpkeYU6A5ZRs6ZsgoS+Jg2ujABVB+QpvELc2TRShDLLl6UFxyZeQcjmwog7Re0w5dAXoouBSilhnXpex7yD1J5yDFOGMgpWEQ5UAWoBocb1neB4SYSXPpemZHFaJ5VaTgTEamrjngdbAbj9gDQnH4xlaGRjdIaaVYbpcKJK5G7m8pIa0bSYnAYDzZYxx8Mu5CQdyQpRSAExOUyZBAQqSgKe0RpAiKo5rQBuFSLFBBIwm1jVf0a4ilhDg/QJtFYzjvAwoA1oCfMqGM3Npts3EalMPgTox7z1szuBr2eW24OJzBQytdhTSQyylsKbCWsr3SghEWjuV4qAG1hERAiqRA1TyI8YcBssXlETFNw61YZj2++TVZl8BQMpNFnWGgELEiOaOdJHKmQjrvMC+vMWXX36J29vbEkaSuvXj6Yx/+Id/AKUOP/z6z/HFmz/D69ev8e7dB6xjTuLAtl10yG2913UpYTOt+fKLx8dHvHv3vakrkgAAIABJREFUDi9evMDhcCj7JcScWKnz+Yx+l/eWmpuSc099ttwGb9++xY9//GO8vL7DH779gPv3D3h4eCj591JzIXscYyy9IA+HAx9kva2TZyvOPxvHvlT+7fd7PD4+4vvvv8dutysKu/VrZT5CkAHbUC0fQvGBt6nc0ABf6Z7rSzKaVBQKy661Rpe5i35gRdD3DoSID9/+EQ8PT7i+usEwdCAy0IoPK1F2vUx1/0pGX0mLlp4GbHiEz5J1aV0Byd+QjJzWFS1QP5+xZc19E3IUoBDF+U8IgYuqNO/t/f0977flMKG22+Qt24Yg2kPS+i9cxmmgwAQHIxImNeTiQu40m6F1C6EUOxBCtIjmalsf1Q1GEXwRIonHpqJcss+11lr5rutK2ypJFW7nwPAqV8bR55t+tpyC/KzV7IJKAM76Ik15zDUn4elpwIsl4ItXX5T6+dmv+OMf/4hffvMrzPOMn//f/4Df/uaP+Ff/6r/C//j3/xO+eDPicNhhnc8ITwx1OdzGTSK0iptWWoXtzuP49OlTSY/ltapRFE5VZchtEqAN94jrjC3cyjyveLx/QvQBr16+xNdf/QCaNNb1D3g4PuHpdMR5nsoetXvHCCUWpc1oMHNHVCMY1joYCzw8PEEpJtjkwsw2YemSRReLGCP39KuuGXuixlRBbg+NKAquPOSMSoLOmZx99tcVhqEv6bH7A7tY0/yEf/p/f4Hf//73uLm+gzpc8Vi1hdbVALV+ujDrrRtZMg4VQ/e2OcvWAGm0GZObw5/JVFYqaPgOvq7MGr6wNoSAmF1eUeiaUFqmXV1dwfbMYWh5fkogpWD3465YCqVUbu0vVsJC9wrO1HrrtruM/GkJkJKii4t6adrGP0WIxKLJS6yLCL0ggSWXyIp/FJY1a1PCfq+w31/BGIc++3KcCCKkpUbXjbw461IEqd0sGa+MS1p7FfLJByAmrESwEgHJqaqWmO0OS8D5POP2xRV+9KOf4Pb2Ft/+7nf45S9/hduXtyDi5IyHhwf8/Oc/x5/94C/wo69/BHvQmM+7bGnXjf8p37/rB6xqhV8WwHI66N31DTQBfeY5usFiyUQchQhSrPmhFBTpfM8AJ+/0g4OCwunpiMeHB8RlhdMG+37Aw8MTxnHE3d0dFr/ifFpLRp9EVYrSDNvS25Y510bxN2oujb6/v8f1NbPrHz98xKePD8UCCucD0jlhqSaoSQ8GjpTEjfxtZFdxk5NSXEYaSipTAXSdQQorDuOAYWSU+erVKwzDgOPxEQ8PD/iP//hz/OIX32BZFuzGaxwOB1jr4Kcly4vYWg3pitXKLnJqrbQKMyZn0TYHMqV6j0GIodwmzZZcZxwg0ZStURZOQULkMXI7POG8ZDxLTise9jvYvtuskZCbxhjYtve6aJcWDUiWkbzaA16sQBOKuFyQqgBqwUbLZLdtn9pEippggo1WvExw4VpxB+34rjWXM+qQ3yOhpHZ8MedgF/ikavntszk1CR1CGraKLyAvqOsQfMLx8QmvXrzAj374E3z59mt8++3vMa0LPr3/hB//+M/xFz/5CW6v7jD0V1inM75/90d88eYr3N5el4tEZS3kYLXkV0tQyqFp006J1DO3Cok4wgjuecj8CrcCe7p/xPnhBGcsHDTCEjAfWSBfvXqFxa94uD/lPBFucc7rIfIh1Xhbcq3se65hWJYlx8MdTqcJ3377Lb755hv0g8NXX31V2oJVNCrKL2fvZZIUSgwLV8AJt8RyU/MfuHOFGCK2s84CySjs9g7XLw549eoVrq6u8O7dO/zL7/8Z33zzDb755hv4NeLVq1d4/fYL7K+usa4BMc6Ikcp3iOylpl07z1mMBjc1UUrh8fGhRKikTL41mpy4Jjc3bSNU7blDVgwtUhCr376EO5FQPEeIqITIxegSEfcEBFAOect0ilYpjGHTZ6719Yv2u3i1whBC5MaShBIrTikhRcrXkvPdAX03VHShcvw1cb54CBwrJSLo0vZZIcYE09XcA27NxFBIFr7rBo4OSNdcvU2UqexyrrPPyT2SkutcB2MSQq59hwYoRoSkYGPkjkdrwHyasa4eb968wV/+9V/hm1/9E7z3OC8rjHH42c9+BkoaRvc4Pk349a9/Bb9GvH37Fre31yW1lG+rVdA6FGUpmyuZXPM8F6Whtc4XUriNMleKKyhTIWU1oLlLTELCp08P8POKu7tr9F2HD+/e4/HxiAiFoR+gSMMv9T5AVtLCcteELwnDiYIuSlNztxpr+VLPruswTROXGp9O6PsXGPodZxWGahwkk7AqkpgbkdZAVOvCSf6DypmaTMQRrM13UsJjGB1213tcX+/x9ss3cM7gn//lG/ziF9/gH//xH/Hrf/4t1nXFq5dv8dO//Cv85V/9NZZpxbrOjeLlkDeRKgddDpMoABm3MQ7rOuPdu3d4+PgJb968wYsXL4oiAAALl+V/O6fmFPGxb9YFQL4qLMHPC5Zp4u5d2mDO4+wGVgBSsm9dD9f0zRDX3kprrRZWtfBYJs6946SSisrgpBbgP/Vq49GiXNqcZ3nJv0WrisvRuewqyEKbWoLcchfCRgfPLPPx8R5Xhxu8evUKWu9yMop/ZvHbGK6MUwRaDp9zDinIujT9BFPiHIMYEXzC09MJV3cj/vqvf4Z//+//LX75i3/Cd99+B0cOb968wcuXHGpL0eO7P/4R02mFsxbXVze4Plwhhf+PrffskuPI0jQf1yJ06kRCC5KgKJLdVdXV1Tsfds78hVnxb+aH7c6Zra7q6enenS5BCUIwgcxEyshQrt3N9oOZeXigK87JAzIRiHA3N7vive99r5pKK5say3HxPBCyankCxoOYkmp31NZgEG2IrlZVhRt0hCVsvb6WwlaW8wWiVizPKktZzlfkWUEQR0pvoShpSkXndV0X31OG1/DwHWvtmdR6KdKLEJvpVVOrUN5cc6/X4/Hjx4zH4w0QuevZQJX16rrGkhJpNe1ot7X8+poQpCoOCiwUwvRDgB/YuEHIZKtPfxCwt7+NoObP3/4b3/7wI2en5xwfv2W5yIjjAUf37/Hk2ceEcZ/F/JqirDuHfzMkR8uPdZW1umU+RZZyN0Rr1BkwRmNdNuyC5q2X1xiT1CKzDvrgyzWluZvStlG1b7phHXq9HmGgUv2qrpVSs36/260ZG+vdzSW6pBez2c3D6eZh3YaHDfslDdtpPRHFHLCuwTEL9mH+a9BnE4FY5sCxbuwAaIRSbLEcLSapAZssy4jCHlEUKZZUrTynOSDm+7rjkizLIjB8dB2WttcoVSunY9NKhkmp57VLCy+qFJtuHHJ0dMT9+/e5OH+vvcCct2/f8vTpJwyHQ8qy5N3JMdOpGo7x/JMhcRyTZRlVs46+XFdNVXYcm6ouFPBm24RBgOs4rd5CVZY0Va1GiWHh2jpHt+tWuEKaHgdbdR8qgRB1yObzObv7h2qzOmqtTfXDGPGug+gKqZiDa/ZQVRUtMcmkWEIIFss5UkoODw/bvWGozF3yi3mZvRlpFN14WBP627qxybE9bQxMqW29z4LAZ7zTVwZgFFI1Of/zz/8ff/jDH7i4uGAxT8iLBst22TvY496DuwyHQ+qqJi8rpO4eNWfBpDyOYyPlGgMze9tzfWxn3Rk4mUw43NttD7oy2DqVtTbnErT3rnt0pK5uGJqyjWwrKWZ/tDiZns1gzk8QBGpsehxR5wprMOco0AbJDcNwI9/uWu3N17oJxRx+FX5XOo9Zzx7brCyg65CGNNOZpCoVimzban5A3dStik83xaiqCqtZGxzXdampKTRgZtu21p4v8C0fPwiQQtDvD1XVQEqWy5Qo6uM7HpEfUjUNCHD8NZLbbSpp83DbpipLgtAFGlwUguroJgwEWJq9V5U5ZWJRLDyqUZ+drV2efvIZP5+ccvHulMXtFCxJL3IZ9WI+efIxrhPyj//4B169ecHd+4f04j5xHrC4zfEth1KUatiHhEYKhGVTIxC2g+2r9bV9D0cIirIkL1XZyTQzOa6D5Tk0dUNRV4SOix04xGGPq4v3zOYJtuPhuzZh6JPlC/wgJowjfK/HYLJN0LsmDH2lAFRpIcrGboHBIAhI0xXT6ZQ49BiPx3i2hy1tHMuhqkqaKlc1+qYmzzIcBpq1qfQdGqn6LAwXw9K5tdmK0lHGy4TBTWNRNxA6Nr4X0hg1ajNGW0riIGTnYIv+qE9vEOL1PJJywf/45//OP//hn7i9nalosChxHZt+r8+jh095+OAjbNthtZjSVDmeK8nyHNd1UNG6QOiD5jgK7GxEjeOuI+SyXA8rURiV6oAs6zVbUknqN6pJTRhws0PrblSlqRfHVFVBnqcKQ7AEju/hO5uqRn4UkpUFlqUis6aqcbV0u3BAlDWiAdsBgUMjUc1Afy30h04LcCfP71ISu4Bg9z3dEpoh+PiWt+Hd18IJm6O6TI7TxSJMOeVDDoIhInXDd7MgYRiytbWF4zitUo9t2+zv7xPHManuXTeh14ey6NjrvEyVuBxsaTrcuhWOTfktAzzmec5gNODxw0c8fPCAdLbg5uIcKVUZ7NGjRxzs38ULB7x9e8Lx8THn5+d89vxzhsMhVV7QNAkO6+4ytRjr7y7LkiRRaj6Blg0zm2vNWVD0at9V4adnqz4AG8X7L/KUKIrY3d/HCwPyssDxQ+I4Jo6GjEZJW2KtqgpL5prEpVq8FNCmRsPleQ6iYjhc9/Mbh1FVFZ6vUj7jqbreqsueM+Uvs7+6IHPT2YMmMjQe1fd9Gh2Cm3Fj/X6f8WCI13NIsxn//Z9+x//zu/9Kukza5+15Pm4YsbO7z7Nnz9jd3eXy/JL5fK7SqDLfwIu6+7+7Z8w+MGi/uS+1dkWLVbRApbUey7e+v2ZjXUApAhtsyKSug8GoHUNm1uPDiEoB7BFCSFarVevkjBaFKhd2wrbuIe7WHLtYQPdiuzfd7TDqGoR2wTRnwPxolT7MiGXzY9mqXm3+ND/mcHVbYbshqbkOE/Yb9N/o9RlD0G0aMYts8jZz/V101TygppGYM2gevuM42K7dbU5TPPaiJlmtyIqMnZ099vcO21TGssw0mz55nrJKFgyHfaIo4vz8nPn8ligKGI0GrfiHuQfTJGUeohCiHZlmrsesRTfFUqQmqbyBDZ7vUNcV0+kNqzTBC4MORbdilaU0EqJ+D2lblI0aBCMEGhHv5KgdB2DIQCb0NeO/Mz2lBmijrO6e+2vVng9fxuB308/unjApo9HgC6OAre0Jg0GPOA5J5jP+8b/+N/7p978jWSzb/enHPbwoZjTZ4suv/4b79x+SppnWP6ipm1Kv4zpE7x5+c13m70wd3uxB8/eqfGi399/da+Z+jDPr/pj9bDgvaZpydXXFbDZrnZP5fTe1LcuydQTL5ZL3799zdqZ0HUyJdLlINolA3dcGwNW5cbPo5t+ZxTCW78MHuC47dEaNi0224IcRwIfGoxtNmOvptnF2S4jmfSbfMSWRrdFkw3Kbw+qH65lpXS9uRBpbokqt/63pRLSE1itYS01JIXG08k1dCdIkZzju8+ThE/6p11Mtt+quePv2LatlzvHpexbLGVEUkWUZV1dXBEHAYDAgywqmizlCyLUOvL1WZjaAqe+rkWddnMYcCs/zsXwfqYFKx4bQ85BUJOkcEAyHffzQQ0hJkWVUjaUwCBTBaTZbUB/WSmDT2jQwQtQ0TaX7BSSiLjbAMCG0DLanOCR1tQZUu9JudVV1PlNsIP0GZ5ESXEMQ0t2eNmq8ueo9UEYqDH2GwyHj8RAvsLmZXvEv/+P3/P4ff8cymRH3QgQQxn0aKej3Rnz6/As+ff4FYRhy+X5KlmWqW7PWVZ9OZNpdY6TcOKxdI9ctPxu1Z+N8DHhrcnhj4IWpplhKuk5IxS0IgggogIyyrJlOp4Rh2Bpdg0F0ZxC6ro+hJpd5RZpm7O8eEPoR0pMcHhzgGvLLh4euawgMAPYh+aJrCMyrCySaz3Jdl1poUoOtkVPLNgUOpDSjmVXfujRUiA/CKvNZfy1SMd/dbigNyIRhqDZnvSn/DLQoOayrEh8i0ut7tZC2krIGU5xBTUmqK80l99TY6lpNZfEXCf3hgMePn/DZZ5/x5vVLRCOZz+e8f/+et29PWCUZo36PXi/i6uqC75qK8WTI/t4h8SBmmaUUhRqAqURV14Y2iqK2zyJwvY2IqBslYTvUVY5lSWzXwY98cKASFV7oMbCGbT97klUMPN1jUUvSJGe1Sslz1bzjOaqBS63NeqqN0TVQlNYGy8qoa4dG57F5UbBarSiLuu3yNOzPpmlaopi5dtdeU1Yty0Jo+q2FRVOvhVO64hm+7+OgvL+UDWHoY3uSP//5T/zr//vPzGZTqqam3x/iBqpM51oOd47u89HT5+ztHFJkJVVVKn1C3YGqePV267y6FFxTyTJ7qHugux7e7EkpZXtIW8fRSb3NPRkH1a0qdCOH7r43Z8JUGbIsU0pLelx6FEU8evSIqqrY2tpqjVEYhioC6ObyXQPQDe/a5pS2xrkmMbRqMR0LZw6R8dqNXJOIuqF3N6TrvozFN//dMqWsfy8s8qGe21+7B6OdZ7xnrZFbs8Ddh9A0qjnDeNmuYXMNEMXmg81WmRLo8PWcu0RgOS7hfMloMuTx48ccHBywuLnl7OSUftyjqWrG4yF7e3dIspyTkzNe//SCo4N9hsM+w1FMmg0oips2p7SFtUENNgbADHAx12Q2pjo8Da7v4fqK7+64FlVTsEzmZEUOQo0K9wKfnXhErz/SHX0ey+WSJEloakmeF0hv3bCinsN6zRRhxxB/Go1OK0NRFIVS2WnWqUHX0Zjn204IdteRpRSgFKTQYJhSMI7jGMe1wBIEfqRYpp4aKhJFAXVTspjPyIsUx7OJ+z2WaYLtudiOjeO6jMc7HO7f4WD/CMdyWc2m5EmqxoG7Hliqi1E2sg3pjbFx3fWsQ3MOms6+ahmRtk2eqVkHvu9rfUnFeTHEHmMszD236yWEFvH0Fd3bUQpGppvWrL2S/QpbJxZHPXxPydIjLXZ3d9soxcxdqOt6PRfgr+Vd3cPWtTzdENC8Pszjur9rmqaVFVtHBoYLboALlSOZtgap5Y+kXBugbumuSzgxuX63lmpCsK4xStO0PTS21huwnLXx28A1OvdlGGxSSmxMTrc5gAM9BK216o1NVTbkacFkYnH37n0ODw+ZX894/fpnfN/jt7/5LeOdLa4ub1kul0rhqCz44YcfGE5GfPbZ5wxHfabTKaBKjabeboZpAi2v31x/lxmmcIOKOApwfU+VAYGyypneXjOdTom0R4iiiCAaEcUDoiDGc1wiP2AyHBHHPY0BlPo51i3gaFkWnq9APM8JNaC3KfdtDFgURm3fQjdyM00vZp91Qd1u7d18pjFwZu8Ohj3G4zFCN+MAnJ6+o6xLPv30E0qx5Pe//z1e7VPVNYGncKHRYMTHzz5ha7zNzcUNV5eX1NrzCiGQlgIebTbT4nVqslbuMb8zxsDsQ9d1aepy4/4MjmO0E82rqpTC1XK5JM9zoiho5cfNeo1GIySCLMvayNV8tud5DIdDAC4vL0nTFM/zSFZrWfmiKEjSFXEc43bBmQ9Dke5B64Jj5mGYv+uWz8wNms9syTpOV76oCy7+e8PTTS0sHKS9Jt6Y3xvPbYCOFjHVYVrLddZhcb/fb9F53/eVVFnTEJomiU4U5DhOKx7SjVCEEEhhAFHt8ZQiNZOdbTzbaWclOEgqr2S1WpHnQ+7fv8/jx4958f0L3p2c8PDhPfb2d3E9H4sb8jwjyxIc12a+mHF8fMzdu/cIYsUNWCyWONKhEetGIEXiUhutF0btdZlDqkJNG6Oe2xpnS81NSLOMrMiIw5BlmuC6LhdXc+4c3VfPDIf79+6RpxXD4RjH9mjqsn1Grde3lME2a2fbNlW1SeoxKctwMFbNQJrNaMpeJiIzP2bPqT1gUHMH1w5a7xsEAb6O0OI4VrMZqozpdMZPL3/EcSx+/fe/ZDIZ8Ordj/ihR5JX5GWFE7rsDoc8//RTnjx5wmqWcn15TbpM1B5uGjzHoe4MNDHXtsEHYN21aA67lGthG4NzGOm2D3kzJuU0a2cAvKLIkFK0eJBlKVq1Wc9KD2Uxe7+LeQkheH92zu3tLb1er/33ZtJT0zT0+ko3o+0F6AJxXUUWEwLnVdouggp9NENOd6+VdbN58D2LRohWJglqVeJA4Hp220VoWqSLItUhq7MB9mFJhND1VtQ04o2KhKW4oXmHBOHpRRFSqlnpQkkwuYGHI0rSItF/7yCSSkuIGQtuhoSaHE1bcFlTlAVNpQkmro2sanxh0/NjPH0Q0rpgvlwwGAyJBFBCuSwZ78XcuXOH/mTAxfU5t+mcd+/fsLU9ohErFrMZtlTThZu6Ynp9zWw242jQZ7I14HZ2Q7qqcFDrGrk+Ta7q/k3TsCoVpduyXXw/xLYciqxYG1xb0meAb0d4MiIvcupSgvRIs5r5qmGV3bJYJjS2z8MHz7h7tEc4HILv4sUeuA11WeKHLm7uUJQ5IlfdmELKjTKTFyp12irXCHYtiaKw3aB5nrZCsUI02I6lG2hsIjdcE8N0K28jSnzXxnWUUpEfB5rEVDMZj5kMYxxRUiyXfPunP/LjTz/w6NlDimTBd2fH/Pzzz6RZwXJxzWAwYhjv8PmnX/Grr/+espCcnpyT5gWFjqyMhJwjLULXp6hLwu4AFu2sWs+PolkrO2ipMF3/3rYcqioj8NfDRdSzspG1pKlqGtSELVtahF5AuL3fVoBcyyHJ09ZJpwtlpPr9PrZts1qtmN1MOxWmIXEYUEYh4+GAXq9HEAesVhVB6FJVHeWhbghhhAfNTxeECA33Xq5DfWUcjJU3/lvosN3+wFJqurGljEfXkpprUAd/E2U2i9wlK30YJZhX16q2ykPaaMVa3bWqGrJMyVsZfroBRdSry3QzOW6jSRvryod5/4fXZgyTKdmp+4eycDg6fMrh/kPOzy44Pj7mX//1X/i7v/+Ssqq4+2ibIhPcXjvM50tsG66vrzk4vEcc9wmDmNUiwdOyaI6tRohl+VKFjYuEIAiI4n5bGowjvwU5hYC6Frq+H3N5e06W5RspUl03RHFArxfR7/cIAo/FbM7NzQ13Do7wHZfGdZFCKHpwVWPpmRGiXs+IzPMcR4uCJotlG3VFUdQp14mNNE10UtAPn6uKNpXhr8Wa8u26LsNRTBSE5GVBmRd898P3nJydsnd4wNHREX/885958/NrXr97w+X5FWEUMhpO+PjpZ/zis7/FwuXmekqSZORZqYlqUBuMp9lskPsQwzIOTzRyw3GZ3N/sC983reMC215jWHVd6Z+69fhxHLURdlkWlGVBEKl25ZubG6bTKf1+vz2TTdMwmUyANVtzd3eX8Xjcgo5lo8qCSkhX9XE4jqNAQHNTpi/AlJaMEEQcx9jWZtlNHXBn4wC7rha2ZBM/UIegw5yy18KW3ZzdhOLdevb6O9dpQ9cAfIhPGMPx4fuaWkUrnusThbTlFnM/65KN0UI0tV9JI2qk6foL1n3eUqoyjQp5zb2s2ZBlWVLrtKNXh+zv7/P8+XOOf37DbHrOD9+/Yjwe85/+438i6m9zdnbJS/sFlWiwLMkqmTNbXDDoj9naHrNcKFkyx3EIfBUKl1VOWU61YXU1EKXKcibsLMtaG/c1v3y1WtE0DePxkF4UM+zF1E2FEwQcHBywtT0GS5BlCWVhaL0erl1RV2ssxrVUadR1HKRtI2h0qlWxmi+4ubkBKRmNx210aQymWvf1Ie8aVXOI2shUp16NVIBXHHhMJhPiQcBiseDi4oLXr19zfHrC7t62ovOOR0ynl7x8+ZLXb48ZjUbsbh3w4N4jHj/6iDgakK0KslVOWSh+g5Brfr96vtpbsh65bq6tC9yZMl6XEt/FCBzrr3e1Gi6HSafMvzOpgKnnh724Rfhvbm4QQrSCsLZtE3gKJOw2W7UlYn0+bNsmCKLWSLuuq8qAZgN3e/RN+GEeVhdY6t6YkYMyX2YsfJdnbxZQCoHtODi23aKctq0126Qq/rmOCqUMqcGkIG6nCiGlKhE4HQ6CmrKjaI+WfkC+Rklty+SbKm+MogiJESip2ipCtxpgWQIz2kmYRgzbaWm/daOjIx04mGjJ90ONzqrfZVlGspjjhQ3DUczjR/c5OtxnNr3k8uKWy4sFo+EBuwf3qCuP77/7EctysB1YLW44Pn7FgwdPGPT6ihtgxq7ryshoNFLPot9DSslitWzp1pZlpu4IJYpRN9SlalgyPP9+v89kPCRwXaxSKTWNhkNcV03k6e6LbonVcVyiyMXS4K7UbbC+74IrVXqS56RJgmVZTLa22sNt0oQumUZ+cECMAe/m37anNBO9wGdra4s4jrm6Puf6+pr3Fxe8Oz0hiELu3rvHs08+Ahp+/PFblskKUdf0ox53D4949vhjjg7u4loulze3zGfLjb0thKCWxqCviT+bwOQa5O56+y5G1q0M+O4m+ax7n8bpGZZk9/u6Ue8GaKrPQqtspBWxp9MpJycn5HnOZDJhd3cXKddM1w/xDNccIGN1uqH3BpuMtZSRsVQq5GlMGs66Or72vubVZVJ1F8b8rksiUqF61RqRTYLIOgxbRyNrgs+6Lr1+CaFE2qRoFNrsWDiujWe70CihD8uycWw1aqytsUp1UGzJxvcJIdpe81oKaES7Rt1NZEouSZLhrtQcg7t3FRj46tVPXM5umc1uOX73M9Eg5tXr73j56oUCdKTSkktyydHhU0YTpRxkCWW9Ky1jbdtKClr6Xst+NKIdaiBruBG+ClHT1MqzIKTSAXCUPHuep3hBwMXFe8a9AaPRZGPTmbU0e0A1kukycOcQGJxIAXUeQRCo6U0a+TcTlU0oKoTWMOSvMUj1aDhfOQLP87lzdMSg12u9/qs3b6iaki9/+TW7+weIutINTVBVDRY2g15uvHIZAAAgAElEQVSfvZ1dHt5/xMdPP2F3e4/rqxnn789AWsqgyxpJpZF5Fa5j1UjcNg3p8ma6rfFFXbT7vevdzU9VidbLm2nHuRa5MZ7c/HvTy+/7ftv2bYBFz/NaERMT4Zk0bz5X8xVub2/x9Pj3IAg0dVtV2dooRWMTrjnIpuZtHp7Joc3hc12vFUAwh9Yswoe1ebMJ1IYxoInq5JICFTZbDnHUa7vUPuQiGIJH19isjcnagpo825ArPrSUtm1kzCykHieueOn2xnVu5KOdioe6rzUHwbzWKcq6EtJlOUptNEStQ7ksoCoFe3v7fPLxp3z//V+Y3V5zdXXFt99+w83ihh9//Imrqwvm8yWBG6jGoJs519dT9nfvMBgMWM6WqoZbrkep1ZWgqWssy2E4HHJ7e0uapi0W4Ps+jqefr2tRFB0V4X6E73uUuYrkptNbpLQZhH0slNJQ4EfKWArNZZd2O2Ox9Va6T958b13mVHXRRnhGz6Gbmm08z87adp2SeUaOpxile3t79Hs9bme3vH7zkm+++YaL6ws++/IXPHrymCjuczud8s0335AsFrw/PaMuK3Z39jg6usfnn33Fo0dPuTi/4uLioo1Wm7pSEaoFrtcl3Ki0rq5rPG9dKTP7od2DzRog32A46gNX5glWK+/V6LVotPc23yfbvovlctl+R6v4q9Nxo6rV7e0vSxWtxXHM0dERhidh9vvtYr5RLXN1Wds1D0MI0YIKpZZs7jLjHM/XhgE2Pa+1cbMfgiTGAJiD3q1XdnPpD3kEa7aVYT2tF30TG/j3A0E/JA2ZgYqWo+TB1XVuioqa8Muo6awjIR36NVINZzAhmTD3ycZrzc5aM9SaqiZJMtJVRn805MGDh9y794jXL9+QrEr++G9/4f5yzt7eHnfv3iFwr1T5pjekP+wxn025vb1pGXSu61IVFatVguuqvFCKWk1GclwuLi64ubkliiKtGqTKdL7v4vsuVa3INJ7n4Tu+8nyiJgw8KuG09G1TBQm9YM1s09WeNeCqZeSEpCkrFqul4v7XJaXGKzxnTQM3+8lUmTDzJqxN/kjXAHiehx8G7O7uMhqPefPqNe/PTzh7/54sS/j888/59IvPeXd6QlnU2JbFi+++4/jNG6bX58RBzJ07d/n1r37Lp8+/ZD5PODu7JFnlbdRk29AOrtGVIMso/0rZAncmVO9SfW3bbtPObvm5C2QaZ9YFQc37u2XtulZjyabTKa7rtnMSG73Pu3qZ3XREStkSgYwREkKwWCzaFN+27VZwx6yt+6FXM3m9OQDmjd3hnOqCDeNpXQ82h66bo8gOA9D8/YeNQ62R6bALLWt9g2Yjmms039H9ro3yyl+JBBxbq+FY3gZa232IWZaxWCw0mWKM6/rterRKOwYj0IZP6GGcnrPZy95ugrpRakgCsqyiaSy2JnvcObxLrzfg9vqG8/Nznjx/wN7eFns7u9AoDyBqSV6rtbi5uWFnZ6/VzzOTiZNkxXK5JArVoS3rQoeCVwwGA/b3DluBCDPxKcsSiiJThgGlCeDZMOiPwPWJwh5BEBAESgRGhZNhC9x2Kx+WLgf7oc5fpRIdrUWjvJUm/qgocs2sNIa7FQ5xOhN0P3i+rusS9XsEccRPr1/x7viYxXxKXdf8wz/8A59/+QsIPV69eaMEWRYLFrM5Cz2rYG9vj//lP/yv/PrvfkuyKnjz+i15VlEUFUmS4npKsdjcl2gkrqXLzToalPa6Iam770xa7HSev9mzQogWyOvH0YbT6u4Vsx5CiDZ663IO1PpsqmKbypVh9BmQ2gCKxhmbtGusQdjAD9tzZdu2igBMnlDXNdgWnhYRrBoTBTiIUpNldD7t2KoHH8vCcz3qql4fQO3tXXstJrrKC3zfowHKqsY1fd5CbCymg1KubWpldT3Xx5YNoPECW5XmVGKO7iZUdE3LUorEUqqefcuyWo3/silp0JpynlKaLeqKwFEbvQEqISnqRs0/tASO76ivbaBsChwMJmI2KFBZWLWiGsdxTK0Zcr7rEngeFUomqspWzG8bhjshk8mYwyeHjPbH3Ka3NLagLuDh0WO2d3c5P7/k+vqa+SxBrErSpObWm2K7DkEvIs0LGiloBFS1xPMjcGyKWlCWNWHUYzyu6Pf7RKFP1dRYrktFiWXZFIVgMc+5na7wHMmo18PzHEQt8VyfQDEuiGNFBx5Oxurg2haWa4EDtSWwbQmU+JGHqCsC3yX3FamnP1QiLA0Ks2gWmVL/sczsPT3+20y7LUoKbVTCMCTw1QGIooDR1hZBGHH27oTr92+xmhXDPnz15Rd89rdfge2TlSWfxp/w9uefuLp8hbATPL9md2+bX//6t3z9i19xeTHj8vKSxWpGmqa6xFYihNumiYrx11DKNfDpOA5Zmeqjus7vLUvJ2LmO1/aZCN0x6XkGl/JxXSgalSIp5+Hg+UG7/4VlIW2HJEmohKQ/GhMH4UZ3YKnxK7uTQnXTddt1yauyjVJMimCilUJP55KWGmxnmr1cA7iZkMWgsV0+s9IZXzO0jMf9sPbdLX9sIrrmwDgYmuY6l2qliVSo1I4a21Q5bT2Q0Dmbjki6aUq3OmHrBTASUh/iAl0MAVTTkOd5rdCmsd5dUMt4pS4YSLMWTu2mFN2wzrIsbEdthiIpkRObg9073Llzn6vLSyxpMV9MkbLGcwVNlXJ59Z5klZMmFZ4XUAglSnlwcEDciyiyjDTJ2+92PTMRyGU8HjMZj9nZ2WnvTUmLBW2JMs9zFap7Fk0YEoQOdVVjWSG2jdbpL9vOujD0N+THWjHZWiKaiigOcKRLVEesVivOz8/p9XpEvQGz2YxRf6SmEzubHA4T0Zn9ZjALIdRk3v39fQbjCbezGbe3U94cHxP6Nr/97S/56usvObu64vLmGj+KsaTg3ds3nJ+dqFmDYcSvfvkbfvnrv6dqBKtVxmqVUOgBpcb5qUhHR4xCtU4b0BqU2I3hyBhRT5MiO/Y61Fd7ad1puonW2wixeWiFdqRSyrZH31TfvM55K8sSy9PGwN4ES7t0aCkl0l3T4c3eNWkwltU6RhOxblCBTY3Y/GNzQPI8x9XEk24bbvchdssV5gK772nLKFLiWKaTTPX8e56SvGqaBnwfpI2Hq8LLRg9GFCZlcHAdF883qLSpvZoKgAJLTNuoqQoYBNXzApR01HqyS1MLqrKm3xvgOA6LxYLVKkXo1tIP8zlQdWlbguVstiEbTkEjBbVoAAU+yrLB9QIWixWTvGJ354B7R3f58YdvmF1fMl/c8O13fyQr7rNcJhRlQtMIXM8ijkOk43J5eYnruhzsHRHHEfP5HM+1iaIA1193hPX7fRWpofCcYRxhh3oD2y6yUY09ruUSRoq3X1WqO8xybfqjIUHgsVwusCzJaNxvh04aRLpbjTFrXGsgcjZbcHp6ysHBAWEYM9RDS7p1/e4+MT9dYdogULyJ7e1trq6ueHd6xjd/+RNvfv6JRw/u4rguaZby7u0bvv/+e7AtLi7e8/7shOvra+qm4ZOPv+Djz37BcDQhWZXMpnOSZUpZVBuOx3EcPYbepmlkOx3KGHLjbY0z6147lkTIhiAINX601grspr5mfoJtWdSm4clxNpyQGZYjhKDI8jaqcF23pRx3qzHGGHfXsNtkteHkrHWp2nVdNRIdVBnQvMmyrLZpxxxco26S182GNzR/Z4yH8cJd62QuAqRCjkW3318/dNfB93y8eD0GvKoqKqlCfM8crtoQQTTP3+oaIoHRnlPfqbqOpVRDN03bqrmeLhhpGk1MzmTuZTqd6pltW2rRtCItyHayqwrP3BYjMYhvN1c292lbakpMmXuUWc5g3Ofx48fs/3mPxfSa43dvGH0XY7slTW3RNCV+EOE4PaKwT9iLyVaJyg+RBIFH6PtY0syMU0Z7MNhCSouff35NkqZEDyKKsiQMvLaMVRTKkzuOQxxGhJ6L51sMBn28QG3CV69eYds+NdDvjRn0+qRp3m6+slThZugpj71Yztp8F2B3d5ednR08N9CYkvp+tfab0aJxPmo9labj9vY2vV6P9+/fc3p6yvcvvufFix8oygRpWdxMryi+S1nMrplen3Ny8pbFYsH19RV13XD04DEPHz7mztFDHC9msbhmsVi0I+ls20HKGnSKIjqTnizLQhgA0JJIW7U5qz1etzm42Tcf4lHq3hTar/aJigAVKatsZwF2ox6DdXTTCxOJqjOoKir+B23UpgRoEP61QtWaZyClpNEDdcy1VnW55gF0wTOrMxYc1lN6pavyNssym14ipflyLdmN7FhJ091nPktNlHWcdRhtbkJ1NTm6S8yn3+9jJtxYlkWSJLiWheNauK2Yoq7TSluzFGmvV2EVGrDR19HrDTaMkmoxVQcaaDev7/tEYUy/rzZ4VTU6rK/b8Llb7XCcTR5D1/IqI6AGV4aBpzQDK1eLhvZ48OABj5485v35CavkhtPTUwaDHuPBFrYbsFwuEHbJncMBUqrhJ03TkGYr1SQyjHBSDQRVsq0SDIdDtrZ2SNOUJE3xohCryNjZ2cJ1XcUjyAvqqsB1h9y7f0QQuJycnHJ7cc1ypmTGtkY7hP0eh1/eI4pDiqLaSHFs21b1e8fGcjxW6YI8Sbl/7yG+7zOdTlksFoDNaBQiJZimoc3Dgq6mCHxfhf1BEDCdTjk/P+f4+Jirm2uefvQMy1a8k1dv3jCbXjG9vaSuSuqqJFktaRrBzv4BHz17zrOPP2NrssfV+Q2LxUqPYxcb+11qYdSqLtvaubrHdQXARDjmUJrD2gXahNT9DEJPLmKtK+F5Hr6ry8RVjaVH2peViqaiKMJ39Wg0xyH01kh/0xi1n0J/jmonNuPXnU6kq663wWCL3UpK04jW6JjSoO/76ypAa/0645bMzbuui2O5G7l0Fw/oPsgPQ/7W42KUdHRopaeqlE1JURSkqWoO2d6esLW1xXg8JgxDsqzA910tTS2odFlRyDUiKlGpm23bWLbWKtC1W9NmaqKWbt7Z/ela5SAIGI4GFEXRGqFMI7PGYH5Y2TBlM5P72Z4aZtEUWlVYGxm3yEiTJVnWY2sy4v79+/z5T33SdEGRNxwfn9IcWDx8/DGOIzi/vFXabbpKsVzMsEXDo0ePGI0GlHnBMi9wPJcsSTm7OFec760J8aDfRkI4gLOmmRpvMBj0ODo6JMtSVquUly9fkywyjo7uKcNWVm2+2GVMGsyjS9AyJBff9ynLmtlsgWyExlU29STWB0xtWNtWVFbD8Lu5ueHt27fc3t6yylK++OpLHjx6yGAQ8frVS37/h/+b49cvcC3JeDRACIjiHuOdPR48fMovf/MPPPvoOfPbGZfn56SrBFHVCnRrGmprc1KOkOuql/pxP3CEa3zHOC4TBXbTzNaJRBFYkqoqqZsKhP/vmHzGcxtZL2OYFLGoWu9vbUSMgTe4nRLbXUuSd/ez+Rzzub6/LvHnWaaeneerKkAXPLPYFN80C+Ta7kaDS/ewdwUqurlyNxWw9UhqIyYB61bJqlRa+rPZKScnJ+zs7PDo0QO1ycc9dvcmJIu5YtXlBUWuhh00tYPj1NS1hdJfN0MhBNJG9SaYIaFmMYWu87YNGeoawzDWC70W0gh8rUZUKCGIQnuQMAyJNHvLGBWjhSftzZDWwlYcBI1+y1qBOkVaMJwMefToEQ/uP2K5XHJ1dQON5PHdp+zu7jLZ2uXOdMX11S1FkXF7M2W+uMXDZn9vh8loS+EjejPNZjPOLi6wbZtnHz3l0aNHeJ5DXmZIp8GyBZKGpqmQjSD0fHxXdR+mZUota+J+n6dPnrO7vcP1+Q0YyTMJUvf4dw2qCYG7hjHLsjZyqhstuumqXgVprcFbtUfUfovigMnWiMnWiLOzM16/+pnj42OqquKrv/0bvvy7XzIYD/BdmzRb6n6DlNFA6d0HvR5OaLGzd8ivfvMfeP7J56SrjJ9fviNPFTFJImhErVSWa00z18bbYAG2o1PCD0p+xvgbHMRExuYwV1WlFI/04NPuQRVVTeNVBJ7fjpwz6L7hkm/qByrJdtNf4rourrceTGsEPauqaoexGudlu067tlJK6qakroSOXtfy7Lat8LNWFdj0kGNb7cFsKbGgRjF3rEvX65saftcofAj2dEt95v1mAW3bRnJAVVWcnr5jPp+TpHPmi1uefvSE7ckWB3f3kXVDpmu3y1XKapWTZyWuK1oD0NRavdZ2cRwLQU1dZ9iiO1Zqk0jUNA1RFG0YOIN9YEnFhgsC0iRpR5GZfM2UTweDgUKwo7B9SKbu6vp+y7/PM3X4V6uEwXjE3aP7PPvoORdXl8ync2YzBUAeHRzy7ONPuV4s+OGHl/z0wytVT9a99IvFgmF/oFFsD9f3lAruoKeGcFiWSgGSJWmecOf+QbveRhy1aRqWyyXn5+dktdrU4/GEu0f3CTyfm4sptZb06h4SVStXHk+gDpKN2jdFWlBViu47Go2oCiVl5rm6AlE3G2CVMQCj0Yh+v89iseDk5ISfXv7I1dUVjx895dGTx8SDPlVTs0xSrqc3eJ6nJiF5lipneQHbe7t8/cvf8PXf/Io0zXn37pRkuYIGjDahSkE6VRztiJSXd9uzkGV5y28JgqCNnpIkYblcMhwOiXSHaVsS1GXLKAowmHgQeEhHEcrMBGQTfSVJwjJZYVmKtWdo0p7nURV56/ldx9Oj7NZof2tArHWUbc6XAntVuU8Bj66OZJ2WPpxliar+GfCviy7WpbIsa2BGjfF2bAfPsXWuosk3GpQTsqKsMpCWDg9Vjq7ydYvcjNSq1EJHgY+oa4TrsLWzixf1CcIeQRhydvqO89NzFrczTt/9zO7BNnfu7fD02WO2t7cZTYY0VcTsdkWaFKRJxTIpKAtJIQSeFyIbgahUoh/6PYSjON4qHJdITdW1HUXqEXWJpZJUag3UqMYim7KsEI6kkA1JmUPmEg1Uc05d10yn1+R5yvb2NqAs9ypZMZ/PieOYw8NDiqbAshw8HNKkJkxKirym35tw5+49+v2YsKeGe05XM04vTtnZ3yPNCppKlSM/+eIzLCE5fXfC5c2c7Z0DNQtRj6l2XZd+ELOqUq6vbrk4v+Ts/IxVMuNvfvMLPvrkMbglZbOiIUNYDVlacHp2QZkXNI1k4AfcXp0T9QekRU7dOPhBjxrJKk/XsxaFajAKXIc0SanqQqHnrsT1wA1cQifGDRstu+2ArRq44jgmDH1WqxUIwc72Hr3BiKubOZdXV7w7u+RyPqc3mbBz/wArcJgvp6xWC5arKReXJ2RVQmVJsFyieEBvtMUvf/Ub/vbrv8OubBZXC6plTlUUOJZNVqo0ytP8AzW9qMG3bWyh9omsKirAtiwCx6XBwg9U+TnVQ2UbIYh1112rchRFZKuE8WC4ZkzaFr6vmtCkpx2NDRUqOq3rkuvbG2azmZpobVtMJhPCQDmiQKI4BjqtKqsM0eRYjoMfOK0Ck9HuKIqC0WiEbbuaT6OiXNE0WI5FmiW4LtiWi+N7eFJFrK6xHAbganNkex3GS6kenKutvzEKpuRlWiEdx2kHexirpNhyEhsLS1pa6dQM41TFlqaqGY1GDAY9trfH9PoRb39+wypLuJ5d8PO7l0Tfubx5/YQ7R/tKX+/wiNFun8neFsmq5PxySp41xAUURUVV1BR2QVOqoZKWUNNjFKJrQq2O9qBray74phKSeVVULZ/dACmmfmvbNtfX17iuy97engq9ipLVfEGSJGpGwWhMOw1GqlbhNE2J+xH37t1j//CAFz99R5PmXF5e8pe//In5fI7jhlSlYGt7zJ3Du1R5xeX5Be/fv2fQ6/Hgnppic3Nzg5SOVue1OLu4YLGYkRcZjgeD3pDQj3D1fHjP8alE0U4TbkSFaKDX0yKqUjV6BUFI3AvbzWYwAC8MSZKEy8srJV0VrxtYLMvi6uoKKS0ODg8JwwhRN1Rliee7uK6PLW3iQE2uDeKIJEm4ubni5asXvH//nrt373B4eMjW1piqzHErmzxLuTx7z9nJKddXVyznc3Z39+lFfT799DM+/fRzhLQ4Pb9gvlyQVSXYNrLDE+nW/wHqcl0RAXA8F8dZ98WYPeB7qmw2iHtqLfThD1wPWTcEgRIoSdNUgYSB3+4z07AjhGijjeVySV3XrYDHZDJR664Znub72/2nsSjD5TB06jzPSZKkZfp1nXYXA2j1IcVaScuyLJz//L/9n//lr4FabEbw7f+2YYkOjUzo0r7PWvMBWmARVFcXSphCApatxnmp6TFq3PWgFxMNYvrDPpZrczu9YTq7Zjm7pa4yptdXnJ6fcHLyjuntJU1T4fg2vUHEeDxSoguOAMvCcfToJrTHB6R0QKq8X+V1qnogpdSKNEr7TU3QdTc4D7WeVOO7HlGoeu2llNRVgW1buJ6D6ynWZJdsZLsOw15fPQAkNrZWMZJI2yaIfQajAbPFjMuLc9J0xXIxpxGNavBBEnghjufhOD4INVr7/PwcCxgO1BCOPC9BWhRVhWUpY7a3t8O9B/d59vQJ9x/dZ3t7B1FVHB+/5eTdCUI0eLqjz3Ft6rphNJqwt7tPI2E+XzCebPPJJ88J/ZDb6ZS6XtezLy4uOD09wfd9+oNeuzfKsuTs/TlNI9jb3SX0Q0rdweg6jorOhEq7/FC1K6/ShNdvXnMzu2U0HvP0o8cc3b1DEPlkecZycUtVZlycn/HHP/4b11cX9Hp9Dg+P+PyzX/CLL75ie7JLkhacn18zvbmlbpRBz4sco/Pg2BZB4LegpG2t9RukCgtpS9e2Is+o6Fjq69aip3qwjKgb5vM5aZoyn8/boSdGQMa8zKHtgnVhGDIajTTRynRHrisUxgCYIbCGW2AidVhTzo0jsi27TSO6aa7jtsIL2jnrWQTmArsAnsktulx92bEmxpK0JAfREeNw1u24apyzhawFlgDbDBeVesinsGhkQ11W5EmKlA3D7SF7+/tYDuR5SloumVPjBjY1knSZ8uLqBW9fHfPt9rccHt3h44+e8/HnnxIGMeH+iHIsSJKc5SIjCD3yrCLPal1aLHTDsmw1CExuJgU0tvodQhkDx6DEpbrvKIpUDofAsSSpJsZMRkp95XZ2g+u6DAdjDg8P1+tVSz2uS+VohStJFksWi4jD+A6Pnjzh7oOHrJZLzpN3TK9vuH94xKTfJwg95os5lrAJ/QDbUQXWxWLBYrVkb/dAVUzSUnHEA0dXVLbpj9VgDMtFtwCvZ9R3IxzH9ggCVWPu9XqUjWn7tds/lVdSmEehtQ6kEHiuy2x6ixCCrZ1t7DbMj1vWpus6yKahqUsaG3w/bo1kURS8fPmSm5sbtre3OTw8ZDjs0ev1mC2mzOZTiixluZrzww/fc3Z2hoXNwf5dPn3+Oc+efcJwsMVqmTG/mZEvE9XiLaQS+qhqXE+NNjNGPUlWSCnpa4HSIlc8DiGVpDso9WJpKVFSidLhS1cqdw5cD1sKct2uazy86tSTZFnSpgdqZoG7ARqblmjjLExpzlCSu9GHMSDG8Rp8zoB/7UwBIfA8Cz8w5T7laBzXbpuJ7LZCoN7fyoJ3+4odx8GyVdghUWIcwrIUos5aGdZYu+FwqMMTbyMCMIZFSqmnu6qmHGwHy1GlMUvSWtX0Vsk37985YG9/nzR9zCpb8KouqJsEF5DCwSEgWVTMLo85fvmO7/70I1/89BNPn33Ew2dPONi/z9ZoyLyXspoXTG/mQEJZ1tjOWsO9qio1nNH1wEibo8Q22rKM52B7DpHscXV1RVPrkU96QIcloSpKMqlHmJcVWZIS+BGDgSpPdRuppFBz5WSthEerokbImu2tfQ72j/j51Wu8IGK1SqjLGtdzWC5mJGlFkpYMegPuHN4lWWX88MMLRsNz7t97iLuzx/HxW5WSearhI89z5KxmuZzTH/awbYemUaqzJg9ukAS6177f72O7Pg1rpRophBoyakpUdd0OzXAc1X6slGYzmqYh7vcIw5BB3MPXjSeWZVFXBYHvIS1VDcIShJFPUTX85S9/4eT0Pdvb2xpHWa9/pdO5s/NT/vLNn3n//j2+77O/u8+Dh0949Ogpd/bu4uKxmCcspwtEWeFZDpWosEVD4LgIS7RApgmdzZ7Psoym1mw/a03u6e5fqR1VO4DT89s1iWNVQTJAcJqmNJVse/Yty2pB4W6FrSXpNGt157wuNliCUkrVTOX0N95vzm33s4wx6QLu5vcmFllXbNR9ul2yQPfDhKbmSgzHWb0CTVjI9QNqRQ16PSzbxnXXubMpZ1iW7huiAVyl/SBpL0ogacqaolD572DQZ7itxDOSbMVsccu7k5dUNWpgBAFeEGBZEWkyJz2/5vL/+h0//vCSRx895ssvv+bRw2cMBxOG8YTxMOZmPmO5TFguE8qi1obKwbQFu74KRW3WYZOJcGzbJo4iPNdlPpsqAEhThFUvt68JG6s217RQ9M8sL/W6gqc/27EsLGljS5syr5hNFwRxxOP7H/HdX77hRJxoRrlNskq5urohLxr6w236+4fs7++zWq344YcXnJ6ecnNzw9HRPWxbCUQS2W1PQ12XNEVNf9hTHlEDnJZD+7xs2yYrKqSV4/o90iTn5vqWLMvbMNQYfSNZLRtBlqRtfun7A6WAnGZq9qC95qHneU5pBEP1uDMjXf3Dix/58zd/YTjeIur3tASWjWPZrJZzev2QVQJvj3/m3fFbHM9lb/eQB/cf8Pz5F9y/94RBf4ubq2uuzi+oCjUduSoq7dh0eRr1zLu0W6m9vSmpDQYDgjAkCNasxVZRWTRUeYElpJqsqyMJX3tgEx2mWYaUkvF4TBzH7RlpmqZtwTYCIGZvdQfzdCn15gADRGHcSnpXWpjWdhykFC0wa9bbVHhMZ6By6LY2dLXmFKhKX2sAuuo8yvNrokbHANhyLZxhjEEURa2+3EbZ0FY5tZQSy7EVKUaCLRuEsBCyUoCH7SrlHaEbe1kv9jwAACAASURBVBqLy/NLbNtma3uHhw8fs1wu8DyHn9+8opYWQeTTG455cO8eSbLkh2+/Yzmf8vLVMecXV5y8OeXp08c8fvyYh4+esHtwyF40Ih5GRLcu89mKLDMyzGr+gNHTszAilGttePMaj8fIutogfPSiNcFiPp9TVQ2j0QjHcdZDLhw1iVXxAnT7c9VQ5hXWMuGyLjm6d59nzz7h8cMnvPzxBbKqaHRnWV3XSNtmMhlxdHREGMT0egPG4y0WiwXvL68Yj7cYDJQgqOc7La/edqBp1nLRZrPEcYxE4HuuZmMmLOZLpPCwLY80zej1BvheqNFil7pQwGWWZTRVrYBPz+LevXv0epGK4rSOpOP69PtDIj9QLDRNJvL8SAFe/R4//vgjP/7wEwf7dxhuDQkjH9sW7O1vMR6PmC9uqMqc66tzpjdXOJbNIOqxt73DvXuPePzgKXu7B1ydXXNxccVymeDoQ97oprNaaI6KFu3E0vLdqMGapp3WlOY2qe4ltVGDEmsNhG5vv1HdUWIqU1ZJwmg0ajtsGylwfQ+jxtM96F2ikTEEsB7uac5jlmUthgBrCX/02SyKYkMg1JxFow9pWR6uEyj+QJrqnh496KbLGjLWRzUP6A49hZJpS/LvGUeRr8YPNW091Mh52xs3h9VApSG5plKinELtUFtKsGyFDluqfHd7c4sfhRzduYcQNZEf4Ns+3776AUHDRx/d47OvviJZZTSuzdufXnF7cUW6ynn102ven73l2+/+yJ27hzz56GOef/41g/4Wu4fb9EdDFtMlq1VOmhQUuZLNbrsVOww3Y9SMdZ1MJqRpSposqYqS2lOGI88y6k6t1RhVUxbywgDHcUFjDXmVK9alZ1EhqCvB1tYOjx9/xGj4L1y8P2WxSGiE6oS0TIpRVwi/Zjgcsr+/T13XzGazlotQFEoqLE1USB5GyhCYcHQ2r5XmPCqHDEIPKXyWy0SHwzlZVjAaTRj0J/TjGN9R3s4M+bRtm2WakqYpvX7Y1qXNAaqqCtcLWj1CCwdpScIwZmsyIY5jXvz0ghc//sTOzg6Hh4cMJgPC0CcIPPYPdtjdHnE78/jd7/4b33/7J8okY9Trs721w8HuAZ989DH7+/ssbhfc3NySpjmO47ZdotiSvMywXAdDRze5tZSSvEhaz1/XdasObe7DpAnoikBZ5aqvRApEU1FV6AqYigLrWulLOq6irC8WM4qioD9UXI2mqtv0oyiKls9hSommG7DukH+6ZLxMs/e6kYFJ3eM4bis064Y0pSQETsu58TyP2vM2Rpc5//l//z/+i2UpOSJlMfVh9Hws29H1cvUhlRbEEEAtBI1USKnv++uigUYYHcvC1dRf2TSIugTZbHQ1ua6H53oabRXUosLSbCbLAtkIfNtje2cPrxdR2mA7HlJYHG4fcLizD1WN61oIKo4eHDHZm5BVJctZyuw65fJkyvFPJ1ycviNP5lhNzWQQE8c+UeCp6cM2GjG2qWvFXFMYoRoF5ns+tVQz4iXQHwxxbIf5wkxwKUhWKRY2vbhH4PtgSXzfIwpDLQldIxqVDlgOKEVl1cXouQFDzSso64oXL3/iZjrFtm0Odnbp9frUCGop8EIPy3FIk4QgDLFsKIoSPwjYPzigH8eUZUGSrLiZXmNbLnEcMRyP2N3Z4frqkp9e/EhWFUShz3DUw8IB12M82mJ7e4e7R0cMJtuUWib83sN7FGXB9c0Vi8UtWbZCyprReMD29o4eIDpnMBgy6I9B2oRRzHA4VPiKDb7nMJ706Y9jfn77mh9/eoXtuGzv7bJ/eEgUxTSiwfMc/MDHtX0W84QffvyOb775hsvpOf1hn48/+oSvv/qaT54+J1mknJ+ck6wS8lR1zzVCzWp0HBffD5CiASERoqTIMyzLVgZ8lVHkJa7jEwYRQRAihERIpTuYFhlZkSsNi6amrhSAKJHkRY6Qkl6/RxDENI0gLUscz8dxAxoBWVaovpbekDRJWSzm1HWlzoZjQyPJ0pSyKEBKRK2Gt7q2h2u7SGG1StaO5VLJSjkmx1SRlNM1ILby6NA0qhlLOSCJFGpIaFXXuK5Hrxe3Kalta1lw46Uty8Km2Qg/zH+bJh46B7hb6zcCid3KwIcAhYoaHEw93GJdlzXyx6a+iR6ZJBH0qx5bwwmfPHrG7nCLs7MzLq4v+PMfvwFbTcP59NMv2BqPmS9uGQ8nvH93xuzqhjTNmCUz/ucfpxy/e8vR0T0+evYJzz/7lDgasL+/QzoouLleslpmSBqQ4HoeddPgel5rXVUFQ1GJt7Z2EAJurs/bBhsD2JgQMs/z1sIHUaiZiipEc22tpSghDkJWqxVb9RaHh4c8efyY459fUlUFjayJeiHzdEWRZlR5huxVjMYD4rhPniY01TXL5RwhauI4JE1d+v0ejqOMrGUp4kkjKm5vb1gsFvg9lYtKjfZvjycIYbO9tcOdO3dYLDNuhKQfD3ReXdHouXwAWzvbTCYTXNvj7du3zG4X9OIB45EaVmE5dqtAZFkWOzs7TCYTTs/f8e7dKVgNo+Gk1amfzecURUavH1HVBVmy4PLynFevXnF5eUk8MCW/L3j27GPyvOTs7IJ0uUKI9UyIthplo8NfSwO+TSvLZkQyVSrkEMcRtqULYvZahap7NgK/13L2Wzk1L0ZKizTN2v0caN2AXtxHCMH5+wvS1YrxeICnKwE2Vsvlt6x1H0kQBDRSDX6RluqTaRoFJtrOGuDrRqcWcuOsqXO2KVUmRFfnY7OduK0CGPVVm00+f/fVpf9uAIaa7NBttukaEfWn6RBUEYK5iO57u4allZ4SCq2Pcp/ICdjb2mPcHxMFMd9++y1VkzMcDtje3mU03kYIQRj3mOxu8fHHzwiCgPOz91ycXXB2dsZi+YKT0/dcXF3x1Zd/wz3H4fDwHsPhkIvzG5bLhGSVkpcNjmshbAtcB7uWRFEPm/X17u3tEUdBK64xnU65urlklSpBR5MfxnEfaalSG6z14cx6VVWFlUv+f7bes8mNM8v3/KW38K4Mi1YURYkyrTZ3eu6YnYkb+wU2Nvbr7Mfbne6RGYlydFXF8vBAentfPJkJsHsqQiGJUUQmgDznOeZvVqsF7W6Lx48f8tNPB3irpXjtIBCUXU0jiWIohBdeYUmMJ0Nub2+JInECKo6Daui0ZZnRaEAYxkyntxhrhcDz2CxXTG9vaQ/aDNpdVFUmi0RvbxkuiiRTpFmDeZeqCu7u7obZ9BZvs8ayHHo9ARkOw5j89JykWg1GSUwpgVMJV5ZFxmg8ZjAYMJvNmE6XaJpBuy0zHAzo9/usVksWyxmWrVMUBuv1itUi5tWrXzk7O8MwLMaDA/7w1R959uw5mmowu1s07L4sE4NmsdumWrspOyp7JERQwzAkqd6X4ziMx+Nmcl8/q3lRP7MyiqKhqjoKMpImkadiIzIadJoSOs0ydM1CknctRt2rB0FA6PtYhknb7WBbVkMKK4oCXdVES1yWlJJEkmU7eXQkZFWhkAsychx950q0jy+o46YObBCaBmItKNCEiqKQFbXc2c5lW1EUlP/r//5//l+xH6x40E0wivO3djLZxwTU/W0NKKiz7n/3s8PdF80NglAHFslEvIam6dWNCcmtXQYWk2vKkizNUCQNy7AZDybIpczW96AEPwhYr1a8f/+eN69/Q9NVPvvsOV9+9TntVot2uwuSTFBp6M1mU/IiI4pCJAk6bZtO28W0RX8UpQnI0g4wgtLIWYFEnCQgSbTcFpqmk6QpSZqRZxlpmpHnO0kpXdcq2bSk0W6T2MvYVPLiZYnjuhRlwc31JfPpFEUVfgSyJJEmGboqZLx1XUXXdIIw5Pz9OTfXN0gSHBwciodaEw/X7fU1d9MbijJjOOrz/v07Xr78kbIs6He6WJVQSJqKU8Q2TOFwnJX4XsB4MGI46PPTy5/4+aeXgsPQatMfDFAVg/lqye3tVEjD6TqWaVUlaaUmrcgCV5BmQtjj/SVJktLrdxkM+siKShQHpFmA69rYtkUUhfz26098//33bLYb+r0Bf/rTn/nzP/wL3VYPbxuy3fgkSUqe7ipIsa3RUVXhgkxZsFjMmc8XolULYqIohlJoH9TDOkmSROCzx6YrBHjNMEx01SDPgUIkBV030VQNSok0FYxRq9L8q4O/HsZ12j3G4wmuY2NUe/+iKIS8m7nzOSwohXVeWZN7VHRdQ9dUFHlHvqrjYjegrivufC+eanFSFSpWrCTX2J2iOZxkWUYtC8jLApQPvcr3BxB1GVVPSPf/vE4ANYZgn2zzYSLYTS6LQvQ2+wmipofWD2IdHGmSNRhsMckW17Bsmz/+8Y8MDsb89ttvrDZzvv3rf3F19R5dk3BthyItCDwP13HQTYODo0MUVW5gmJc31ywWC3788QeePfuEj558THcwZDjqoRkqd7cLwiRGpiApMwFlbpKAcGfNCyEX1Wq1hJtS6FWAm2piW9FIZakkL0oKBMJPrgKkqFiGci7koeMgZNDrc+/4Pm9fvcYLQjpRQp5lZEk96BGfx3isVH1fzpt3r0mylPHBIc+fP8cwNM7Oznj97jXn70/5VPmEPM9x7Bb9/gBFVyscufCky4oEb7slsGwkaYysCCJLu91uFJOvr69RNYNHj56gaRrL5ZKr6ytAgGYGgwGdbrfCSUjVUE1is90SRQlv377l/dUlR0dHaKqJtw1wOjn9gYvb0pCkkryImc2vef/+vTC3tF2ePXvOly++ptPqEQQx65VY50ZRUnk6iIND11XyPGO73SJUjlIWszmr1UaIlFpuA6axTEdsfvIScmFJVw8xYYfCU6rnU1NUQfGuZL3zohQiH7pCmidEUVhpCchNReG6DrYrjDllRWqG66bqfJAsDMPArNrM2p1LkSvxkGpr89/t/tPK91K0PrVGRV29iAQgVQlC1asWvcg/8BponIGa9R07gMKHgb5jG9WBLk6ynexQvUXY32XuMAFi8FAU+Yelf7mTg6qvATuqcP3GfT8ApEZaqSxLRqMRX33xJS3H5eXPP7JZr7kqLgnDhDTOiaKEywtBdAniAFlTOLp33KjZzOdzzt+ds16vOT1/z7uzM168+IL79x8yHIw5OOiJkyM0KjDRnt6bqqFJMmkSIyFj2A66JQAhWSpYlVmWkcQZkRoKLoUsE+cpSVJUGxbIK+SXpEAWZ3jbLd1+h4cPH/Pb0W9s13PSXCS/PCtZrJZElUZcfzSm0+syOTjAaXdYez4X7684PjphcjBC1Q2m0ylnZ2c8fvwQwzC4d+8eT58+ZbFdkVMSJgKgYrsOhm5iuRbIJV6wJS8zDNsAWUI31KqlMWk5Lr1OF88LUCUZTZFptdp0220BiVZVer0ejuMQRQGLxYLXr19zfn6OYQsY9Wq1xHZ0BgfH9AdtFFkjCD2++/4vvDt9w3K1QJIUPvnkU77+3Z84Pr5Pkcts1gGbjYfvid26rIje27bE83N9KXgSecXVEEIvKW67xWQyQq7UfjVDYEnq3r8ohRuyxI7P0sDjpQLLsaoHumgOPkkCU1UwTAepWq3WmwRF2XlsSJKEF/jopYYsO420nud5+FuBpbAsq3nu0zQlTXYCM/uxVCeAGvknUTZ4lLrlKQrxOpZVGftGEUUkyFC6ttP1KIpihwNoIKt7Pa4IXNEC1DzvmvveGIJA02+J3/9Q7HE/eXz4ulWS2bP9/lun4v0f17QgL0Au8DdbMsNgVpSM5AOePn5CVuRiaq+q3Nxc4dhdprMNjmUIpmKegJSTI6NWqi9Oq43T7SIbBlKRE0Qh5+enTKdTHt1/wL17D+m6NrEq+ilv65PmGbIqQSFmGqWmCrXcQthwN6oradaIaCZxjKJIGKpGWmRUUm5iHaMK6mi9z91ut7TabSaHBzx8/ITXv2UUSOSlqNSCKCaIYpx+H80ysRyXx8+esthuubq8IckzNr5HP+02whT9fh/DMlFUQbxpdXpsk4g0S4nWazbSBtsRcxRFV5gtZ1xfzzBNCySh3Iuk0O70KEvxjEiShGFodDstKHN6vS5FkZMn4Fp2UxEtVyvu7mYsN3MGgx7tXl8kcHKUagPT6/WIooAfX77mzZs3vHnzBn/jc//+Az559oJnT5/TbvVZTBdEfgz5Tu56/wCL45jp7JbFcoZtipI8jWLKvGTYH9Btd8QjJCuouoaqCL9EXReIRDEDq2HtNWmm8kmw1Ga4WCcFEeBCi99yBPCqXrdali3uMROflbfxP8DJpGlOHEbMZncCR1NUUG2k5jVkWQZZIkpiDGmPOl/u3LWElZ6CJJUVSjEX6/R6JZvEzGYzvECYx45Hw8ZYJE1TIQq6T+ahRsqXH2L9JUlugBP1nrLu0etsuY8p2J+gNhuGv4NX7pJFHCVNctkHRUiSRFFlNkPTiQKB0y7ylCyNCZOYg8ND7t87Qdd1uv0OV1cXeNs1eQleEIGUgZJUHxRkaU5WFGR5iWXbjEYj+v0+UlFyd3NNkd2ymM6Yz2Z89PgpttNm2Bel8Hqzbe69VnEtS0EUEbx2ESTedk2SZOR5QFEobNcrMstC0TRAIUnEJLmQi0awNAwCSrmk24touW2ODo+5OD8jDkMkqUSRZDFkK6VquJWgahmqqvPo4RNMwyUKYxaLJS3bIU1yPv30UxRFodvtArBYCElsTTMIopi76RxFkrGTtPI1VIjDhOVmydg0COOAbVDJVckC5rrZbFgvV+IkVVTabgtVEWW4omqVS7GN53m8fv2GN69fcXQ05uT4GFUTaD+UBMe1GkTg+fkZv/z6kp9e/sJ6vWbY7/LkyRM+/fQzDg9OuLq64ebmljQR5Xp9YInJvCifPW/DdivEQga9vhiahglluePZZ3FEUYHODMMiyTPSvMQwzOrpzyjSFAWlQszpmKaOpIoqqBaJlRSROCx7t1cXeAihRJ0WwpreDwK89YYsyQk90br4vs96vebu7o7VRugBaLpJGIbEWcZwOOThg8eYpk3ieURJ1lQH+0C8PBf2deLwCCt8gY2q6hVUO24Gk3Us1aYvNd9BRaqGcLX1V76juGZZ1vjdpWWC0zExsrpUL0iSGAox1aaU0DQdGUQfU/HTFUmGEtJaC64uYxBaAlo1Ec8rQQ+ZEqWa5krVSk5RIMojUlKUynY8zQryIiWXQm5vb2n3uoxGIwxL5+DggOVixvXlFWkaY+k2cekLzIGqUJQRSZwSRD6lVBClEWme4G891oGHhkxRLHn1KiTPYiYHx7R7Yzq9Hpajix4TCSUS+n6KpAvX2kQYhHR7h6iKgaraqJrBdHrLdLVG1WQORkPG43ElsZYjaaL6SrIKsZYW+CsP2xxx7+gB747POTs7JclTDE2l122R5yWWLBFvNuRJhr+JibYRjmojKQX+YsVMkXny5AnedonjWmRZys3tVSN2KiUxrqlTdof4foBWaiRhRhKX3N0uuTq7om/36bstYSSSBOimQhQXrFYr3r17h2nuTj1FkwXV19TojjqU5HzzzTd8/9239Lp9Bv0jNN3FsBUO7nVR1EKQjyyZH19+y///l/+PH1/+yGwxZTAY8dHTz/n9H/+JJ08/Yzlfc3p6SrD1GjJWlggsfxIGmBU1ebX08P2MLFOQVZdufwCyg+dtyaWcKAvQDB1Z0imAtSfaOsuyyIsARZVxbBOQ0VVDuDO1XTHok0Icx6DT6Yj3LeWUZU6aJsTJnPlCJJ4sLVguV8wXK2bTNVkqFK/iUIiRZkXJarVi64dV4td5+PAhnU6HbinclVqtFh3HRlFkUglkQyfPM8o0JZEE90DXVEIJojjG833iOGY8HqPrFhcXFwRBQL/fx7Vs7t87xgt71JLj+xJ8jTdgXQnUk+5mpSdBLQtlGCaWVZEU0rLR3MuKndpoTa+UpP3+fycwKtf9S/6hO2pNqJDKej6w0zTLsgzVMoQOoiSjSh9mwTRJmM1m9PIcTVdpOcIiS5ZUVsulOCEKCVmCLE1RZB1VFS3H1tug6Spv377C9zwcx8GxHNHPKSrnF2f4QUinu2J8cMxgOKbddknTHE1WKPOUNClAlbAUgzTNkRWZdq+P3WrT8sWJd379HikuWFs+th0wGgwr2Shxstq2haYZTR+X5zmtVov7Jw/ZbDakvoehKShy2SjW3NxcIWkWgZ+QxAVJlGA7Fr6/IW5b2LZOUSYsFjPizEeSRSms6zpSZXwxHjtQKsiaiq6bpGnGerVlvV4BRaXLGNLp9WnP10QVt2E6nWOaPq2Oi+1azXfd63TRFJ3/+u57/vqXv5CleaXvqGOYOp2OTbvtYpgKQeDx008/8e233/Lbq1fc3kxxLJcnj57wL//yf/D5iy9Zr7acn78nz4BSIUnE7ny93oope6dDHG9JErGKzfMSx2kJSbVer+mVvW1Kt+3SbQ8E4rESCEnSkLwoGQx6OK5FnidIkkrbtSt9QhdZLlBMgTcBSJKIxWLOzc01F5fn3N3d4HkBq9UKP4zFdiKTSOKSolTRVAvLEjiCKE0qZKkYsB4dHfP06VN6PWHEWmaVcW61iq1Rgmm603MUpq9Gpca8RZZlBoMBrVaL9WrFdDolyzIcx2HQ7QmfgYp2LSTvvaaKV+tgzyqSwL7YRV2215pwmqxgGoK3HKaika0HcnVAFoCs7tlG16+zNw+o6cV1n7J/LZnaTCH7MHFQTd/zghyB7irLEjVXQdHIs4z57R2aZVYzCpPJ5AhFNbi+uSLwcqI4IM9jxpMRbq9Nt9ul2+twc3MFUoauy+i6TKfriPIrjMiyhOnshvl6w3Kz5nCzFr70rkuv18JxLLabkDhOyFJQlJQ0zSmRK1lvhY8+trDbbXxvi6KURFFCGIY4jkNByXq9JktSJpMJSoXZ3mw2uL0OxwfHXF9cM0sy4igiSSPyNKFMwdA3KEaCqhikSUAaJ8RyRpbEbDydbbBGVkpubi+R5xInJ8fNZ62qWvXfMqbpoFsmlDJ57Fffv/hut9stQRAAMqpuoiomfgUzrge3NVS6XlX9/PPP/OUv/8l24zEYjHDdNo5rMxoN6I9aKCosFnf89PNLvvnuO87Ozri6usZ129y//5B/+ed/509//DNZBvO7W/JUDJFlWUWtn7OiXnepRJHP7e2UPC+roDpiMplUKM1ItKlSimlLWC0Vs1SwMjEHSrIQw9AYTbr0+23CcE0cB1h2QXsIKhuSLGG5XLJcbLi9mXPx/pbz0zNub6d4XmWGmpfNZN00TXTLREImzUUQo7aRNB2z4s/0+wMODg44OjoSQ0FZEcaqedhwNiRJQqvITLJsNOu8+uAzDIN+v49pmriuy3q9xvM82u12I11XJ3AvDBq8Sg0hTpJkpwewW4F8aAFdDwg1RfjcxVHaJIwaUFCThvKyQC7rIZ6Y+ku1Dp8iN4lCURSScrc23NcJ3AEadqIIqqqTFsKzLa3IOHkqCByGqYmBkiqAGUmagVOimmINNRweUBQyoR+y3cxZr5fIssrTjx9XEkmQJgHDXpuizFEoabdapElOEubopkYYxkhIzGY33N3dVLTVEZPxIScPHmBZFtutT5aW+L5PEu9QgLquYykaxycq3maD560p8pQCMdy5vb3m9PQUx3IpiozRYEwpQeiFWI6Lpqp0Ox3WqxlFpT8YhSGmLlqIsshAVoU4KIKR6G222C0xnGq1uzx4+JhuzxUIv9VWfM9F5b+Q5ChyjmaIB0tTDQaDIVkmBDsWiwVxkuJtA6bTJfPVGlWSOZiMaHc7Tf8reO8aFxdXnJ6eUxQFw+GYo8kBg24P13VxXZtWy6UoBR7+/PycX375hel0RqvV4tHDp/zzP/8rn7/4GnKZ5XSBvw3I0oIyS8X7LcVzZOhWI7y5Wq24u5uiKApPnj7l3r17FGXONvDxoxBNU3jw8Ijje2M0wxQtQFGgaQaaoWJZBrar4Tomg67DNlzhB0tu7865u7ni+vqam5s7bm8WXF9NubtdslxsoVRwXRfDsMhLiRITxQDddogzYYVn2Ram2UI3DVpuh+FwyGQyYTQc0mq1muH6bLEUbL9AsAn1yovSSwTyUirKRh6sRiOqqtpYhdcU75p/UaMMAaHcNJsSBAGuKyDn9SZBlWW5WV2kaUqe7Ygv9ZBODPKoiBNFlYF2KkIiiGu57ooO26wRZWRZgUpLsE4c+6uMfTmytKgHkjssQo0xoNiZlWTNhF0w0yzbFbOEJCVPM3Q7o3QK7Habx48fo0hyhcSTuL2ZV+ANHVnJaLe7dNoueZ6SJXFjcY0iQ5Gh6yqlDGkSk2UFZ2fvOD19y3h8RBB6PHn8MZODHnkmsV7rrJZbsjwSAyFNwfdDkqwkLyUkRSf0PDzPI8syLi6uePv2FEPTmUwm9Dr9CtMOlutgWsIhZz6/xVuJstx1bTRNJcsTTM1mPBoRxwlbY8t26zOfLlgttxS5xKB/wCfPPqPTdQHhoaBpBuQFa39LWUpYljDK0DQNDZ2joyNUVcc0BW1VlSEIIq4ur0mikF6ni+vatF0HVVdwHEvo4oUhvu8jSRL9fp9Ou8toNEGSwffXeL6KFSr0ei1KCq6vLwmCAMMwOLn3iM8//4ovPvscS7eY3U3ZrkVvG1cefmkWEyfihAwjn7zQ0QpNSHHFIR999BGTgzFRLOC+3W4XwxBt1mgywe24TRDppoJh6uK7JQVyposzgnDD9fU115dX3N7ecnNzw3rtEwYJy4WP70UCi6JadDodhuMBtm2jVrLbdTu83njkeYHbHtLvjeh3ujx58rQ58WUkNpsNy/VMDPGCsErIYiAsKxKbrdeU8x23xeHh4QdIwyzL8DyPzWZDFAmbuFrqDGgYipZl0e90cS27IT2VZQmajlp7ozXQW3YKp0UhnHgoSrJSKPjU6qhNP5IVaJpSmVUKFR0JRAKAxgeg3skGvo+qqrTcNrW5gizLDcZcaTaAH7IOy3xXpaiqimRZGImwoE6zgmwrpvOO46AChaqSXrszKgAAIABJREFUKTLbIqV02pycHNPtdnn0+AHn52f8/PNLtmdLdE1mOOry2WfPcRybVTQjqQA3AIZjUBYSWZGjaDK25bJcrpndTTk9e8V8fsv19SUvXryg1x0xnnRwHAPtTibwY5JcJJDlesV6tWEw6LFazPjp5c8Uz5/RbncZDcZiSq3oBJ5HkmUocYTTdph0hDbe+fkpYZKQJQm6bVXsM+EXPxqN6LhtlsstF+fvydMCP4g4O71mcnyMrrkslyvKUkBZ95V4ahHJutWyXQdf0ZnPl9U+WYcyJ/RCQt/HsQ0ODsdYRqVmI0moitKsMAVOIeTRwyccHR0JU4s4IE5C1usVOSF3U4kff/yOi4sLijJjMjng2dOnfPX5F7RbXYrG+dgnjX3yJMfzN0iShOu6lfzWSkzybQtJlXn06AHHx4fopkSWAUpJt+swHN5HkkvaLZ1W28EwxKo5KxKCcMr7yym3t9fc3F5yc3PDduuzXKzIkpw4rnweJI0oLCgLmU57QK/XZzge8fjxY+7fP8GyLK6nU6GHkAhkoHI3JYoShqNjHtx7xOP7Dzg6OEZVxYm/Xi0FizMREO4yF3FWfze1TkFNVa43APvqW1EUsdluRQuZZfT7fQ4mE7rdLr7vVzMRMVMQgqFyE+d1XDXegPVJXp/+9VCvyAUEF6nEUDWUStccTW4EQz7Y+1elu8Run19UzMFa0KC+Xp1k6psStOEdBmCfe1CUGbKkij5QVRsxyTQSH3iRibJIQtA1Q39DmScoukaZZbh06HbbjMY9Hj58yLA/4K//+R9cXV3wPryh3epzeDSiLFRabo84DvH8DaZpEoUJsqZiuxaWbtHtdmm1WsKxZnbD9c0F705f8+zjT3j+/DknJ4/QjTF3twuCIEKWhVNvr9vHcU3WyzndXp8giDDaLZ49e96gHDdrT9h/A4HnEQc+jtvCcVpkKSRxgdYxsIxKfSkvcG2b8fgA03QJvJAgiChZc3F1jdVqMRiPmU8T7qY3ZElKt9tpPm8haELFVLPFYCnfkqVF808cpwT+Fqks6bZbnBwfYRkaWZaCZpBnJV645t3bMxbbNYeHh4yPxpiuSVJE2IqOpiuomsx6s+Kvf/0Pvvv+r2w2K1q2w4N7J3z00UcCr6DrRGFCnqRiI6TIbKINlDK27eA6bcIgRqphurqKYbTodFuMRh06/TZRFKCoLqPRiHbPxbVMoCTLYvzQ5+rqivPzc87OztgGPsvlktnsTkzx4wRdFz21puuUhSpW33lEyzE5Pjnh+Sdf8vHHz3j8+CNa7S5RlLD9y39wc7nEcAzcbhfdduh0epw8eMKoN2bQGuCtPdYzsYbdblbCoKNMKXIhwKrIMoom5L3Cqoc/ODgQ8mGaWDPme+I8+3Fbx1nd99cralnZDfTrWNoH6qm+7zcDwDoZ1LvGWues7kHqFVxZlqjVSZzm5QcvXL+0xA4yWxQFRWVl5LpuIxxZJ5k4jpvehbKuQNTmTWVZ1qwPS4SuXyFV2oWKjIZGJkkYldRxWZYomkyaQElKUWT4UUirE1bqwy2+/vr3aJrOjy+/Z7GYcXt5B3nBvZMDZKUkigLB8otjsiIjqbHytk2r22r2zzfX18znc968/ZXlcs7d9JrfffUHnj59zmTcZ73xMMIc02qhKgayUtLrDphMJtimxScfP0WRZN6dviEvod8Rjkh+EjQGEIbtcDC5x73jhyzmF6J3rSzZ1+s1m82GyTirEJlJ02rN53OeInz6FCkTLjsbv9G8r7+3PE8b/Pm+3JfYxkhst1uhbmwJrX+BMrOEGrBlkWSpKJvvbjl+eJ/RwYQ0jZFlF8vWyBPodNqURcYvP/zIDz98z+XlJbZt8/HHH/HpZ89F8Feqy1EUsVqt2GxWTTA6tkK73WWzEcpOrutycnKP4WSIJOf44ZbeoM3kYEiWRcRZTHfgYOgyfrjg6uqCq8tL3p2ecn5+we3tlM1mw5Onz2i1HFz3PpvNhpurK1RNaOaJg7BEKjK63Q6Hk0N+//Wf+eqr3zMaH6CqOtP5gvPzC87fveby/RmTe0cMBwM++ewFhwfHlChQKCxmcxbTOXF1slNkGKomKOZ7qNt686XJCpZjoOiVDmBZkYj2vC1qnr9TyZSLbUHauH0bhkGepE0813FeA4kED0HRiCOhUW8YBqpaVg9FZXWUxkJ0sCjIpBJdERP8LBXAGqOWXEqyDybBaSYurGpm9abi6mSrqYA1EIjKsbeuFspmhSgylQi8OM9AVXblS5WYlEporCiKRmE2SVOkIgdJSH6VUUiYrol9jzKOSLwtrXaXrz7/nG63w9u3b7m+ec9666PP1gBsVh6yLOO6NmWREEULgsBDVcFxdRQVDo/GdNoONzctbi5vmN3dQBazXS6Y3V7w2adfYps2vZHLKo5Ybzw0Q6d/1OF2adFp97j35BGnr99wezej1+mKWUlZEIUZmpoTrBN6XZVOr8vJ04doLYk0DkjziDDyyLYx88UVxnsFz4u4nk+Ji5IwTZld3vDg3gO+/uILTCPn7fmv6JZMWoTEWUguZWiqiqIrSHKOpiuCh56nyBRYpk4UBawWSzabDd1On/HBIYZlU8gybrdHKcHFxQVXlzc8PLnPw4ePcRwLVZOR8gRNAdM1ycl5d/6Wn376L1bLOaah8vjkPl98+hmPHz6hPxxTZCXbwOc///NbVvMVk8kEVS4wdYNSygnTFV6yYJstsWyN0XGHBw8PcCyTNItQVSGwkucq/p3Ht3/9zyrwZrx9+467uxlpLuF7ASgFg+GQVsvh088+RlHh5Y+/sPU9FvMtuinTbnWRtIxOp8WgO+aTT17w/MsvaLUFDPrtq5/46ZdfWaw8bu+mHB0LYdeH9x9wMDpAzSQ26zXeesN8M9vpCUoSeZERZwWSItyj0ywnSwvkcme2Kw5UocWZSWL7Vc/oVFUwTXXNaA7fNE2FDVn1/6qqojkiPpM0QdVUUATJSdaEUY5a/2JNspGkHTW3DmZZUrBcq6kK6t6iliOutwd/S1es1VbEiaw2fUdVvFDTLkUJKvajVEPH+tf2uQH1QHBHAZVQpZ0uQd1WCGSUoLJKhtFk1CLNWCwEjTSKU8bjMY8fPKTjtji5f8zZ2Rlv3vwq0GSRj23b9PtPKApIgpw8z1gvtmiygWnq6LpJq9UCJJIkI0oTNp5Pkl2x3njc3M45Ob7HvZOHtEcThsO+6AsHPYajPo7lMp1OmU6nzOdz1MoTvl4DlmWJ6bp4nken5/Lg+AhveccmCnHdNlkQsVmuOX17SlmoFCh0Oh0sB/wopJxOWW1XpEVaAVjEZiCvfBD1SrvPMAwsSwzyipxGaRZZYrFYcHF1SZIktNxOY3tlWWKQ9PbdGa9eveLk5ISnT5+iGoJk5LZElRSEMVtvy9bfcHH+jvfn54RhzOHBCc+ef8UXv/tH7h0/IAozoihhNptzcXHF7PaGTqeFaWj4gU+R5YIxlyV02zb3H51wcG+M27FQZAUdFy/yePPLK07fvOXNmzdcnJ6xni9ZLpeUEkKUXdNRZBVT19BVgyzOMFRLeCeWKhQSRZaTpwWKpDIYjel0eliGw3BwQJpLnF9c88033/DqlzdESYah2zx/8RkP7j9iNDnANi28zRZvtRa9vOeTslNiruMkz/Omqq7nYcXeHKAemCuKUilW7ZSq6il/WezcmgF0Y4f/FwNPkSDqVk9gGWplpAK1JtuIf/LmhK7Li7rcqDXm6vVWnSTSJANNat5AWZbNVqH2SmvkjKvZgGgM6gSwK0UlSaKQoZBK8X2UO00BSdoxFeseJk1T8opeUCenGvJZgzbq/kevEIdZlgssQZaxmM8BRNC4DuPRAZ1Oi++//56rK6EJsFhtKdKM0MsxNR1ylcVsgWZoTCYjNM1AVhVUXaHd6RBWu/E4j/nt7S8sFjMubq958PAJT599huuYGJpO/tFTtlufOAjRNI2jkyM6bkvsJWUJzdDFYDXPmU3vMEyVg36fS7fF3fUFRaKQJxlRFPPmzTvSDL746vcMRxPCRGjf+ZstURKxXq/RLSHfVjRAEyEYKSUZrmUzGAyEPVou5MtzBEc9jCNms5lAVJris221WpimycXFBcvlUmDhXQcUcQpttivixMcwdOLEr1aTS179/CPXV7f0+0OefPQZf/j9v/L0469YLwO2GwGkubq8Zr1eYtkGna5Dq22zvRJDucGgx8noiNG4z3DcQ1FlfG/F6ekpN1e3nJ+fc3Fxxc3NDbdX1/hbD9MwGg3CJBdVag0/3mw26IbH29eXqKZCFGWEUYrttrBtm15vwGR0yHh0iCRprFZbsvSK2fWU87Mrup0hveGA+ycPOHnwsC5smd9N2WxX5JEQYKUsKaSiISjtb8/qZFA/53kp5MzlfGcqoqoqWV57MNZxVkv47Vi7tXR4LQm21+o3z1Ke7pJKMwRsiEDFh5P3fTeRemhU37iqaA3tsQ7IfaBPrRJUZ7H9PmefjVT/WeOQWtGEkeXKzEOmlAWQaP/+asScoWp72bNocAb7xKKG1QUokio45LkIkOndTFhtd1p0u12++uprer0Bb968YrlcslgticOIljNEkXLyyra8UCBMYlLEOk23DNq0MUwNqQTLMkmjmDwPub0+awA1h4eHOHaHftfFNkyiIERVJLrddrPGlBWF8XjcDE0VVSYKfMaTIe12iyhMmG2XlFkuvAbDhNndlOVsLqjJ7T5PHj7A32zxtx6r1YKPD5/Q7/Z4leQkUUwUe8303/dDJEVFUXXyoqrESrHaTeIY09Q5PDxkNBowHo/p9/tc39wwXywwbIeBpjdzHaGwnrBehyiqhOet8Pwtb9684rfXb7Ftl4cPnvI///Ff+Pp3/4C3DtksPVaLNbPZlN9e/UqSRHz1D3/k3qMT0iJnKE8YD8S1DVOBIuf87JR3r1/x7u1bXv74M4v5nDBISPOMNMkppUKYqx4LsE2Uifc6HIpZg+d5zOdzFN0gjMHRdVx3SG8UIUsCMtvuD9H1NkgmlmkR+hHbbQiywmeffcl4NGE0GuE4Lba+x3K5FK1zKIw8pKIkq/rxolIX3o+3/Vj4W86MJEnI9YodMYupFawVRaHId0zafZHSohL+qKu9Ona9YC1Qs6k4AIqsSjC1x9i+pVd9cu6X9aJFKCnyElna0RzrIV2eC+BI3YuomoLtWMiK1CCk9pWG/o71Jwk7MrmU/+53xIeU/U0CEJxmtKL5EGtxB0F0EKAIdQ/TEAQBRS7mG1ESVyKZYh3T7/c5Ojri3skJTx89ZTAYcHl5yenZGVdXV8iSSm/QRlZyJDlFUlPKyuXHtI0m6Wi6jGOYWJaGqWoi8P2ILA/5+afvefXbz4xHhwwHB9y79wDHtSoFWTHQq5FaNTw6TTOyOBH6dIbBcDJBNXT8uwhNERZUdVn426+/sPU2fPTkGd1Bn7brsLi7ZbteNolb0GMFymyz2Yid9XotCDiDMXleEEcplmXhOA5p7NNutzEMi8ePH3N4eMh6vWY2W6BpBt2KAm1ZOrIMSkWS8YMNZSYTRQnnZ5e8v7hG0x0ODw/5t3//X/zp93/G9zzmN3PKUkKRcqa3V2y9OR89fcijp/fRLYMkDHj67Ckt1yT0tvz08i3ffvst33/zHdfX1yxmS+IorcQxXSzL4uTeAcOxGLT2hh2W6w1SGKMZJsPJiNFoxHbjY7tTkizl0cPHqJbO5eUlT7s9wc/XTNbrLXEKm3WAVOiMR0eYmui9HcupAldlPp83pqFNaZ6nZLmY7JdlTpZnHzzPDTNW2ikJ7ZN26meg9q+o/94uLnYyaPXAVsy/6laj3u4kVRIoSdOcKAgbUl9VYagflOC1UEeNzssrOeXaxbXGJteAhFreqNEEpCDLhax4TRtO4pQyzwGFUtllu3qqX2ME9n/+tqqo/2x/hVEHfj353585aJrS9FFFUSArmvAkrOyh6+vllStRVpWFN7dXwq6pJ1Z9g8GAQb/PfLHCNHVyQrI8wnYEcm+zXQldP9vGy3NajiVsoDVQVBnbFpl4E8RkccB2vST0fNaLNVmc0ur2aLkdDMNq2peiEEhCXdcb/bioct2dHBxwcv8Bt9MbFFnBtXXKNINSJkkiVqsFvr/FaTsUpTDxuL29BSBOE+7u7pDkkvGw22DlazbjarHkdjplu90yGR3QarXwNiskSUFXDXrtHoEXcncjwCmmKfQDOp0WcsWWs0yNokwJwq3ABqzWrFYr8lyi1xvw7//2f/Jv//SvGJrC/PaWPI+wTIe1n2C6Kn/489c8+egRvWEPSVJALdhsFvz4zWtO377h9W+v+fXXV6zWWwzL5eDkEWYV+LZhohsqR6MJw1EPx7JBLvH9mE0ZopbCl9K22rTtLmQKSVkyGB6RFimaviJLoNcdYxs2aSJjqDa2YXEwGjMeDJsDr5ZH9zyvmbwLx6jdlL6mLOdZJgxxqme2LAqk6mAqyl0LXvsG1lLl+1VBkziKWo7vQ3WguvevNylxHDQJQpaFo5QiycgoaJqBbYhYUesSvC4XoL6Y1JTp+4FYC3XsI/myLBM3IO1cd/cDsz6hhNKujBChrU7y8kN3lPpaRVmrn8jNdetKY/8DswyzGfzVmVJYIItsWn85spI3ogs1g833fTabFUWRQZ5RZilBEuBvN6xWC2FZbZm8ePGC2XzJ9e0Nq2WE78WsFmt8f0uaxUwmY2RLR1U0KCCIQuQEFslaADwQQ81utyO8FDMJTVO4m97iRyErY4PbFjr/HToiIckFSRQjlWL1KJewWqwZjLp8/PQpl1cXrJcLNNNANUyyPMXUDCQd0EFSJFRNQ9JUlluP1cYjTBK2vocslRweTvjkwQMUzaDb7SPLMt9++y3v3p3SanV48uCxKGGTlDIXq+EgiPAqea164Oo4Fo5rYdoGhqGjqCVBJGyxlssl0+kcTdYY9Ed88eJzvnjxOaoi43sbKFNKKSMpY1Rb4fHzJ/TGXXq9DmWecPn+gndvTjl9/Yazt6e8P7tgtVij6RafPv+Sz3/3NZ9+/gLDMknzSPDrp3eEGw9FM5AUlTQvGI4OkHUxC5hMDiCTQJEZ9MYs1yve/vaWtb8lShJKqeBgqGHpbT55LLjzSqmgqxJJHDVD5Jq+Xh8yZb1WrU7tWkNDIGl3lW79d/QaEp/vyHh1rKUVjViShNmIaZqVRm4J0q5Kr19/vzIWW7OySVJNnOgWqqRi2LW5qKiI1d26rRq2NQlgdxLXASguvLtYvXssioKSovndOinsQ4rLJgFUN18hCvOqZ/mgHdg74ettQZJnzQdVT02FzbiAYO73/HVCqIFJWaXTJ6k7d2OrknYSTispeZGy3iwB4dzqBQHj8ZjxwYhut8/BwaGANBclcZTy5tVbbm9vefDwHobq4NjCGvr27gLPC4AKspwVOI5Dv9tG10yyJCdJ8opNmTQKMJeXl8RxymgwrBKVTKyohEEERUESpQRbD8exaDsC16/IhZCDLgsoNBynRW80wnZdwizBcG3cXgc0hdVqVSkva3jeFsdxOD55IFazpcpsNuPy8orT01OePXsudssVOUzXdeQSPM9jGwiEmWYauK5NQVnRqnPSLBJrw9WKu7s7rq6umjXv519+yhcvXnBz8Z4ijnj44DEFOWJNXjI8PkQ1NFbbKaeXp5z99hs/fv8d86sbZndLkrQgTkRf/+D+E7763e/5H//4PxmOB2RlRlbEbNYrOh2Lm8sbzs7OkCWNk0fCUv7j55/Q73QJ/QB/E7JebthufNbrLbfTO3JKoiTm5NFDhv0xvXYHx7bJk4IsipnPZpUCcdVyVmK1eiUBb5pi2u55nnjuVcH8k2WZIi9QK2n95jCs421v27ZPwmvgulU1LrOrfut4qavFLMua1rHeptV8gTgJsQ27MeGVdMHLUWVEpdr0I5KMJNeMvhJkqrKlumhZNCeyOM33BnpFTprEjRVSnQhqnLfj2iRJVN1YRiEX5OzQgrIsk2c7mbD9qkRWZBRFIs3yplKoxSlUVa2sx0QiUSqPu0ICqcInZHkOqoJSZKxWMzSt7tcV7JaL67qVY0qKqoTVh66QJyXXF7fokoGpOOTyCt2UGY17tNoWEgWSpGDrDrpiYCgOeZJjq23CIiQItvjBGk2RcHsutqOQphEFKUEYkMfg2D00pcByXPI85/TtGdu1x8HkEENTcNptbMcljiNKUoJwQxiZHB4ecng9ZrOYNtuOLEto2RZHBxMkcvIswnVMHhwfIEsq2/WCLI6hKEjjhM1mw2q1YROEQjJ7u0RWSizdom216DgtoihBkQ3GkyNKMsIsIiGhNWjR7goiiyQLhOd8OhWCFqHParUSCSeMMGyLf/tf/8bHnz3j9a/C+tu0DYIkYDjsoajiGYjTkLc//cKb03e8ffuWt6/eMJsuhPmobqIZDg8e36M/PODxo4/56KOnFJLKm9NLLq/ek8Yxw1FX+OipBkksSu9o6zP+6BO63a4AFwUpZ5eXzGdiLhJFsZiXtNucnJzQsh3Bl1+u8OaLpqqsAXPku5Y1TVPyKGlcebIsQ9G1pgIGSKuDKFdySqlE0oTgaFwILY2690/3RD9My0LNsiY2yrIklyWyrIIm56L6kqoEYeo66+22cRDSNA2pUFFLXQjVShAQCHm3UiIOEyRJbPnUppTYO53rMlxkqbz5fxGAxU6PbK83qU/+/eHg/nZBVXVUdVfu1NeqS/fdic+eBroEUr0ZKBrcgbi32lugUimW82YGQZ3Gyp1yzA5HnTWnc+2qkmVZQxqpGXyDwYDNRijMGEuTeB6hGjrdbp9+d8Dh5IjRaMLLlz+w2gQVHjul1bZodwYCobcOaXcckHVkyYAyxvc80kSYghq6SGSu66IaAgp8d3dDFEWM+gM6nQ69Thdd10jSAFXVyXPBhDs5ecCbV6/44YfvydOEg/GAk5MTYVteQBAnqKrOeDwmTXK8ioBUi0LUp7PTcjF0C8s2GPRHpGHBZDKpJKlUjo6O2G49pne3aJrGyb1jXNclzIQFWJwI4k0QeiwWC4Kt1/TFjuPw5JOP+Yd//B8Mul2SwKPTchkMBnR7AhG6nM+5vb3l5U8/8MMPP3B1fctmsyWIIlTVRLcs3FaPp0+fcu/4IQ8fPqbd6oEi+COzuylvXr3m6uqSz1485/e//5JOu8fB5Ijlcsl8vuSXX37Btm3W6zU3N3dsNhuQVfr9Ph9//DGDwYB+p4umac13HviCrCUVQiCnrEp6WZKbtjJJEmTTRN4DqO3T22HnmGWoRvOM/3ebgPrv1i12XSnUMRGHYpAuFaUwz6mBP9Usq/5e63jKK7xMbdgrXrch/zbXVsuCCn//90Kg9U99I/v2T/s3LssyZS4GiPv9yb5oh1QplaqKTFZW+1BJRpb/djNQImyNavXTnUFDjYACKCr2oSTvQEsfbBoqe3NFqSenZQM3FtBIiSxLmg9+f9Iq2oeYMPSRKHACi6TIUeIMTdYgL2h3+/zuq99jWRbffvttM0tI8h6djouuu+TFgiQuWS39SotOOA/JsoIiS8Sx8BPsdUXZPxoNyDKhahsHIcvlkuzomKOjI6HEJMsYioWm6BwMD9E1k6uLazxvgyJBlhUEno8sKZRFSZ6n2LaNppWs1nMCX1BGKQo8z+Pm5oZ+OmI41MnSAtO06PUG6LqJomgcHIzR9AXXl9es12vG4yHddof+pIcXeMxXc9IMiiwljkNmtzckFV3ccE2ePXvGi9+9QNNlyjLiq+fPWQcbISsWLHn37h0/fPd9FcBXREFMkqXohuA2KIZNp9vj+PgBD47u8/DkMZ1elyCIiKOcJAkJQsGdODgcN0l+OByyXqy5vZ2z3c64uZ5hGko154LhcMjB4THD4ZDxeCIOkDRjuVmwXq/F7KUoUZAoJRphDkVRkKpnum459yHzsixQnH8L65UkAS5qqtqK6lu3sgBlxYLLs4x0D7e/D6oDAckX0Pq8SsBCacg0zeaeyrJErV679krMpHoWJSDfiqwiS7IAAkmSJHzq+PsqYD8p1B9CzeHfD/a8UpjJUvHn9aZgB+b5EGMgyZXbUGWWsVsRFn+TZHZe6Pt707plkGW1Aj3IFMW+8Gh9z2r1xj/kLEjS7j3UO9QaMy3LMrPZTHDhHaHi2um0ME2DPEpIkNkihEE+efYpiqzx068/iMm4oaDrFu12H9taE/pb1quQrS94+N12B+EfqFMUEr6/Zb1ZMZocYJom/X5XYBzCBN/3ef/+PZIk0e/2q1WbilQouG6be8cPcJ0Ovu9TFjLL5Ur055rOcDzm4OCI4VCYpYRBVSJWp0u31aHV6tDpdHHsFpJckiW7RD+oxCPfnL7j+vaa+eyGfr9NkgZ4noqkApLg4udpxna1ZrlY4G89RpMhf/j6Sz75/DmDcQ/VgCyLkdSc5XLG2dkZ33zzLa9evWKzWjOfz3HdNrppMOpOGI4Psd0Opt3i4Pgeo/4B/VYfy7AJ/YTADxsZLKXCTIwlAWQ6O3tPnufcXN5weXHNdrvFdVuMhveZTCaMx2N6vR6GYVGWJWFVsQRBUHEghHpzPZxWZOHynKa7iXv9zOzj6v/2dG+EcqqtGZUXY92f1yu+2hFL08ThFAQBnuc1FUJdFcRx0sSAJElQm61WFUM9E2u0CetkU10n2qsUBORfHJi7muDvfsq9f5d72aVoBg/7gbkfxOIGVKRKA0BCQjPU6sMTp3aNYKpPdl3bOZ/sJ4qSEkkukZUq+LOiWoUo1LZT+4lqBzWoEk9V2ahV1q3L/zoR6LremCvW+/FalbXmVkdRhCpLLOcLJEUWPPM0YbNeYrYcjo4PsFxdfHFZKqiYnofrtCtRjh6FHJNEAWkmZM+QQJY1kjzjbjbDtG0sy6XVaVNKMv42IPR8kizj8vKKPM25d+8eFCVSCaqs8tHjp7z4/EtGdyNcx+L2ZkpeJIwGwoZLV2XabTHn8H0fCaVTmPUuAAAgAElEQVTSxBfuwsPBiO5gguO0gIxZOEdSNPqDEd1ut/L8W7FczYmTEEUtSdMEf7ulUHKWsznz6YwsFslKOBPLPP3oEX/441ccnxyRFglR7HE3X/Hbz7/w88tfuLy85Pb6VuzNs4JOp0u7P6DT6dEfj3DdDoPhAfeOH9BpdVHR0RSD7WrLxhcApjDyhdOxXrWARcHLly+5uxOsPjKxEptMDnjw4AFPHj/AdV1M0xZ03MWyosxGTSBKkoRVBYdSzcDqk1ySpaa9rbdRIhBlUHbKVureM1kHummaJKEQB62RsXU8ZakY7qpqtQLOMspMeEU0MHpFoUBsg0xTmJLU9/K3GAKlum49JMzLEkPT0AyrqSLEtcTWT20mkw3IYMfI3Qce7K8DRUVQGwfvTt2atww0e8x9tOB+76NU/utFKQwOVVXfC2Jh2Q1SE+RpHlXbBmE3ripVQip2rYgQDajbgLryEI4vRS52qIqiIcm7pCFLIMuqADkVCVJVSg8GIyGIUfVP89kdq9WK4XiErkfczhckSYJpOYJtZyjIKBiWjmFYrDdLdMtiOBzR7XYo5ESYdm48cV+FRFaUpFFCkW+YLxeMNQ3bdoXVdl9owuVJThgErDcrzDsNTVeJwpCW4TAeDvnd737Hz79ohIHHaj4jSUMcyyYOAuIgwN+usXSDXq9Dt93mvCiwTBO3kgG3Wx1BsY22hGGMadqMxxNMU284CkmaMj48wO20kRSZOI5ZLMSUPwg2+L4PZcpg6PLo8X3+8Z/+xHjSo8gT5vMZb9684eX3L/nuu++Y3c3wfQF/tm2X4bjH4b1jHLdFpz/AabcwNJuW28axXBzTIg4zFosZwTYg+99svVeTHEmW7/dzDx2Rkap0FWSjMXp3Zrhc3lfS+EDjR6UZaUY+8IlG0pbc3cs7uzM7qtV0A2igtMhKGVo4H9wjMqtnygwGoApIERnn+BF/0RjciSVpBCwfNRT5cfXIx48fqauW4XDIZ29f8fz5c6ZT7WGI0qfrbHap9+xF1Wsv6gNLV0ZFVVJUJZ6ng6xpNTLTdxws6fTWXd2Bt3vPbqvLbZJQSg9Jk42ekSilGI/H/Uq6A2ZtNmkfK1t1rC2Sz3ddAs/DNQlKmjW3UOY5u0q9cxUWQhv49tz/bfWwW0nbW2BNF9Q7AGLz1ZX83Z93+3sdZFt1oC5ZbEt/A2esQbUS1SqEwTRvSyJt1qh3/gBbkMPuC9YJSF8Yy5hrKrGtGvTVQ5s3yK6CMT2Zkn2pv3uyq1ZRlS2WbRMEobngLZZlMxjEWknIsli5PmEU49g+lnQRbU6ZVRT5ktViRYv+YPf2phweHnKwf8JykTAYDhmOp0QDTUpazRem56wM5XXFKlthuZKmrTg+OiWKIvzAIowGetLbDpnPNL5+MXvAsy0s5xDf9/ns9Us+nX+gqcv+RrYtizxPubq6IK9KUzkprQevwPO9nhbtBQOjq1dSljVHh1q1uK7g48ePZGXBL3759+wdTLFtSV5WPNzdcnt7TZFvQFSMxz624zKdnvHmzRs+f/sCWwq++vIb/u2//Bvfffuejx8/slptQAqicMx4f4/9/UP2jo51QEQDXZq7vjYkrSouPn7iwQ2IwwjtdFthWZK6rkgLDbftyuWsKPjs9efs7e1xcHDA2fFpL5+l7dOrvtQXQiCRtGyZdz2YrKyMai7GD8DFd3yquqZWrSYk7Qyym6Z9cjh2MwGto6h1NJumYbNebvf8ZUlm5NXTNO1NWsu66B/XcRwjN2bmVh3HRTxFBLaaDUTdtjg9lmenHUFrCFhCmZWujWPMQfoWQK8Bt5lt96v7Xo9q2nnz3e9SSk01ZKvku+0/2m32Mf56qlWgbKRwaNAyW9YOQnA3cLvX4Djek793Xoa71cXuhyCk2nkselFRTcnsMjj4pmLpyrmGBin0mseyLJRJAM+evTR4Ad13TW2fwI9N9t4gbEGeFqycNWEYMYn3ONpLSIoEzwuwRECarZmMjxgOhwhqXV7PH7i7u+sFLFerBePxmNDX60rPcfDdgNFoSJ7k3FxfsklWXNx84uzFc+q6YhCHLOb3xMOIvekpo3hIkWZcrNcUld5qDKLRE45E22pXojAMKcsKSzqEgTbMHERDvvrma77+5ltev37NL3/1K7IqYzab8f7bv3B1eUuWrnFdGI0GHByOePnZCYdH+xwcHiOAf/p//m/+6f/6z3x4f85mmeB7Nod7h/hRyGiyz2h/n8neAY5pt6bjPaJAqxs1ZcUXf/qSm5sbDg+Psc2hVFYFiQmcTWYCzNMV12f7et/v+L4OqLphuVySpglpmlI2pt/u7htzcjYm8D3P61d9dV2T5Amu6xI1AbnQalWqwRjQbGdiwt5W0N1BpQFmKyzLwne0Rn+y2SpW5XnOxcUFDw8PRFHE0dERjq2VubqVolKqZ2jqe1UHcGVa8N1YUY2e9nsGU9I0DY2Jy25D0bF3u9akbiqqusSuzNpMNLs4Yy2hLYRAGmRf0ZZYtoWlHBP4aNGOVvS7eR2E3YBN0NQCy9IIuazZaNsogyuQokbRGr63BFXiOT61KnEdSyOF0KaZrvGxq40Uued61HVlgDUlqtUB7bouTVuZ2USnkmLkyJReo0jPIm8y7dhiCRq5TXJV02pJNCl6J19sqSeoosYOtIxyXVcoahxX4Ho+w1FIkenTSBUVy/uZNsW0Xay6pVpmlHJNkmVUhR4+RaMx4Wgf2w+IJ3tcX55zd3tFnias5489maOqKkI/MHLlA5abDQ/rBxAWX3/7ncbr5w1W6/CTtz/nZz/9MUo1fPvN15yfn5Mu1zhSMBjY+IFiNA2ZPSxJszV5vmExu8a2XbLNgsP9PQ72pnz37i/86U9/5Obmhjefv+T4cI91XXJ9e8Xj4pq6XhKGMIpDjl/s8fnblzx/dYRtWSSbNf/5n/6d//P/+FcuPt4ipeTk5Jhof0IQRsTjEaPhHqPJmEE0IogGhMEAWzraPs0KyYsly2VCXbRYCtIkYZ3l/YCsI7uEYchoNGJvb4/BYKBP5LLkYbWiKIr+Zs+yTKPebBvVEW3MoSSFjWoVeVZqv0ApqesGW1m0RYNyoJEt643WiajN4dbxTmStfQXKXFckXhgQx9oSrSgKlOeQVzlpbpyBzBaqqmuGo5EWWHFdfF8H/3g87b0YuxmVFknJUJUWbrEdGyn0aS8RCEOG69puZbZnCIFl3K3roqTMa5rK6mcKbaO2LYBtbem2bdv2GW0XrKMz3DZghBkECCE0WKWrBmwXIXQgdXMAV2rfeNd4pNPqUsqyG3wvxPX0RVVSZ6pGGbusSv89L0squ8JtOv/3GiEUtkEi2n1G1ISXDgnounpKWrVmSMLWXFFn8q2Xuh7CVE9amG7NqEkVEqV0f6fMWse2NXfeMluFsixIkg2lIVsMBiGWhOFkn3hQ8fHyiuVijRs8EkURo/GA0WiC77i4rp415HmKqCqqNOX+/h4JPH/+jDRIEcLCcyMm0ylFUXF+fs5yuUTIlqKqyYwOQlk3JFmOH0ZY0uXo+JTPP8+5vLxBii2XQykNCY3jGNfRUlK6bH7k8fGB+/tbPl18j/R9FotH1ssVAH7gcHA44qc/+5znL86YPT5y/vGKf/nn3/Db3/yRZJUSBgOOTk948fI14XhEGA+JwhjH8QiikEGkORC25dLWis1mQ7a+Jk204o9lhDOTJGGZpD3hbDqdsr+/TxRFTzQlO/Zk19vvqlxbloZfV5UG03SDOM1stVivUyxb9K68tbmv8iLtiVl1XSN39PQ6Z9/u/tnVxegCsksWhaMT+mAw6E/1Ts57Cxk2lY5Z7e1iasC0K0J7F7a9R2FHBOpq3Y7VpzEy3X3ccQT6rYXRhrSf9tfbP/e/mwsorC5o6JOAEBYKDazptgHdhe0CBdGiaPAcgWWBbbVAieuhnWRsF5TQnO0gRto2luXQSP2YWZFS1y150VBXW26CbYYk0lyw7saVagtFtm0bx5RAShjfPnOyb9+DTlJ1qSekHcGpqvXaxDFJrGxK40dvSEhl009odfXhEMcDytIlSRLSPNEXvtr6yR0fH/O4XPHhwwdaqbcJHWbc90OePXuO57jc3V+hpWFgMArxXQ8/0qVhVRcMvJjJwRjH9iibkrvZHYvFnKubG87PP2p0Y5azWmfAkroGW7oMwiHHB2dYPGLZ2gjEdV2SZI5tDxiOBrimlRtEAYcHE+qq4MO7v1C3iov371gsFrh2w37o8frHzzk9O+L9+/d89dVH/vWf/513335EYBEOY46OTnj56hWD4YR4ss/h8QlRqGW0y7xgPl8jZUYYDDTjMcuozGcpzEo3LwqCINCyYFHE3p5R4TU7/y7ohdAs0H5fvnNIdcG5bWMrXEviSJe2VeR5Rts2ZFmK5zlICcIyRrZNi9eh64RA7KzCs0wjR3UbVfZ+ANqdWFcpXbLp9PtjI5TStq0xW/VMW63jtgPy7OJa9DrR7mOsq7Sl3Ca4LkF01wV0a6NanQysDhnbarHeTruzFwRp27p/Y/rimeFbt1uXXabZDuN2MQO2YwQGHP1LKX2xbMvCM86y0hI4lsLzQsLII4oC/MDFkg6O42Fbnu6psGnMIDAvNhRFBthIx6It2n6XqSuUBscL8QNXB3plhjQdAKOtaZqW8XD0ZNcvhGUCvdtWdHOKjkCkT3DHyGU3bN2T2rbtacvdB9Zh+tM0xfUd/MDuTyHbtvnyiz8RRTFepMvW0XjCaDQiTROKpMAd+DiWy3Q6pWkLFskSJ7AZTCKEgtEgpipqynVNrWqaRltB/Xr099i2xX/5t9+wXC65ny8pGsUgjHDcgIfHJX/59h1CSlNCp+RZyXgcIpTsTxvfdxkMQiJjof3if/wf+PKrP/PNN18znz8wmz9yeXlOWSWcPTvk8GSKH3r87j/+yL/95vd88ad3fP/hGtu2ef78OYcnhxwdHRGNJjh2wGh6yHisLdGEEGRpynq+1hTyJiHb6D18kiTG9zBDCMF4b7/Xsu/aom6yrhPyUxJNdxrrz73pT+OmKlBG+zCOgn6I3LYVZZmjDB++OzyqukBIge/pFrZzel4nm17YtmOUhqGW267rlvvHeT/YC8NBH8Set10t71agXUXSBXD3+rv9/Q8JehrrAnravT20O85GR5rrHr/bptV1pwS0FRBt23bLBZA7mbI/+gEpjYRRn42eVgqYst+y9YNWVUHTVNi2NosYDscMBgNcV5dRgzA0pZMGAikKmrakbhLmq2tW6YI8L5k9Lri7nXF/P8eyQ07PXhAP91ksFmw2KWWu9dXSbGXWQjZxPGIQhNryuS/D9ADHNYHfmg+uNIIIdbU1R7VtG8/X5paOJfuAV0pjETzP07DZQFN3y7KEBiIDFgrDkLLKn9yQWZZwfX1NWZbc3n7HyZl2rXn55nOiKOLDhw8GRpxodGJb44cBA1GzWD5ArRjFQ6q2oTTtSV5ktHWNa4MTx/zdr35BLRrOzy+pqprDw0N826euW5abhP/43R9ZLBaMh2MuLi4pixph2bQI6rbqiSfX19ccHBzxy1/+EttSrDfP+N1vf8P5+UfuZw9UVY5wCkaT58RxzJdffMeXX37Dd3/5xMX5rZbLPtrn5OSE/eMTPC/E9SL2906YjKY4lqsHpasV2SYhCkMc22Uxm2sCloEQe55HGOutwGQ61T6TlqN9EPONuXmb/nPrAlEncgltQ1vV20l9Xfeks87EBBRptul1+vQ9bJNmm77t6Mg+ruMj0IrNm1RXdl2l2xHPyrJkvV6z3Kz7/xdFUf9zywRUJ4bbAdT6FTb070EfxFbfytq2jRIWTVM/+fe7dN+uOujXmjsaAUqpfii4q8iFYGsP7tpbhR99gc0U0TxZ3TQm88gnq0IpJdLIDwWBhx+4vVLpYKAHPI5rEUaWgd/WbJIlRbYhyxOWy0eWqxn3D9es1yuWqznrVcJs9shykdAgePnyLUfHBwhKyiLj8eGe+9sHknTNYvFIVRVEfsT+/iHj4QTX8RBSK7tCi+vZLI2w5WqTativpYc3XhgBUJgPJvBd4jgmDiPatmW1nLNcLlGtII6151wcx9S1oUG7bo/BHgwGTEdjs8bTN4D+WUscj1itVjRK21e5rk2ep9xeX3F1dcWLl8/MKVIgLa3Hb0mPVbpgs84ZDkZQtTRtjSMtqkrvjxvzYf/617/m9NlzsjQn8H2WizXXV1d6CNbmbDYaLdi0kJcVq02K7fpYno0tBR+vPrHZbHhd5Jw+P+X4YJ/5ckGSpmRFjuNYRIMhP/nFC96+/Yzlcsl3333g26+/5/LihtMXL3n95jNOn58ynuyhsGgbWzPrRvugJNkqZb1es1qtcEypenN1ZdZ0ugLdO9zXK8rhsO/xC1MZ1KZa6W50LVy7daz2PM+4424RnT1atdUzmvUqYf64xLJFr73YfXbD4ZDZbMbV1VVvF+77PpEf4HkBbauZnd293ZXjXe+u76eAJEmI45jBYNBjYyy2wanPTdXPL7p9v15FYnr/7UxOCIFl2pdtAtDramGMdLVR6bZFdl3t29AlkQ612GNxDN/G/iGo4W+tAnf38RqBt31xerjiEASOKW2NsabRBSzLms1mxfnFDQ+ze+4frkmSNUmyYbVekG3WPcxSy1BpMYx001AVgigKON4/4NnxIePJHpN4yOnBkfGTu+H4QA+DRvHQzBP0c9ZNgRAK39Xa903TcHN/R91WnD0/ZXpwqLnWoT7NM2NMogymIPA06SgIPKRl0dY6cH0/JE1zLXw5GGBZDrPZnPv7e+bzOY5j9TDoKIoYjWImkz3iMCIeTHB8rdsuhODy8pIvv/yS1WrFwd4eP/78x6RFysXFJyoErhOhmjXz2SOrRYpnYM/2xKLIctbLJW4Y0ijwwoBf/epXCCG4urgypXSOIwU/++lPODs7I89KWhRJcklRlSgB0rHJyoLlxpzAZnh1c3/Ht99+y+PjI65rM54e8fNfvOXzty+xbMWn7z9yfXnD4nFOHEecHh/y6tUrDs5OcP0IKXx8JyD0I+qsIlmvSVZbEwvHcUiShM1GY/mnB3sMh0Pi4bBvQzebDZssNQmvojIJYNe9urupOxMNyxK9r0LbthoTIrSkXNOKPplYpsfupNd1me7RKNHbcU8mEw1RtjTRJo4GvcVdp5G52wZYlkWSZ/0hsRtXUuys7cwgrq88LIu6bmia9kmsAf3Jvh3Cd7Bj06qLLWW+qwr0z5/qa3TI2UbVPbhOSrmFAneyXb3XX/cLbQOGFD0IZ7eHsaytGKEuczXYolMKStOU9WbB1e0nlssZaaaRcILGTGsrg00fIi093HPsANuCNFUMQp/pZIhjKfYmY149nzCbraiKElrB/v6Uvb09tICJoq4asqygyBKkFPgBSEvgBr4Rrxjy6tUr7MAzrjUa+PH527e6N8313thzXAaDAVWZs3hYGE62pSm0qxXTqT6pOrhnt6K6Nw4xHdd/OBwYH8FTwnBA3ZbmRo/49OkTcWzUgJyQwI9RwiIMxihRUzkhLQLRujzc3pFmCXWdU+cVgeuyXq1Ii4Kianj+8gVZWlE1NXc3HUov5fTshF//+le8fPWazSbl//3Xf8FyHLR0l22SdNmXjaenpwgp+c1vfsN//OGPFFVJFIW8+dEbXn/+hoOjI+azWz58/MTd3R2nZ/tM944YTifE4xFeMATh4Lk+vuujmhqhWrJkSbLZkCZrM0BLUEpx9uI5o9GIMIrwPK/3JajappfY8h3P2MxL6rrYSs9XVT8X6AKrY+opti2CNG7StWgZRHoTgdT372Q66gPNcRzikfYxLMva9PEhkR8gpYUtLZSgR/np7YJtuPfa0isMdEVZlWYl1xo0qtziBIC+2u6qiG4j0X1vG7hb74ZdPQBldDlU25HetrG5BSlp6LuuMGpDhXefJCDbwSiYIKiKktoYCUhh0TZtrwPQygbLAtTWmdW2LV3apSXr1YaHhwfu7m95eHggzdfGltghL1LWyRxBi21b+Gb670YBSjQoKShFi+s7tEoaaLDAamscP2Cz2XBxfY4f+QirxgtsnEDRkFNUOatNwuPjI20DYeQymYwIByG2IxjHA4q2JmiGfP7rnxNFmu+drDfUWc3D7Jrb21vyYsOLFy+QRtfODwMNt1Qu3jimKjLt3uM2uENLs6zIsGyHgRMzaQ4Y7u9xuFiznC8osgTRtEynI148f44fBLrUTRouvv+kb6wwph1o/EI4iDm/vKKqczrfeSEU08GAw/GYuyji/Pyc+WPO/HFJWdS0rSDPSqIoJlu3fPWHb5nN7mmbGqUa6qrieDzhyIhXDicNBwcHXF9fE4Y+B/t6PvNhMadKMz5//ZrJOOYv33zJ7373W+bzR/zAZf/omHE8oUxb7u4X/OlPX/Ph4p7R4QuODs84Pj4jiieM9k4ZDEbMZjPWqwWiXuAiaaqW9Tphs0loEXiOy3Q4Zn9fJ1GlNPBqs1iSp3lf3tuNQjSCpi4oZacIbVGaFa/j6eos8gO2ataa8YZCt69Ci6ZUVYXjS6Rhk3Zzj6516KDoZVkSeuET8Izv+yzXm76ylbZtDGorpG0jTXkudqC7QD8jaNuWqt0qAmuRUJ2sHKmHxHm1I4mnMK66oLoZXFMj6i3obbfXtyzbiAWZll08ZRJCS1WXOK4EJahM1eI4ztYXoO+V5FaHbLf8p2l1X4IxDMVg7JUGAS2XS+7v77k0PV2rdAUgK5skWaNocCzNAqQVWMrCEgIlpSlFNb5f6SdFOHpPWqmKh9mMSinqSnB5cUsYxBoI5DqkZYIoBOt0yXw+5+T0iPH+kL09vXZZruZUdcF4OiIMoC03JIs5s9mj5n4v71nOb9msHkjWGpkFkKz11LasK+aPS0BydHTC0cGh6d0sNuuUy8tL2lZyenpMEERkWU6ZF3ieq73eTatg2xIvDJjN5poDUFVkZUEwiPp9b1EU0NF6k5y6KalrXTG8+uxzDo9PaeuS5XLN48OMPKuIBi2u61M1DUmSkRY5RZqRZgk2kuK0Yr1e62Gtgr3xiLPjIwajIWdnZwihV7BKtRwfH1MURT+YdF2X05NnHB2ekKQNRTXj8csHPnx4R5XBcDhgND7i9eufcnByShyPcGyPzTzjt//+L4R+yGgQI4SF68gefhxFEYHr9WrO3anfkcW0hJY0k/nOPSrDHOdP7s8uEDoxmu6e7X6hBG2jqwApJK3Y7sL1lB2DBZG9pqQpnA2grWWzSZ5Uvt3p3J3iuxXELnS9e527JXx3inc4gb5F2XHF7nLA7u9yRxlb0WLZcqdi6DA5Sg9HjSmOlBKEQkqBzVOdju41PNEE/Fsvuvu5g4ugy0Z6r27ZugqwbMlRcIjnu4yn2piwUno11irFOlmRVglJuqEsNeUylxJVNyD1qkw1DXYlkBYG3SSxQ5+qKJkt5sxmM+4ur/tB3MHRMc9Ox4RDXcI5doFlJfhhi7Ay1knJ+eWC29tbhBB4gYPvBzRVzWaTk6zW/e7VloI8W/H+u69ANMRxzHA47Eu7qmyw3YiyyCjTIybjPeJxRLbu3HC171008BhNBmaGoFln11dX3MxusZThkbseB0eH/U2PVEhbUDU1tuvgmBVnJ06xWm64u/2eZy8qfv3rX3OwP2W5XPLhw0eur263wCtLl9V+6JGlG/I8oylK6rbl5uaG49MTFotFb+fl2Q6B6yEtwXioqc57e3tsDGklDEOePXvGydkpWZazXq+5v33g5uYS1TRI16HFYTQ64PT5G/YO9vFdn2y94ebjJdefLjnYO+R470hvBfanuN7W3EUZdZtOkq0PWtFNrRtatIqOgr7n7kpd1fJkqNa0etVVN1uNh85eruud9ectdxKMMEO0LetPE9C0G3aXTOq61m5YZWnEbUEo1YPPuqFkNzBXJioleqakmobWCNrsUul3S/y/NXvbTQFdwumt78x6uXuc7vp1lct2ZvcULt+1Lt1rtp+g3nZexF99Twk9CzDwQymEFk2wFLZj44WaM//Zmzf6TaLnCUhJVhU8JgtuH+9Yzu+py4q6KdislqxWC7Iyx1IK2Sik1AQKKQVSCRqEtuXOCpaPc9pWcXh4iJaSlqwWS12OqRZLtaTzGXdFRp5nXF5eslg+UjY10rII4yGe6+M4AU3Z4Doe48kIx7GYz7f9f9vWxjIaFvMV63WCUBazaMzj9IZnZy9p2hekWYakpW1qlqsH4qGPZ2nGoesrkjRnnSxYr5da8DMa9QPAPM+ZzWba+88MTLUCksBxtfiHQuK4PlmW4QY2DQJpOQThoP9w9w8PiOMRZVNTFBl+5JMla+q6Yj1fkGYZX3z1Jd9/+t7s1zVkdTgc0tQVQWRALEGAbdtsNhsGgwF/98u/ZzKZMJ/Pubi44O7ujofZgx6W+T6tJRlEQ/b39xkOQqgbHh5v+PKLP/H1V38mDFwmowE/+8lbfvnLX6Ik2sLcbAGyTWJO4RKlGqTkSWnbBXt/wsrtMExKqeXpdwA+2UZXCNLgDHQ5vKWqW7Zjbvx65z7X9Pbd6reju3d/t6SDsC1ao3fRlfe7AbZ7wu9yUp7Gkn5N2qJIQ5GlbWF3w732B0nA/LHDprRt0x/Su3v+7nXuKgT/kLnb/btdNm73eu0ua2ynjOqv3oRSCmVKpg4CKWW31jAfWKGhtK5n6T252Yu7XqApukJR1gVVb4dcsNlsuL274uHhgYf5nZ4KJyagq4ZaAcpCSQ/h2GTJ2ujY3VJWHn/+83sWC20b7VgaZ6DBUS1NU1NWup9umoZGNjjztTbOGEzMhD8iHkR4jkvg+6xXc6QQRKGPb+v9behZiMajKCoWjzesNzOKIiMvElCC5WqmVz1ew9wXVMOhDnJZUTcZQSix5JAoDDk5OiAMQ4qiYLPRfnxVFfV74STRePFOuksbZuohV1omXF/fUmYpw+EQ23HwAo08O3vxnMEwYj6fsVpOWJ4Gix8AACAASURBVC4XlHlKMhlxcX7F+/fv9EpUKZpW02WDwOP8/CPSdgjDkPF4zB+urlgnCaenp7x5/YaiKFguV7x985bnZy81k87Sm4NWCTwv4GBvnyLNeFzprcEXX/wJx7OZTI7Zm040vuDyWhusmmGjlBLH97TBq9FxbJqqP8F2yWZ9Uqh37ksEliWMlbyAtsUN3Cf3a4fYfHLCti20XfvQYqOh3pbrYHsuWLJX+93CfE1c1E1/uu4ejkLXq9im2pBCuwDtxpPAolZPDXL6fT/dUG8n4IXoE0BXAey2PbuJZTe4f5iMttei/SuQUV/d/y//6/+uOjms3TXFbnbrHqCqKiSdHBJ9QnjiwmPrwYftanKDZ06W0Hd6EEYQBHiehUCQNpkeymVr5vM51w832pFnvQWHZElKmRTkqUaxKQVt3bBeJ6yXK5qmIfR8LQhpdUhAPS2OxxG+65Hla20l3jY6UZgPYDwem4GQZo8JVTMcDtmb6j20TnCCLC95nK1YJRsGg5GmaTb0ss2e7fTvbTAY4IWaipqWFRaS0WiPo/3jHvq5XmvNuelUy4FdXV8bGWdhwB/aiXc62UdKyYfzd9rIg1rTeA1NdDie8vbNW0BRqoIiS/nw/TsuP30kWW94eHjk4/sPmhJqWRwd6ZK8rnQwTfY0+eTLL79msVjw8sUrzs7OeJg/Ute1TgZv3vKjz35E2bQoUZOVBY+LOYvHOdkmM54Cj2w2G6JhYFx8VwgcRKulz5pal/6uZ+s5izm1OjtraQxFOj2JXSk4pRSiFU8w/ru786bZEYQ1SUO12/J9q+ajDwfdc2+l4nY5A0Whp+2DKN6B6ervdwlgN1B/ePJvT/ynJ/B2tsCTEl4YTkzD05hTRmujNf/eljsGoAYc1IGMdlv37vX+UJvTNd6cu1VD27bbFuBvZZfd71m2BGH3E82OJbgdajTmQUsqpWjTnI1cYzl6RWiZXssPPAOU0YnBi7Qx5cnemKO9M16/+YmG1FYZ6/WaxXql3UyyjCovWC81h7o25WyZ6x7SMppquVFSyYusl0pumgYHSa0yZF3QCoeaijLLWWZaw943k1/VtqzyR4pGMSxapNXiOT5V2fZDIT3H0B9g6Pk0VU1etuRJzl11p2mgob55KmoiLyKfrmiyjZbgiiIcS+HaDoPYYzKeEAQes9mMVgkGgwGAfp+U5GlOUWRkWUJT5biug+3oNsJaSx4errE9m7op2WxW3F5fcH1zwXK+IF2nKPRWwPN8RqO4V4M5PT3l9OSZdgXa3+9FUheLBVfnFwaTLxCt4HG20OAXu2W1WnF1dcns/sGsR2EQBvz85z/n57/4Kckm49P1JclG8xGq1iIrcuqq0SpD8xW1ag2WvukVmFzXxTarSW1sqZOru7Mi64ZtjtOV95ojYXsdiG17GgJUVUNZVP3Ar+2m8VZ37269Ldp2Zz/u6NmWENqYxXJsPYC0t8IaXeB1mITdrz6uunZ5J5a657AsC9HqVrlqf+CRyVOjXa3GrQCJZTlYlm0ep2tLNDdAW4jpQ0u3OFvC0G5C6p/rf/qf/zfVrTu6i7xLLujfTKepZ0qKrY3xdngIWulGCIGSTwcc3VCl2zp0F853nV6jLIoi3MDX+madoajb9WGSsmzJs8RcGOP4I7alolKKotKkkiTVCLEkyVgul+RNxmazYpOtyYsNWZawSbROnu4VLZpGQaNL8LYpCAIfP7CJgxBV1mSrlEppp93hcNArvda5IS5tUopMr1haDGzT1QMsz3HNBDwGJEJKHMcnGgzY3z9kMBxTliWnz57pYVyW8unTJ25vb7XabpKzWi/wbJvJVM8t0jSlKIzwp69JT4jGyF1pd9qqbLClQ1lXjMcTA16yGMZjjo6OCH29Fl2v9fxDSu1OLIWt6a2eRziIaC194zzMbsmSlCzRdmJRFDGZTPiH/+qX/P0v/o7VasHFxRV1o7D9kHh6SNvYFKucKtdVVp7n1Ko1kFutlRgEmq2WGWSflKJH3Xmuq9GdSk+0dQWgf++g29IMT7thYXfKOo6HlDaO7aKx9EZmy8ZUG1un3a6a6JKF7rkFZVFRVGWfXLqY2BXJ6e7z7rl3h21CCI0h2Klo+kA03Jr2BzPAppPeM/e21bUTO8ln97Du3m+z06qLnf+DqvuqabdCsLtS4K+siEzfL6UWSazaun/zGiKs0c1KCKQBk3QXQSA6gFL/JetOzNCi2hlY5DtS37PZYw8q6kocfSq4KFuC3Oqf6Qxq6+e3BbalH9+Xkn2zfwUjQ65qNnmCkIqy1BPtPNF87TRLyPOcLNFOxhsjC52sVz3by3M9knpNRopqLbJS0S5yhChoa803byt9URuz3jEu6/p6WAmVIRPleY6oFXXdQquIIq2vL23BwcEBb95qYYt0o1FyeVowXy6YLxYI22K0P6ZsU4SApqpYLlbaBdfXhJQg0rTVPC2wpI8b2NRlgW0rfN/Rq9M05Tq55Or6At8LsSwN4vK8ACksY/jiEI+GaAFTnwZNdW7zloebGXmWYlkSRzh4tk2WpPzmN/8f55ef9FzGcTk+OuPvxyNenJ1QHCquLu/BUQSF9mLw/JBoE5uSXINjqiLp3XdcaWMpQbZJWVULffPKrQ6eFAKamsD3kdLoQQjt+lsUBVEQMB2PmE73wbVx/ACUxBYaBh6FIb4riaOIus6Jo4Fpdx1agWk3jTJwXZCXBY5lvBgbQxxS24ORVuFIS3/2rf68y0bfD6pLEKKmNEhD23JplYagF1mOEFq1uKlbI18j+21HQ0VTaxFc29Ly8EVRoKh6Y92qqrTuo6WpzLtYCIRF3WwdiLpr2LcAXRbrMgo/aAl2EYJdBuxw0Lv+gv3//6FugHoqL95numbLhuqycJZlTya+SgiKqgYpkdZWxkmftNuhik4KsncschwHaVtIFKMgIPRd7EEEg72e1tlKUzkYbba6rcnznMVatxpZkbNJU9bZmsflgmSlqZ51VVEYkQrbcWlbcITEFVoCujJkJVr9QTVAmhaUhTIti40lLK4fZlBX2I5kdn/Hx3ffEMcxo6k5rV0Hy1HEkxCNxJR9yVeUZrUl9eBVX78GISRhOCRw9YkohWI0GRLHA1zX5ebmhq+//saIq+hrvbd3gOc5JEnW+9UJofRu33FwLBulWqJhzCibMGUKQrFZLZk9zo1QR0VR5TSNQroOju2zWCz48Y8ixraDIy0uLi5IZYnnh2RZgWdWg0FoqqkyxA9DyqrA8zwCVwN2kiQ1CWB7n9RVhRA+EtHDve8fZ9zc3LBYPBIFAc+fPydJMhpZm+G1bWZEGBPTtRn4ib4NGQwGWI4DShqiV4R0XDzHpykrsCD0NOegMRJhlmVhIbAtS2NmDC+/qHKd2Ew8eJ6uNHXVYdG2euhYVxWqFWau0ZBlCUXRiXgG5GVG20Bdd9WFibVWUFd6Jd+2LZZtWp+6omO5No0eiu+uDbvYtLsyplsx7JYWXfAp6HecuyVH9+tvDUDYOQG77+/2ZrtlTJdIup/tZqju71WzfeG7E9Zub7ybMDK5KyuuUG3DjS0Jfdf4Bur1pOM4uEZ6q0tiYRAziqYc7J30QI80y1hXqYFFawhzWRQaSpykNJWGhuoaUaPJimxLVa2bkk2+pCxzMmOtVeQpVV6QpwVNXtJUDVVRGF5FQBTFTKd7uKGNbUvcwMP3A2w/wnMHZHnN9eU1SbAi8Dx83wUkjdIiJ67rEXo+vuvi2jZxHPTQ5dUyITClfxgOOD42RqCbDZ5nqhQhCKOAqs6ZRiMszyPNc3w/5Pnzl0il2Y5CwfX1JXmZEQ0CLAuCIML1tLvu9eUVyWbF/t6Ug4MYxBEP93OyssJybVM5bkUqLcciiiPcUn8mgyDE8wLCMKVtFZXSE/qmaUiSZKtcZfrwRgJSMDncZ38yZTgckK7WUCniOCIwFN00K/Ss4+qG2WyG7Tqa6xH55j7TldBwOGZvbw/f90nXG10VNi22Y6S1TasipC7nm6pEKIVrW6Yi06Qc29fO2a431C2c7SKR1Eq3HY4tdTDXNVmWs1w9slputKWdEAhLO0gr1fRqQEppj79dhGEXU1rXQIJoUChsWydS27LIq4oajYbsvQG7MuKHjKXuq663Pc2WsvgD9NJuMtgJyn4F0/87TSvefXwhbHZ1/fUEsytZDL2x0aahHc2hX2mYMkc1uiTrXmc/CQXysmZTZFhGRLJreTyztXBsr7+IWkhkKwLRNA3eQHO5A8cH10d4Amti9a1KWep+2XXc/j2VlR7K1W2FjDzqJkeqnCJZU6QrqjTX5WpWo1obwVbrPR54hJGH77W4vg+2RAmPNJdI4ZGkFYE/ZLWcmaTh6n7X0iae63WCbTt4gUNbN6ySlFWiORoP8wXxeELUtgRBwN6hlgGPkoTZbEY9r0nzlHbZMp1OsV0Xy7YI/IimanFsj4GRUm/blqKseJjPKKqawHUp25ZqoxV8vvnmG3zf5T/943/N4eEhxwcTotBnmaRkaUmSpWSZBlu1RU1Lg5AKx+D3bc/G8R0OhkfkWdFD09frtT4clNmYKS02G49HhPGA8XjIeDxmNptp74JSW8a/efOaIAjI64a//OUvFG3JcDzCMZJcWaa3UraQiFZRZjnrxZKNvdBCn42eGSyXWsPRjyP297VmwWqxZLNcUFcVttCCL5P9iY4fpXkvw+GA8WRE4BvWoq0r1jga9EPP4cglHu3RnE6pypa6hnWyYTFfk6UNUjja6jsraVutL5AXab+p08QmnQBKwxqNAn1fVm3bx64QQsuCdzdxF8C7lUB/Squ/TgCwRWPt/j/dQmynjkKInaHhVh58d33RQyPZor62FmSy76mftCFKaaXGndfZDUGUUv37AvB8G5oGIYX+vdFlE1Jryld5anpxIzhR67206/j4gYu9WqHYOhN3GPFuFZOVmV5HhqGelluyB73YroUTCsLIw3UUoWczOTuGqmG1WJAnDb4XMx4d4Nie0X4XQA2qYLlZcje7ZrVacn2/ZLOqyEs9RyjLjNXqloPDPU6OzxCWxXqTslpucB2Huna1Mm1d9CukItf9pBDbRO55nmGwtTSN1jFYLB6xLMXFpUXgx5qxVlaIVnHw8iVnZ2d8ujjB9UO8h0vm8zllnZOsM8oqpykrLi+vub2+5OriIz/76U95/dlnPHv2kjg6pGxalumG+eMCpZRx3TXe9VVt3J89LCmp24Iw1hP/xWJBmiY0TQ2WxDe24Le3t9R1qV2dByFB4KFETVKsyDYrpvWQvN1gobA8iXRLXF+xf3jQD6JnD9A0LqEfmEOn4uHhBiUVv/rVrziYHrBer/nii6949+4doTtkEodEYYQL1HlGVukZ0OPDDN/3+cd//AceNw989+4bLq/fc/dgs1rptXfbtkYUdWI0DocMh0PGkyHj0ZTBYKQFVYYBw0GEwEW1Fut1xs31LZtNius6NLVtOD0WSkFVdFJpBcvlknakVas7AlUXMz0QqMc1y259oLQGvynLpdjCgn9Y1u+e5D+sCLZ/fvr93bahSwAdIOmHoAfLkjRGsQWJQUa1hlChk0nbCSI+2bnqSaQARG0qhbamrWtEo3AsB9eUU1lZIPoBo0VlJMBqUVAkFra39WrbbUWqotSMx/Var/G6CauZ7lq2IB5N8OMIBXz4/h1VlXF8dIhjCa1GU9ZIoTg7OeVHn79mOp2ijOnm9+fv+e6777i9uWOzyckrqEpIipowHHAw1aCmm+YOz42Qjs1isaLIcmwz9VVCohS4rodtO0TRgMfHWZ+8kiRhPNbgoOl0qj33Hu7IsoTLy5Q0zZlMJjjSwXV9Dg+OONgf8+zslOPTU7xBiPVnj+F4xezxloW1oJxXbNI1eZGyWi24urjgT7//A89fvOJnP/s5L998pn0XHJ1Ig0GE64416CnJ2axWBqtghD1TLTTjui6qLWnqHCla/MjXZb5BcNZlimMNcW2BUDWuI7UWoGuxKTL+8KffMxjoU3i1nnN3f856E/Hs9AzVuEwneijZKUGlSYLrWChVM40jXj0/ZXZ/zwfPZjoa8vzshBcvXmBJmzQJeby7pVAtg0Cf8C9fPOP1Z684LMZskhkPM20cc3NzyeXlNa3xHhTmMHRcy7SAHnE8YTLeJx5MOD4+ZTKeEvgjfD8CbBQtq/UcKSXD4RCrEjSNvg5d9VuVNXlW4Hl5H1+7WwO7C8bu1PxbX0L89S6zO51/mBT65ED7V4/RJZtdV6HdRLFLadxFgtV1jZI/eHyhXYlVR8s0Rgl1VZKXuRH98zW3QErSSss4tW1rHGEyBgPtmqMnppLJZMIojvVz1zX5ZkNhrJuqYguSsiyLwPORUtC2ktAJqGTBOBySZRmPs0eEgSxHYYQtXU7Ge7x7/55v/vw133//PcfHxxwe7oNqCDzN829bjUyr//Iti8WCi/NL3r9/T56XhKH2y4vDiEWxZhwP+MlPfsbRwbGmzzY1vuMjHJv96R5FmeE5Lm2r5cfbpurfr56D6HVfq/TPXVcfAB0WII5jskwbfwrVUGQJeQOhH3B28g+8fv1Kuy7RMhqNOHv2gkmR8+rta7Ik5fziex5ubpk93DC7uWOzmPP1V9/y/t1Hfv+737N3cKiVonyHg4MDXn72ytixH2FbDlVVYlkejmPTNjZKakw9SvtISKvl+OSQaDzk/v6exfKBOPKofbCkosg3bNZzlqtHBnFIVRd8+HgOoub4+AhEgxANqtUOyEHoaFu7JqeqWyohcGqHoiqIRxFN0/CnL7/g4lKT3S4ur5hMpxyeHBNPhwgsLNfm5OwEz9ODxBcvXnB0cszV1QX3izvjvVByc3PD/f09IBgMIhzb69frSjVkqT5U7m6XSHGFbXnE8QjbdrEtj+nkkIODI6qqYb1emgrOiNPaEqoG23GwLIkfOIwnMaEX0FY1wtIiIa1SBLatW4AuoDsE0l8Fv5SInWpAn7LNky3AX4GJxFMccrcF2N2fdo/VfW93xQf0PmdCCLKqfApk6JKBLZBK9m4/Ds5WS00IlNCU5qbtgCEV87WWfGoEOIEe+oS+gxItD4/3uuf3PKI4hMQ8l9KMyE2mey1XOmBBVehW4dnZc71PT1IcV0t/D0cjM1+xNK7fcTie7iPrlr29Caenx3iBi+1Y7B1OaNuWq9sbsiRlPl9we3mFhcX+aI/jk2ecPn9BVdc49gM//cXP+e/+2/8ex3G4urrh9u4Bx3HIm0LjKTxJukk4v/jIfDHr3WSyQpOBXr5+xWw249P59xpQVRfUbcNoNMJybJ69eM50f4+bG/16Fos5qmnZSJur608cnx5hOz5FrYeiB8dH2I5DURe4tuTtjz9ns1iQbBbcfLrg07uPXH78xM39Hctlwv39V7oEdXUPPNnXPft4uk8QRETxgOOjM/YPj/G8AD90qMqSh9sHyrxgf++Q0WhII7RMe11X5EWJ50qyzZrV4l5rPqJ58INBwHz+QOh7TMYBnqewbcHbz58RxzFhoAdqX3zxBddXtwwnEw4ODgiikE2SUreSsqz4oxFwOTk5wx1GJFVB3NYcHk6Ra4v958dYoctnr14wGo343R9+z9XVFVVesFw9slzds1otsW2XKAxxXV9vGdBVcFEmBvEoaZWkLBo2Rcr93ZKqanEdn+HwHt//AEAUeZqzsbhnNBoZGXHNnnRdlziOiOOYpqxQSlCbKqBLOLbraQ3y2qwJLHPSdgGO0C48ebrRpBXpaG1zqS26LMv5K1aSXu1p2Ga339U9pwYEabmjp7jo7VrRQspunkCPeKpTjdjrJsBdxaD/qDRxqG6o6xbPC/oEI0UHLTVy0S0cHR31z2+7eg2l7JYPF++5v7vjcbbg5cvX/P3f/RopHa6vrxFSC3yUbYqFR14XyFbrqzdtS1E3KGnheBbj6RClGoRocVzFdBqztx/y5u1/4uXrQz59+sTe4YEZdGo1WdsR3N/fk1UJjdXgBpLR4ZBBGBMNhkh/QOkoWkuwf3jMm8/esjeeAtDsazOKJElwXAiDACVgs9lQVg1OEIJseXf+PWmS8Iuf/RzpSFzPRqiW2f0d8wUUZcrJ2RkHB4eMD/YYNgc4wYCvv/6aT58+0FQFo9GIf/63f6FoCn709mdYjs8kHtAaB5y8brm+vsZ1HT777DPiKKb+byouL8+5urri4tMlH9994vLyktXjks1mRVPV3J6vub9McJwH/bm5gjiOGE6GTKdjpGOsu3J9ELx69Rm2JwiCgKpIKHMtV16ULblSGvpdVcTxgP1xSF5scJ+PcUKXH//4Oa7n8/79e5QlCeIQz7NZL5aU1ZosW+C6inYc4EiLw32f+XrD3e0lZZ0xHPvYbo5qlyTrmj/8+zsCb0DgayGR4XCARPHtX77ij7/9Lefn5+Rtbg5IfdBK10K5IHxBY1dUDeR1RlmXeuYlXVSjgU+ub6EsB1yF67hYvk1r6UrUD2IG8QQhAspSggOW5dE0JVXVQAPChqI2cON2iwSs6xq7U7Td9t3b4VzXL5RliWN7CLZa8runfRfAHVZ5a0KoE0NdaXDFbpmv9dyKXiSxG0I2TY0WP3zKBuvEFXbFFnpAiNTgjq6S6KqZTrG3M1domoZ4OMa2bZbLta4U0Hh017Upy5qP35/z8PBIGA64v7+nNs4/g8hHSUk8mBhEmN6TK6VfS1FmRq3YwfNHCKEIQ5+96YQoimjRA8Kh0brLDKKxoSKvUt2ntjnCgsD3OT4+BjBKtClJmukTwHXxhN8Pcsqy0aSq21vtRuPrVgYpuL6+5ubmhjAMOTicMn98RARalDUx0tWdcOVmvSQbxKzmSwZBzCAe4fshw5HWG2hbwXqV4toeiZPy8eNHxqN9Xr9+wyDwUZZGDi7XOekmoXBsreu43BBHAz579Yaffv5TZssVFxdXfLq65O7ujtlcuzA/zu7JNglJklGmOZWqmS/X3NzfYQtthtv5LyiluLu45OHqktFwaEhUJZ7vMB2NCCMfIRtaBzxy8s0Dy2TD3d0Drm9jC0lWlbx//z1N1XJyckQc+TRthWNLjo6npootCEOJ73nMFnOKPCddrWm9BlcKrj6ds5ivuLy8oioFnuezN5kSRRFlpc1INuuU5XpFK2s838cNHRxbC4rarkelWjZJDlLQColytDW7lDaOcBh6IZEfEXsBjmUb63bLKGk7etXr+xoUZ1beT0hUosFujUaiUrQ/cNzqFQ22qqJPIY5t2+6opGwHbN0GUPfEwog7VNS1VrKxDBqpaWqEkEaWuBsGPqVNdm3G7nZAJxlojfOQQvWB3VFqO1HObujW6cLv6hgIoc0lOvw+wOPjI+fnl+R5zmgy5MWLFzSNwnV9Tk+fcXh4zHS6z8XlOXVRMR5rDX4pJEJJHEtvD2zbQrn6dQgpaCgZxjGHh/tmig+WrUiSBfcPjzw8PPD9+SetHejrIVNWagHJ8STWvfd4gJQ2k8MJ8WDIar5i/e4j8+UjcTTRK0rfYb1es15vSNOcd+/e8fHjB9I0ZTCJieMYacHj7J6722sODw+R7PGjz9/iWraW/UJbezuORRj6VHXeu+f4vo9Sgigc4Hoho+GU4XCfIqmoasVkOCEIAr7/8I4iy3n27AVlq7H9i2TNMI5xXJ90U5Bna2bWisf5ktFoghcGHJ+9ZHp4pA8Rqff5s9k9Nzd3zGePzGZzHh/uNKQ7WZGlG+omx7EsmlKbps7XCf/++z9CZxQjdDVwdGSk2pSRBachKyoeF0vSvMByLPiP76nqms6y7v2nR3zfw3NtHKubR0HeWKwrULVi/rjh8SFhsUiwrJw0VwihJeDSJKMsWyyZcXlxbwbBWwEQx3fwwhjpasdsy/GwHA/b9pGWg2d0JKMoJgwHuI7HIIrYmx4xGU7w3QDfd7HNAZjnOU2xlTwvy5LauFuXZg3Y42KMFuG26d5+tW2L3YE+di2LdzOErgwsw0By6Kaynb+eMopASaI13jq7bZC9f7sm5GwDXgc5SGnt/HxbWehA1cowmtjQ0O4Ai7p11nK57BVhXUvTadfrNQcHB0yn055+WpZ6qKLNIhWluYnSNNV6+UlO22ho5k9/+nPquma11DwByzLQTgSW0J6DQiqQLdKSuIELWAwG2rp5f6qJPavlnPv7W9YrjZmvWo1932xWVFVBrRRZBkm+BlpsD4QFVVND3eob1NJIs02a0lQtqm7YG0/YGx/y/rvvOP/+XDMJjf4fwHA0wA9c7u/vWC4XuK7DMIoYRjFREHJycsyLFy9I0jXffPMNq8WCIstwLRtH2pwen/DZZ5/TKMEgHhHEQ4pKcywcx6FuKpRts1wnJKub/5+t92qSI8vy/H6uZWiRGrKAkt1dM9zhkA87XJJm/NA0mvGBtjs906KququroIHUKnS4h2u/fLjuHpHoTjMYgMwM7efcI/6Cs7MzfvjxT6SJXNsdPnqM+/iJ1C5MBUkQE2zmrAOP6WSFadq4tsP+3pBhr4uqgjFQKR49kwlkHTBfLkjSnDhLmcykjfjd/I4iy+WpuliyWlVw7kgO1kSpEGQl6d2a61lEmkuATYlEmnqeS15oJKXEoRRCys4pikKeQlJEWImBKLOmMrxfbNCtW+I4RRU6aSLVpIWmsqhmQapj03K9qjKp2+etV4Tv+1i2izvoYjkOnmc3atGO4+HaDpZl0/alErXrOJiajmXYOJaLEApZJCvqLMuI8xi1VMlF3giqJEnSQNDrg3VXcxBFaTwQPwf76cvlsrJqdpsevSmrdb0R9yyENEnQNK1yYmnySLPDrdl3bjXcqCG5uzyD3YCX5Iut13q9ppAkjYcuw3W1sZ0xZNzd3XF3dydFJS2b5XJJFEV0Op3GpKPmExhGr0kug8GgeR2Cmtgh8QaaqqNbBrSVyrVVstU0VTR+BlEUkeUJhuliWnII0+/35d413PDmzSvev3tVyWoZ9Ho9NNvEdCx6/S6DYZ84jZjP5wghWK/XrtOkjgAAIABJREFU+B1XOgqFMaDguh4Ig7u7Cet1QBQljHo2g94Q13FZzVe8ffNLNehpoepS2msw6CNESRCsKMuctu/SabVpeR56deK1Wi2yPOLq6oLLy4vqAkrpdbq0fY+DvTGO2yYTCqbp8egE5osFnd6A5WrK7O6OeLXAUnXiLGO5WrGcrxosR9v16HZ7JJsMtVDwDAPijChK2Yg1a01DZNKo03ZMFEVg2AZpdZoP+xIPEUURg5b0zsOCOEtJo5h4ExGGEXEQEkUhWZI27lBpJtddWSFb0ULkckKvadi2HM5mWUaSS2VnagORomxO0rKUCVjTNEzboXAKSlVpCGvysLQkCauyunNd90ErrWkSUGYbpmylun08r4Vt600bbFlOozlQJ44yk/GWJTl3qzmbICRNM6ieX+2ApbDd3u3qedTuR5/jeMQuQI9adrASBKnL/d0b1E9os9kwny/pd3rVOtBAQfryyTJCUBQCy3JYLOQJV2vl16qqqqo3qjdbZ57KeqnCP9cJoA7wurypg7YosqaiqDnkNbS12+3S9vxGq73dbjdZsP59x3GbC1TXdUYjOYTLKmkqRZEebmolCdVu2/KNrpRgdEO2PVmW4LZM2u0+7Y5Puy2tnm5vb7i4uODd2w98+PCBIFzhOA6j0ZBWp43IU4Qo2dsboaoqk9mcINigaRaqqpEmAlWBKErJs5KwFaOxYb0MybIC33HxPE86BzvSKfjo6IQkieTrs+1GRixNUxazCboKLa9Fq+2RRBGJULADh4+f3vPp0wfOzj6h6yqaapFl4NgmRZ4yn95L3wNUBCHRJmY8HkvPhIWHLhRubi/JS8FgNCaNEzTT4vb2ltPzT3gtn9+1f4vnW1iGjed2mK+WRFFKsNmwWoXcTW65v7/ji6++wHVtRARhEFHkOQiVMpPMwVJkDPfGdNttPMcFX7aoRiXVrSkSAqxUEOwoiyoMC80syzRt8kIKmMRp2mgtxvEGUaQURVlN4UvCtUQwKrrUCaTiDniOJSXfLR0FrfIgaG+ZrUpRHXC1/dzWP0MRoCklioCsiKuDT1BGOVEWkaVSei6t+ChZlpGnBWlaQcyFSlEmVWxsS3xFUSjKopFZ32XzNrJgtRnvTltcfymKgi4FK2WAyj58lx9dNtDCXZw+SOkl2bPnzWTfdb0mu4Gk1aapRGZpmouuS0OLxUIOwFxXXtRl1T/uihrkedFUDkVRUrKdD6SptLze29uj0+mQJMmDnf7nM4zaLknTNNIqkdSVhqoKDENq8OVZiUA0w0wA26wsl4WCbTu02z4Hh2NavkUUhwTBktPTU3799TWnp6fc3U7QdZ3heMT+/j5Oy2KTBpBKm3RVV8hz+T62/DaFkBoGSmmQbArKTEURCmWqIHJwTI+W04ESet0uuqI3FtedTgfD6OP7PlG+4eLyjLv7EE2XPnmu63J4uM/BwR5qaZAksk/893//dy6uzomTCMuzMBUFVfMoRcpsekuSJJimj98d4Ld7CEUlizYMe306nlRLMg2JvEvzEsvzsdKE3mhIEq158/E1mqnw/W++x2npdDoOqi0hyulNxmR6z/X1NWenn7i9uZL78r09fL9Nqess5suKfivfM5EJ7q7uODs7oyxLia+o3Jg8r9XQXBVFw3V7D8rfuqVNhQxQz/Kra1Ry9RVyqXVZKliqSVpWbjyVv2VRifMYChRZim6o5FntPSlJYGkaS/afklGUqUwcQifLJLEsyzKyyuquKLa6AXleSD2LVCoeSey+jLsiK6thcymZhyKrYrAG8mwNSeq4/LzEr+dosg14yL+p/9ZrAcrt/n2ry6aqkjapaQaWZaJqUORbTn89tNNUA10XDAYDsiytAlm6zuZFWjGUJMhhuZzz6dMnhFB4/Pgxo9HoQflSayHtDgRlRt7qCOyaMuzSh2vgym4pVhsx1roFdUuSZRmqsiUbpRV0UlV0ygJpha5pKEophUgP9mm1PSwTKDPevn/Dm9e/cn11xqdPnyqmVk6740v32oMRz549w/UdLi8vWc4X5HnG6ekpjtNif++Afs/ixLBYr9eS87/Z4NktTNMki0uWRYCqavS7fQ4Ojnjy+BnDfr/CgEvY88uXX9Dv95kHM25ur/j06ROWbbC/L4E2e3t7fPXVV2xWCbe399wv7rmfTpjNJtiWzsuXL1CLgrPTDwTLJRenp3T7G7q9Mbbny2Syibk6v2B/NObpsxNajotVsd7uZzOEgE5/gOnarNcmwXrJx6sz3JbL8dEJWVkw6u0jioKWY+JZJpaqM59N+On+jotPpxwfH/P82QuePHlCv91hvlxAXkjRWQHXFxPe/OWNBC99XTLaHzPNZuS5vN50U2tKcYlwTJtrOk1ToqqyaLe7WJaNqCo7RIGmGRK5KVQUSgxDI1eKxkFKCAVDM6sKMpVsR0Veq0ksPQhEscWp5JkgTWQA19d1mmbVpmurYyEPqK1dmBAFiihQFDlbK/JaVEQmfZAHtCpAICiyjLKC3O/SfFVVtrK7jF1F4e+SQ1mW6HWA1NNzOXzbrgAtSyr2KKpOUmQUZYlQBWUukXVokBapBOMotV6gVFU1TZO8kHiA2mY5L1IMU6sCRop3AM3fQmxLt/pUTpIExVQaKa+08klHUdhU1OGs6oWEqpIDuqqi74hDACRZhm3YFX23lHLkQsEydExdqwY3kiVVqjmua+J2PIbDAbZrEQYrriZT3rz6lR/+9Eduri4IwzWuLWXATh4fMxzvoaDhd7qYuoeKQ9vfY7XOWK1mLNfy9SuKwd74iHZb6uK/f/exwobDdDpFUwSqZ+G1W/zuty85fnRUOcy6nJ2dIfSS8dGI3riL5ehosdzjL5YT1LVKu+1LxZ/jE9rdHpe3r/nx1Y+kyZpW20YRBzx6fMT3v3vB7c0Vb9++5dPZNfujAtfpYwxttFLD1gzWech8OePq5hqhFXzx9BmjYZ8iTzEtqZGPbmBbFqZh0/LaaCInCQKmN2fcX3/EdB26vSFZorB/MsJ2HHqDPvP5lNPTU6bTW+7ubojSgOOjJ4Dcc2dFSZJnRPGKdTCr2rUSA5U4TtmEG8kKVKWeAmnZXLsgB7t5nhNs5PWnFxqJtmmqy7yQVVGRS2LUNoj0qreu3HbLtKko5MH0kIVaV8rblrpy0ALSTK7Cc5DcfHlVboNV4YFGhkSm1shXDUUR5MVDIVBFEZIKn5dNlaupW9kvQdlIgisKZNXzVethejVk13d7gt0+ocaJ16WwadUMIrV6Q7aAgu2bsnUPbgKvNvow5ABw0B/hua0G+Vef8Nvd5VbVtD6di6LAM3z0XcqykIamerW+zKukoGnbIYumbllPeZ6jGkpFlhDbnqmUnvOaUmLbJpouq4TuYCR39l0pz/XLL7/w7t07Pn14x5s3bwjWUqDCs208v8toPObw6BHdwZD5bMF0NifNJChJMtekBbihWviOL+GfKFimQ5IkOI5HWcLdzS1pLAE3BwcHfPPNNzx79gzHtihEwXQyZbVYcnx4hKZpfHj/lrIsiZNQ4v/VSieuKGn7LRzLJVitef/+PW9fv+bRo0M82+P5o0d895sv6Q1sCrGh1bYRZMzXU8bhmM1mRbfoSe+8JMe2fNbLDW9ef8C3fUbDIUmcoWoGi8WCdbyRiErPxjQU8ixGaIIw2hAGa26nE2zb4/joCcdHJr/7/mtM0+bu7o4ff/yR8/NT0jzh9FTai5umTZqmDPfGzck+Hu2jKArdbl/yNgxDqhrnGVTXSZqK5vMtioLFRvoO2o6HitQvAClsumsxrigKSRpTFnVgVuaxuaR1a8pDnsquevC23N7G0q5+IEBePJQMqxNAfZtc/P3AW/4tb6eoW9i8vI1oJvy7j7t7wj9oBarhn0weilxp1ziA+kXtZrZ6BrAVHdz6k6sKnyH9t7MBoSJ1zsRnO/5CagrUA7waCJRlD/UIPv+q5xO1397um1q3IvW/d7Ng/bgAoijQFCnLVBSlTBqqgaYr0hFGKdBMlVbLwfVsBoMeXkuq995Prvnhhx/45a+/cH19zf39vRwAtSSgqNPpSByC4ZAUCpsoRyg6YVQQbKZNe2VqOgejoyZBmYbNdDJnvZKedut1WDnjOnz55dcVV2DM06fPcWybkpxXr15xe3tLr9fDtm1pxHJ5we3tLUkqT7VWq1Vp/3s8evQEz23xw59/4P379xwfHzMYjCiLnCSNuLm9IoxVXNfk0ZMDzk4/kqUKmyggzgLiLMTOpOdi2++wWW4o0oLp/QzfdprBcLfdYbZecnZ2Jj0fVwuWixmdlku77VPkGevFirvonjiUOgjtjsO333xHZ/AEr2Pz4cOYNJHr5TiLSVJZ2VGmdNtdKA6wTIc4TilL2V4qaIgyR9dMMhFze39HGNRmn25lzil/1zSD5prodDrYmiCLYumSWxYIoZLmEi5bliWVvDRFIarrXuyU07ty4lsnaJkg9Op2DxNE/bXlzDz8fi4+kxMXD4NarZ7P50O8zxNA/fu7/96NhZ1nAigSCViWZWN3rVaKK3VfUru3pGm6MycAUT58wO1wsJpOViMWKKVyc5Y/eHLbU3/LTKoDWb4g+aIMQ2q+pUX24IX/PWOwem7ioV5aURQUWYZl2FKyqc78msAwNGzfxHZ0hv0Wnm9jGBqqCm/fvZIAm/NLPr5/T56nmIbOyaND+v0+frtDWcJkOpUgEMuVTL2lBNO0/C5lKb0Ri7zA77To90ZYltPwyReLBXEkiT69bhfdl9uJXk8CbTqdDq5jEycpP/z4B/785z9jWRb7+/vSTiqOWa9XBMGacLNsXq/r+jx79oyT48dcX99wfn7B3lDag6Vxwmw+4fWrt7x9+wq/a/P08TGDUZ/RaMB8JlsxiehMMQwdw3TRVIM8Sjk9+8Dt1S37w4FcP4rKQbfVoswKfv+nSz59OifPIhRFDvaiTSHh2aVCFIWs1hN+ffUTUSzVeMpCxbBU/HaLjt8limLurm9QVZVws2C9NhiNh7RaLSbzGcE6ahSCs7IgyTNUFKIo5uLyUhK9PIe9vT2G/QG6qrCaTQFwfAfPNRGmimNLazG5S8+qa7hqg6vpeVYNuWtfgdqiextc4sG1uL32ak28zyL9QQBKTMLu7bb+AJ9Jmn9+6/p7uwfdznW/W13UiaL+HSFERaUX6Gma7kze8wYHsEvMqYcfQkjxzDpQ5cm+XddJ0lD1p05kVSbbZs6a/CNhtLtPvBH42MlWhqFjGDpJnj7IZrtvep2Z63/XfVzDNVD0qr0B09IxTQPD1TEtFdPVGI8HtFsmWZZyfX3OTz/9hdevXxMGCcEmxjZNDo8GjIcjXN8j2qRYrkccZWS5dBryW20enTzDNAyydOvbfnsjFWcUxWCzSUlTCQhazFdomkan1WE0GrG3t1dVFp7kxVdlabAK+PDhA//xH//BfD6n0+kQhiG+L3EbURyytz9iudTl+jEIOD5+xKOTJ/h+h7u7nzF0h+dfPGU0GjGf3vH+7Ws+fPhInIRScEP3ePJ4TH84YDa7xLAcykK2e7qhYjty0Go70lQ0CFcSvjubsahK6k6/x9HBMc+fzJnezckKh05nhO310XQXx7SJo4C8lPv52fye+WJCKaQFl66ZdLtD9kZjfK+FbhZEUUA2W7MJlyRpzOHBCSO1h6VbRGnCJpRALTk/Umh1Ouzt7bFarRBlThAEUqbd9VgHS6IgJMsSKerRy+RMRdOwKtJZnufkpUAU8mRXVV2qWbPFn5Tl1n23OfTUrcW3tKSniZP6+t7Gw8NpfJ0I1Eq5V7Db50srPQUVwUMRnW38/+PkoKgPK4P6uX6u96HX67H6hkkSN8M82MpsG6omBwi17bBaW4htH1Rtvicz2O4DyRcoT3ZZJm2n/PW8ob7t5z1NlmWVzpqkJQtkm6GqVZUh5P93b1/ft67r6KaOiobp6BiWRrvj4nQM2h2PTsdDUPDm9S+8evWKX395zfX1DYZp43kyOD3PYzT0GY/H8r6LtZxGlzAYjOh1FZ4+fc6zpy+xLIvVKiBcB0ynU8IgZj5bsZwuGY/HdDsd4jih1+lJxZher2kjyrJkNV80a83VXLoKvX79mjjcYOkG+yPpE/Dh43vCMOTZs0fYlkmgCPI0RuQFxweHHO0fksUZ68UaCrAtn+FgTLhakqY5mzBjE2VE0xUX57e8eP6Y8Xifs0/3ZFlBluWsV5JghKJRFhppLinFlCXz5Yo8zXj79jVBEDDa2+ebb77h+998z+HeIXdTuQ7Ny4IoDFjkOVpRoGKQlRlmqZBkEjyWV4Kqm3DNYnLdAMmSJMEybAzdIssSNAX8dgfX03FbUqFpNp/TH/ZYrZYomsLB8RG9eMBqvqjsxzcoihw6Z4UgTiOCTcx0Mefq6gqqa71dGbpohlnBzgWqWiLxLiVpmjS79Zprv+sSXB+iW98A0czUditc0ZTO29NZBuxnp7hSi+pI45FSSG2E+hDcnb89uN1uEtj5Wf28dhOPoiiyAmjKgmobsPtV/19OrrfBJQMQqcqrbld0zakstiIgqqJIrbqifHDC7w4cPx8o1i8CaN74+nu7YKH6frbaBOoDXQEJSrIQqsCyNTzP5vBojO2pFGXG3d0FP/zwAz/+8UfOzy9YrQI8t8Vw0Gc8HmO60p04LzXCKCcMIqbTGUIojIYHUlyiM+D58xeASrjesAlClrMFn95/5PLsnPV6jW1J96F+b9AAerb8iy0xqswzLMtCUQTz+ZTlag7VKnI4HPLy5Rfc39/z7v3bZvKcpin39/eIUmEwGPDdd7/l4OCAs7Mrzs8uiaKE5WzFm/gd93fX9DtDxuM1m01AIkLuJ7eswpUsmUdXLGcSUl0KDcN2aLUjNmFOkQuE0IjilDhK2d/fZzabcXp6Thyn+K7H4fEx/+u//i9MVwuur6+ZLpZsNhuyUkNoNiopKBp5XqBrJrqSSFg1OfFmichDVqs7uYrVDFzXl/oAaZckDun2hjh2C7/bp93uo5sKy+WaAtluaShYtgSfmY4LRUmcZKiaRbtjkaQRQRAwmc4feBMeHO0zHA4ru3a5GldKpdHpq2cDjZx2jfXXpHGnpkl1bL2sxXMflty7/5bX98O+XPyDeUHzu0JURiF/XwHsBvzuY5Xl3/sAPBxUVgmgBtZEUdSw4urBWn2CKooivdEUFUWphxwyKIWiNkG8m3G2D7x9cp8H/7YdKPhHfdTnJf7ubXe5A3WVIDcLejM4rP+2bQuno2PZOqNxF12Hq+tzXr/+lb/89BO//vKa1XyJqpjs7R0wGAzpDfr0ej3uF3cEYYAQKioOm03GYi7180cDjS+ffyVRkNMF0+mU1TJguVyyWq24v7/HNE2Oj485Ojzg6dOntPyaDRg9sALLErlW9TzJKchzCSIJgoAgCNjf3+f4+JjhcMh0OqXV8qSIh1ISJxuZpPKck5MTnjx5goLGYr7i7m5Cnhf88rdXmJZOy/NotXr8y78Mmc3v+XT1isn0msn0ju9/81sOD/cpskvSLMLMHOazJUJYLOYhaZoz6HXxXJ/lcoFre3z55deUueDm5ooo3PDDn/7AcjXn+RcvOTw8JMkznMpWO1PlhSd34SlFljf217qmShISOXmRE4QBZQnL5RLX9kiTGEs3ubm7ZTTcZ78sMDWddrcHqGimged5rFaSFjwYDunkOVmSsVgs0BTJIUFVUFQdRZVcFdt1KoGYpEKybpr5S620vNlEVaIWzWFVC6go6vY6VVUVRa03Ww8PqRqU9ncnNdIhq2gOvX+UAJRGqm4bO/zdofgg7j67j63jUp0k5G/ou+WMLFMkOEHKaxvNCy7LkpIKUaRrIAQFBaoizUFRxIPJZ81EQqkxyzGlqqMiyUVCgFBU6sVkSdnsOpvNgSKHMkKVFYQqDclRKhJHKUoMVZNw5KwS+bRMylJy8U1Tw21ZDPd6WB0N1zVRBfzx3//AD//xB969fsfFxRm5KDEslcfPH3N09BRFs/C8NuuwJAlUbLOHYbgYpkNLd9CETpYVuIZDmQim8wkfzs65vLwkqAhEpmZyeHjC8eERo9EI15caBYqgMQUty5I0S6oEJiXIiiyj3+1BqbCYLZndL2m3+ugtk+lmTTFROL+/5H4x4eTkCNdzubm+RTdNBmOfZ0+/ZNQ/AKGwmq9I1iFPnjzh6MkhQikplZLb+1tcv8PQHnF6fs7iLiJcrBiP+pw8Pubq+g5R5vLzpUTXBH7XQgibtuegFCV5smETrjk6PuB3//Q9yl9ULs8vuLq6YjVZUMQlL7/8moHXRznUsC2L5XpBJiQcex0sKPJUqt1mC4pSbpps24VcQ+iCNEjIkhiRa2RFXgWYynh/hGaV3M+vKLQCy3JxsKrWwZSuy5X0tmHkmLbFerVEqOCZOnZRYFTBrSjSYSnPJAKwyDOiTYKpb7AMU8J344isyCuIeUkYLMirzVRJPbxTKrj77kleUiqV80+SPdC6lOKzGo1sXYV8rYFtdWth1I7CCtUcbgsgUlUVzago92n2IHYeHpIqeVG7E1f2YXU7U5fv9ZqtPmU/l+faDi7KzzLRQ3PRz9cN9ZssOeU1OqpEUysnIqW+j5rGK3Xt5e00qCyca1VQUarkRYFpSTORuBoE1R6EhqGiqAK/ZaIbcHDUZTDqkRYZ6+WSP//hj/y///f/w9npR4LVmsdPTuj2eiiaSnc4Yu/wgKJUmU4WhGGE49j0en2ePH1Ot9snS1JuLq+4vr4lDCN++MtPLBYL5gupMtRut9kbjTg5OWE0GqFXO+wokqVnGErFlxq/7VqS15/FUhK80+ti2hbv37/n/PycVquF6dg4jk1Z5rx/945P7z+xCUJmkzlZkhJFCbpuMhoe8OKrL7E8l/lywd3kFsXQefzsKf/23/4rq/Wan37+CVHec35+RbfVkryBxYLlIsIyfQb9PVRVlyrHpixlNc3g8f4hhmFR5oL1Yin78jwny3PanQ7dbpubG5X5POD0/By9IoPtHxxhOw7tdpv5csEilCIgjuUiipTFckKR5SikkutuqPgdnwKBoasYehdVQJKGBJsEt+UTpdI2Lolz7iZzXKdFy+/gOC267Ra54zKbzesTjrIs8VstbMchTWXZr6hadViJSnasuoZLiQDUtQpdl8v2zHLsphrd1Z2oYyNOsoYBWHNedF1HA/Isbw7SOoB351T1Cvthi7CNH9M0yURBltU2YPUmTVYMqqqianLSn+c5ee2crGtNMkizLWlo9/71mqRTB/1uWbE7Wd8tJx7s2IVoMMtyd1kngCpRNKVKNbmvfyqkD5/SqAdvFXeFqB5DqTOkKktwVUVRy8ruSd2BUMoTtCwzbMel0/Xp9lwOD/dwXIuri4+8fv+Jv/3lb/ztl59ZzqZEm4D/8q/f8/0//44wjphMVyyDmGUQ0umNsBwL23VwbY/nz1/w7OkX6KrB7e0t69V7pvczTiuJcbmqNPjy5ReM9/cYj8f0u1LiKwxDbm+vyeKsGRrpVUaO0w2iyvxpmjIcDnFbPm/ev+Ovf/1rU/oP98YSbQdEQa2MZDf8ic0mphDw9Plz9vYPmS9XXF1csQhCLMcmShMmUwmIyYoSVTURpSxtNV2yA/NMo8wtWn4f3+uSJSq6Yko/+lyKxtqmBaaKhsJqFXB+fs7pxTnHx8e0uxK4lGUZ8+mMi4szNE2eNo8eP2XQ7WPoNo7rsbZbpGXCZr1is4lo+Sp5EZHlGaZjYnsaigZKv1UlxwwRlOQVcOr6+prb23tcp00Sp2w2KcdHjzg6egSUuK6P73tY1SExn8+lxbeioJQlhmKh6PXguVKhrtyLKaUmomzBUon/13XKvCDeRM3JvI0LeV1apik/IyEwKsTqbhzVALndQ7XW1tjFrey2v7tDxaKKkzqhNcNGIBeiud/651tOzlbubzeW68fTLctqssFuZqq/mp5BKNVQr+7VRRPYmgZ5VlTZ6O+1ABVFspLq4C6KgqLcCov8YxCQxGDLN1LFqIBIRZkhdQSE1D635JrSsqVf3NHxIcNhF8OUQ77//t//k//8zz/y4e0pl5c3QImqCUZ7I7748iknz46ZzBdcTxYEYYzbyXHzgvH+Eb7vM+qPGPSGLOZzgkXA6ekpnz59YnJ/TxRF7O/v8+zZMw4PD3n06FHzYYbhhslkghBCmocUWeM1oKoKmgpZmrFep83JkWUZ09mM27s7lmFAKUpM18FwbGxdVlqDwYCyLFmupHtvIcAwbR4//4IXX37N2dkZHz+e4zkuRZoRBAHr5ZqbmxvyskSUCpppMBgMUETB3t6AYLVPkUOeyWTQ6XTI8wJVMaEsWK8W2DOb3O9h2y6lopKXgtliSRiHmKbJeDzkqCyxHJtXv/zK3d2EohC4to2pG3QHI3RNp+35clVaZKw0k/VqxTzJCYI1cRKi2Q6ma2GqGoaqECcBOipWUVAIhazImd0tiDcR/d4Y329LJ6flDMuymUzuaLe77O0f4rg2oNIpOyzCADIN3TTQhI5W6DiqilHzBSokI+XDVbMwzaoS2A7HNU3D0EzZu1eIwM/Rq2UupMfBZ1ux3Q3XwyH3wy3AbpJQFAXFeHhIi2o4uBunu89bQ76Woigo8xy9st/7uwSwO5z4RyVIkwTKh/3FduquNd/f/XmtuacgKlyAQu2q84CtV1UK9VBFVFWErABqE1GpKSgopCusWlZCm7Kk2euNcVyL8XiMbehcXV1xc3vF69ev+fHHP3FxdkkUxRzuH+F4NrPZFNd1WQUb1usQ07BxvRb9volre3TbPfr9odRnb3W5u7nl7MNH3r15y/XtDaZp0um1+ea7r3ny+BkHBwf0ul052FsFjTZCvInIyxKrMqEUQjRT53poads2+3sjCkXq3ReixHEtnjx7jG3bHB4f0Rl0sEwJyCpFShBtiNKYeLVCVRWOHz/mxYsXpFHKq1evePvLG1klCdlaxNGGNE5QTA3D1Oh0pP71/n3wAAAgAElEQVS/55goasr56SfSPCVJYsbdPoN+m+VyiahWvlEUsJhNEbkg98vmM8+yjHUgK4u276MpCmUBw+GY2WzBfD7n48eP6JrJONrQ6faxXAdTUVENk16nSzzc4/5uynS6QFEEeWagqy1ykRDEa6JQkpILNGzHI4kS6epk2hRC4laGox4d30YlY75a8unTR45n97x48RLXa9HuuKiGzlwsiCsj17yskKhlKQfGmonhWihVQIq8aMRgkiRBYVv2y4u3WgNWtuFJ5eqUxBnrVYiqS0/Fehhd9/+791EL8OwqbNfo293BXlmWqKWcVdS3q1vvukVQlMo+Pa0twfQHAV+bkwoBZVFW00Zlaw22O4H/vAepn7gc7Ck7AS7vR0H2IPWF8XD1UTQXfn1/jQeB/Eb1u3XJBPWKogZYaJqOZUmxEt3QUJQClBzbbtEftBkOh8hdbcqf//wXfv75Z16/fs35+TlZmqJpOv/t3/43vv32W1bBmnfv3nI7uyNYZ3w8vcbQTb588Q2O3QZFx7FbxJuE9WzFh9fvuby4YHpzx+T2Dsf3eHzyiC9evuDx48eYhpQnW8yX3N/fkyWJ/ICFZBaqIpenriYHO6I6hRU0DF2n1WpxcnJCEEeVW64UMfnixTOGwyFG5VVnGprU0GucbnLKrMDxbIbdIcPukDJXEAXYpiOFH4qSlu1iqTq2a+O1PTJSCjLSPGtKR9M0KcqEOFmh6X1cT+7ds6yo9BE0sjxBFHKGoyomaZbQarUwNJlkyrJkOBizCjaYrsdgOGYxm3N2dUmSZTwKV5w8fsRob4zr+ygoGIbO/viANM6IooQ0z3CtNobuAzpFFhEGOYooMQwF0zBotx0sy6FIswrjoaGbCrZnY1g65kYh3qw4/fgW29R5/Pgptq7R63hoimC1rLgSmZAux1EkkYy2J4NJ19A1A1FfjyqYtkWeJagK6OrD3bqASmlXpxQKWZERpwmksvROi7wxkKlnbPXWSlGUBuaeJGkTErt6GFkl9aVbWwNeqEt8ybrNsgRT08niytVI11EUu6qs64pbJo1SlJRC4nQpK2OQXdDALg23PqV3K4G6l/kctKPsJAbYljz1feXVkE9Ttye9bC3KynTk4X3JqqFeHYKhgeNY6JZE8DmOzXhviOdZ3N/fc3V1xV//+ld+/ulnoiji7k5qyjm2yVdffcX/+X/973z55Zd8/HTGYrUgzFIUxSJLNFRMXNvn8OCYNCn4+edXXJ9fM53OWAcLTN1A0wy+/fY3PHku3XsHe2OKomicbDfBhryqbkQhmYa19VNRZlWmL8gr00bf8SslJkl6WS+W3N/cEqYbjo6O6HRamKaOYqgkaUS4Srm/umFyfc/sfkqWyRNnNBhzsHfIYDBiEySoqs5oNGbQ7zG7va9QiHJP7bo23bKNosjy/fZmymwyI00zFFWizTRNTq2jzYZNKINeiq70cUyfLL9HlAYFgiePHpGmEXEUsZjN6XcHDIdjzs+usF2PLhAEK25ubkAp0VUJkNlXNQzHRgiNluvxzZdf4zotJrOppPUaOppq0W2pUOpkyQZNLSTF1zRwXYPcrGzYRUGcxWRFippLZmqn66OrGsvFhHvHoshS2p0+Hc/DNg3pphOnqIVgoUpQV5rIU7esePmqqLQGNYnrz6vTVtO3XBPdMNAs+0FVaxk6ju81CWL31FcUpVq1m00fXx+suzFVzxnq1liqANGI6tQxahgGGopUttK2Yrlb0Z0t8rael30eu/rnU/uH5X0VlEKpNPqVHahj9buFoCwzSaoRkkwkf15P92V5U++269JXOt1uNw1qVT3Ue1WFrU+frqtYpiaJOuNepbOmk2UZf/rhR3766Scuzy+4u7tDQ6Hf7/M//+t/IUkS/vrTTziOjWGaeL5fDZlcTk6e0u30pQGnabKeh7xfv+PD21P+8pdfCIONFB3ZH/PF02c8evSYw/0jFEOW4qvVWu7ol6tqAConynI2AqoqEGVGmpfkeSn934VClqRNn2baVrO2urg84/TsI4O9Ia2WB0iKdLAIiVYBq8mC5WTG/H7CZrXGsHTG+2OOj485OXlMmuYEYShnMZrKYDhC5CXrMEDVNcIwotUv8f02mzjh8uIVnz5+5PrinNn9BV9/+4SiyFBQmiGYVEWWVlL9fp80i1mFIe3WkNFoj06rTRCumNzdSpJSf0in3WU43mMTJ4SmiWqoiDJnPplyZZhklYLNwckjDMMi3aTYlsfLly/pTqZMZveggZ7pmIbGaDBgvZqziRakcUycSH/DspK5zFNZcXmOg2505IxIK+kPhhi6znIxJQoDkiSh2x3QarcZDXrEaY7rSOffOE5Jk3wbyAIUXQFNbqXKsiQXpWSXaipqPXBTVfSSJqDTNEXAViVIlXDqIsspRdGc+rquN9TjWuTTsrZ2XfXBW1cOSZKwCpfNfdYApjRNsXSjaQV2B/r1/WiqKinydQL7bNCv11PDWvsPeHAnNQinqPjQavWzcgfLX2cl2d8mld6ZfDKmZTT9YpZl1e1koNS/t50/SB6/aZjohmwBXNfEb7nYjsJwPMDxXM4uz7n85ZI3r97w+udfCBZS4rrT8umN+nz11Uv+6//xbxKvvp5xfX3N3968IkgSJnf3ZKmUZ9ob7TEYDLi9vef6Sl7EFxdX1eT6hJcvvuTx48e0Wh3aHY/NZkO4WLBerxvB0aLSaBOF7CVRpGCjUlaCk0lKEIZkRUqn36vsmgt0TaHbaWFZGqenp1ycf6DlW7Q9HYoN0eoORVFYLldcX1+zXq4Iw4hwE6KZJrbns3dwwpPjZ2RxRhCsuL+5Id6s0XWddbhEc3T6ewNWccBkcYPfc+gO+ixmU86vPjGd3zCb3pDnKXmpoqgWJQrj8ZjeaMzHj5fEacz+4T5+x2UTLUDX6I1NTp72abkdri5TfvlFmnD0ByOetjvs7Y0QomB672AYDjoWk8Utt8sluQq6ZWJZDp1OT5bQSYoeb+i6NqKiICtoZIUBChyMT0jyPlEUNjZsm82G2WxGnoOu26SZRrgpEaiopgU6aLZOXobMgzWLeM5ws89efkinPcDzO3R6cm4znSykelViSk3AAihzTF0nSwv5d1lvxCDLUnTNwHEsUEoMXZFldXV6K4qCIhSp669JGnicSnvzQgGkhIgEJWk6qgJZpVgkEJSqrDqiLEErNRRVJoQ8SUHXyROpjVhoGqWRVyrOW6Dd51W8pm+Nd+uBc226o++uFBrAz2eTwt2MUp/89dfu7ECWHg9nCYqioekaui4riizNqXEBu0/WceQ2QtUEfsvBsmVvOhh0abU92r5NWRb8j9//f/z444+8ffOeu+s7sixjb7THV199TbfbIS9SfM8hWCzJophhp8fifsrV6SXLiVQR3oQpqm4yny8pCsHlxXUjif3b73/H4cExR0dHjMfSQGSz2XB7eyvNLyvNtpr+aahbclT9XqZpilIlRl3X8T2PtDAwNb06VQQnj54wHA55/eZvXF5f0e50sWxZ7ayDJfPVvMEOzOdzQMUwTBzTQlNNOn6LUX9AGIbE8ZwsSyRJqJLK6rTbZFlGGAQ4iiIxCEGAakjlpH6/jyhysnDD/W1MkUvpKSEUDNNiNBzj+C3SIsewLMqCyhhFVJ+Xg+u6pFnC3d0Ny3XA3v4h48MjWq0W6/WaeCPnPlkS0hEd0jTm5uYOXTXodfpoiopmmBS5QHfk6dvyHBzLIEoTVqsVm/WasAxpdT267W6D4JvNZrT8e65vLijLkjiVB88yWCPyDFGmWJaJrkIUSX7LbbUVGQ33GQ72OTg4ZDDoYJo69/cKcSS1+OI4hUIejJYjK1eTyochyUiSlDCPCYINtm02llz1IFzTNBTq60EejKq23bDVq/Q6dmohz92v+hAuy7Kh0YvKrEfXddr15xuGJElCv99vkk89SKwfpyxLNNN6EM91taN/jrvfHQLusu52scXyBvIUryGJul5LFqmNbHd9WznUAEM30SuDEKmntpUwVjUFx7EwTR3b0XE9i+Gwz7DXI85jlsGC//z33/OHP/4Hpx8/cXNzQ6vVwR8O+Oq7b/nut79B13Xubq+4mUwpyjeVRFhOu92DEsJVTJTEZGmJYai8f/Mev92VpJzBkMPDQ0ZDycoTqso6DFnMV0RhSJJsCIOgIS4lGzk8wpQnuqaokjjDVsQEwDJNOp0Oaa2gpGhytz8cMp/PuZtMmC7m+L7D0xdPSJKQ8/NzgnDZzDH6/SGuaWPbPoPuAFUxpBBqu02eZbz+9RVRHDZmIcPhkOPjY96/f89ms8G27WpIlBAFIb7jcnJ0zKOjQ1xVYzWbygpM1dAUk0JoOF6bXn9Emsuptq5rGLoqB11JwmYTULtCdXpd8lIwnc6ZTCacnDzC81osZkuppKyZlFmJyBWKLJeeBqsFvufIxFnkREGKyAsEJbpm0LJdHN1kioQDzydLNE2j1e3Q74/o9Ubs7R3R6fVZr5dSc2A9Z7UMmNxdYdk6w0EP19bx3BZlWbJeJ8TxhsV0wpn7kb2rfR49eiL/nIxZLNZEm4z1akOSJMRxQQkyATabqQzTtBvGZhxLP4VW238QRzLYJOlNCIGiSRHcesC326PXsVbHSn1w1NeR/L9DspGCp7UvRm1lXqsF1/Fazxbq6l3X9YZsVD9urVWo75bwu1mpfhHbF6RRI/TqRFEDfeoXVA8+tuYh2xdV30a6nqjN9/RK689vOfi+S6/fwrQ02h0H09R5f/Yr5+eXvPv0kbev3lIWGa1OG8My8VodOoMhB09OcPo9NBS6SkF4mvLrh49QyBVOnoPreBiqTilUEAWmbdPvD9nfP2Q0Gklzjm6XUgiCIGC5XFWiphK6mmeSFVn7xtfS5M2HZtsomuz3Prc6L4VohjAnj44ZDAbcz+7l1qBI0QwVr+WjaKAZOmEcMplMpPx4EpEnKWZnQH8wqmSmffZGYxzbZnI/Yz6fy4DyfWkSWeHGF4sFaZLTaUtsuxSrLOj1O5iOjaDgqvVJbmUKKY+W5QVBsGHQH3F4cszt7Q1XtzegFHiujWlZxHHEze21TK69Nt/97js+vD8jz2Fyf0+v00NXFWlmoULYcrm8StgEIY7roQiV9WLJsNeHQhp0CAWiTSkl1lwf35cuvb7joaESxlJg9ubihuvza7xuuwpIE9/rMhz1WVQuQ+tQVg9pnDAc9SkL6HQ6KEpBkkSslvfEWcr7D695//EV3337PS9ffEmn28FxClzXZrVakSQmaZqTpXkVI5KgpGlUOpkOZZk2q9169VYUBYWo6MRaLYMvB60K23ip424XSVtDdDVVlVr/WYYC2IZOvqOZUV9fdqUGXc8d4lgqGNWtdX2N7up+1GpYmqbJBFAH9S4QaBdU8Hk1sNsC1C7ANWtw98XVe04Z7DXeIG8evEk0Kniew/7BEM+38VyLJNvwxz/9nj/+8Q9c3VwSZ5Lo0vFcoiBE10yEqqJZNiCx/8ePHnFzpXB1cUleFiwX0mLadVuUQkWzXPqtPuPRPr7v0+8P8Csl46KUQ68oks7BeZI3UFBdVUmznDxJ2WRb+Gdd7uu63kiWJzs73TorCyExDJJt5rFYzLi+vaEsc3zf5/nzZ3i+RZJErIMFcSzFVNsdn7LwEagUhXzPLcvhyZMntDxfsvyWSzzPk8o4uo7l2GSFPGXDMGQdBhwcHcpqobpofNdD0TXevX7DZHLXvBZ5WphEmxjdMjk+OeH9+3dMZ9J2LE0iPM9jE66ZT0yyOGW4f8T+4QHhJmU6kSSo1WpVyXg7pJrKYNBnb2+Py/SCoiiIopC7uztsW1ZHruuSo2AYUIiSKAq3gy3DpO372J5sEafzGaenp1zd3jCZTEjzjOfPn3NyckL/eZ80ydBVg/vJNUm0IY4KyiJCM6Tak8hyLM+ijErWqzUXFzHT6ZSrqwt+8933jMdjRnsDWm2byWTOZrNhQ4lhOKRpTlmJeIJsW4uiig9NqQJLqgiVZYkoS9JUHoimpTXiOnUg1odmrVpdV4/1V32y53mOKhwMw6oGgFkDq9c0Q9qsa1KrQxKtqP7UpCQhnavq9lTZsdQDmtN4N9h3E4KoFv5it8RRpcPobkugaRq6ajyoIiRCWEURldhmU/ZXfoKawPMsjo4P6Pc7RPGaT2cf+emnH/jPP/ye2eyeOI55+fVznjw6xHUMwtAlSwvJW88FRRIzv7umTKSSzOXpGbOZVI7pdHq4ls1xVer5Xptut1eZJCqs10uiVUQcbWT2rExNG+53NQmuYbz18K+2JKszeB3wtclqu+U35iRZkUt48GBInKXMlgvCzRLT1BkMu2i6YLmcE24Cbm+vWa+XlEKRYhmahoLOchUwGikcnTymNxgQLAPmiwVxspGDKEuaptaSa5quk+U5YRxJ2GtWkuUZuZBJJwwDrq4uubu9ZrmY8eTZY5n4K5pqnsd0um0Oj8bc3ZwRhmsUZLJcLBYIVLIsx3Bc+r0xg/GIOMobheO270tjFRVcBM9fvMD3fc7OPhKs10zmM1RDx/ZcXE0lDiOyrJDkllJpDpEoDhEUOC234nwcYhgGlxfXzCdTVosV8SZmMVtjaDa//e0/8+TJM2bTe87Pz6TWYBZTlBpFoaHpJr7l0Gn3cOxVZbG25qc//8Dk9o6vvvqGL754wcnJCfbhiMV6RbRJCYOMMIzIs6Ii4kjMfxjK16uoVDt9vUmkAEkSE4Yhnu/iOM6DaqHe9deGt7txAzQYjTpYdwE+9e/Xsfp5a1Fv2+qf10O/ukKvqwC9RiJ9Xv7XlUGDD/iMflj/2V0j1isOWfKIB4MITdUlmaRaI9Yio55nMd4b0m77XN9ccn19ye9//z/4688/Shw6kuKLUAmCgCitEU0K3eGINMq4OL/h9OMZi8WK+UIKXqCpHB894cnJYw72T3j27Asc20OpjCTmC2mgEYVB5Zcu2VQFBaVSkhdxRVYyWK/k9LksaRKBTGIPadP1B1WvPVstKfHt+z6dfg+0XXUlge972JbGze0ls9mE5WpOuNlIUEmZsgkTSgUUDMbjLs9ffsnh8RH391MWs2XlUJQTJwlZRen22x6dXhdUnbSQ+vZJmjKZz5hO7/FaLnsH46onXks9wSRB1xRc2yYvUu7ub5mvQ54++4IXL57x/u0vrGcpvu/jOTZpHBFFYbXV0MnF9vWG4Yb7m3t812XYH6DoksXW7rRwXBtVFZyfnbFYTJppvue1UFWVxWKBosoBV33B5llCKQSFAqYlW5knj1u0Wz1GozFXV3JrM72fSHjwULo0DQYjDo8e8/jZFywWM5I4ZLmakgQ5pchwTKk1UOQKppoShiEfPnxgMZ/y6eNb/vl/+he+/fY3DPst8pZgagYIIY1YdUNr2t/6817M5xXyz6h8/jyJAjS0CrymNAG62ybXA7t6ir+rcbnrb6CK7XVmWVYziK6DfTeO62uxbjHyPKdMtjFa37+maTIB7O78H+D4d77qQN5VMtklL2zZUXVgbIcOuq6jKVud8pry6HkOw2Gf8d6QX3/9hbfvXvPu3Rt+/fVvrINVpZRjYtoW82WAPlngtf2qElEhTFhOVlxfTZhMJiymazA0Bv0xX3z1kq+/+g3Hx49o+220UrCYz8lS6Xa02cTV85VDlrJaw5QiJ07iBpt/O52QpwWGapAlOcWOaGqeyxWM7/t0u13u7+95/fo1lmUxGo0abzjDMFA1DU3XmU1vWQdL2m0fv+UShUuWsylX1xfE8YbBaIjjONzPpDd8npc4douvvv6Wx0+fEGxi5vM5YShddNJUagou8wTbtbAcB9t1KYQsp9ebUOoSWDqbYE23L92UPE+WxGWZS3h1VRaWRcbN5QVvPnxif3+fFy+f8+qXR5yXNG1d3XPW14UQAs0wJGvRstmsNyznCzzHRbWqqXMmuRD7R/vEyYbNZkWcJFzf3IGi0en1KRFksXzvi1KqPEs/x4IgjDCzkizL8TxPeul5Ps+fPuPu7o7ZYkaWpLx5/ZqiKHB8h5OTE15+9Q26Cj///BepoVgErNchkzik0+riui5xoTDsu6yDJdPplNlsws3NFfd3N/zTP/0Tw8E+R8f7WJbFdKqTJmU1RCskkSrPG8swRd1e4/VhKESBbUuCkGVZTYVZx0att7mdF2yBQLvQ+7o9r3UyP7cFq9vq+nFr1mlZlhSIBpZcJwAAvSgFKCpFqZAXJbDt/0WlHIqi7AB7dnkCu5sD0bj8yOmjLPNlhswpRFpdbBaeL8vnfl9aKf/pjz/wt19/5vzilNvJHabnsd/vkCQxqKCYKpsi4er2kn7cp9frk+c5v3x6xXK+BKGj2x5f/uYp4+GIp09f8OjRI1q+1NyPVmsmkwllUUg9uCyjSHMJa1aQCD5FUpKzPCONc+IoJY8T4lWAomgkZYRQNHRFbcoyqb7r0uv1sSyL29s73n54z/7+PidJLHHvphTxNDSV8/NzFqs5tmth2iazxVTOAyZ3XF1f47ek+Oag38dzu0wmC1B1Hp085Ytnz0mimMV0znopgS1plKCqBq2Wh+N7EmHYdtBNgyLJ2IQJ4Txh/f/T9WZNkiRZdt6narvv7rEvudZeWV1d1d0DYAiAeKEIyVeSIIX/Br+KL4QISQiJmcEQbE5Pd3UtmVlZmRm7h++2m6nyQU3NPbKHIZJSkVkeHm5mqlfvPffcc/opbqAY7fcYHY4gMPwE4UmUdJBhh1JoMqHRXkChYLPZkCcxo8ennJ+d8fqX1ySbe/xAIB1NkccU2YaiLoioUarEC1w63YhsE7OcLzja26fT7bPBIV6vcP2AKOhxcHhOkplyoaoFmzjH9c0odZHlpMmGIvcaO3CXbtdHUJAnGQ4dkrokk8anz4lCTs9O6PWN/HpexPzxjz+QJAmvv/+Ri7cX9AZdbqdX7O0bs5TXL1+R5yXa8SiExOn3EI5gNOhSCk28XHB9fc2//1//F2azS37zu2/ZPz5hfHBIf7jP7D5muRBkqSIMBJ3OgDReNhu3bFL/kiItcF0P3wmoqqL1tTB6g067b6wgrz187frazczzOmu+d8hKk50Kd6uOJVoR3YAaTa1qcIxQiiclSgryssTTzoPywzWMvL/0DbMcfpsq7I4Ef9gJsAFjd67AIpD2PcIwwHF9Dvb32xOkqhS///3v+emnn9CUHB8ecnZ+TBi63M6nTKe3rOI5lSoRtUQKhyRJUfWSoihYLWMCv8v+3hHPnz3j6ZOPOTw8xPMC8jhnPjXCG1lqxjil3qbwrtwqG9lMxToGl3lBWebUeUPt1QrHcymqGsfZ1qeWyATw+vVr3r59azwFRiM8z6Hbjdg72KfX6/Hq1Q/c3d8yHPWJopDVesF0es3t3RXX15d4vjkdlK5M+7JW9IdDTk7OeXT+DN/x2Sw3LOcL4niNrjRGoNKAT4Nen7Is8X1L7MooS+uDV/H42TnHZ4eMR5OGtFW2C8xYgfntqXB+fk6SFCglybOK46NzOkGPd9czel6HaL+LEB5pYgEp0yWyhplJaNpki9WKaGhq3yjKqCpDOOt2uzx79sxkMqtlS6lO05QoCJuTrqKqYL1eI4Sg0wsaqTTRgKtNxrle0e12W8fdTi8iDEN+/tkYrfyH/+1/xw18njw75+zknBdfvODj559ycfGeoiiIel2WyyV30xtUVXP26ClT75rZ9JpNEvMf/+bvWCyXfPzFJ3z22QseP3pmpk09j806b+9BnrtGHk80VN3U1vrNWteCsjRgtVKqrdHtaW7/zZ7y9llYvonr+m2WbfekXbv22Zky4KFhifXL1EDpbsuG5XJJlmW4AmPUWevywYa1pf2u9NaHrcJdDoFFMncZSRblDIIAPwoZj8cMuj2KoiBLE169esWb1z8ipWQ4GfLll18w2uvz3Z//kbvFHUpX1HVFFHVMVE1KhHIIfYe90REfPzvg9OSMyeSQw30juZ1tMqb3UzZrK9zZGCUqTdVEvbqu0Y4NdOaa8jSnyHPyNENrTZFlLBYLPMfMh+elSdnCMCQMQ6R0GwJHxc3NNdPpHb1el+Fk1KLS4/GYwWjImzevefXmZzPF6A9BFCTxgvv7K5LVnNCVKOniSuOfsFiscL0up6cnHB6dsb9/aIQ7ru+aQaASR7g4ovFNrLYEEMvqNMHAJ+qGdPsdhoMJp6eP8UOP+XLKYrEyC8D1cZx8y9dQcHb2iLKQ3N3OkGiOjo558vg5b169Jd7ksO/iSA+lNKqsqMuKqNOlUBWO69IfDsiKnNvpHd3JgMl4j6yoWa02bbmhtebstMuq3+Xt27cUWWJSf7duF30Yhgitub68oDPocH7+2HRcshTbX6+xz7RsOjtGy/HJkydcX1/z3Xffc3Fxgapd0qSmzOHxo4853j8168I32MOrn1+SxBuUqkjWG2Yzl7KqSdKUVz+/IStTVvMV6SbmxZdfc3QwwfOWeEHB7U2KH7mUhaDMS8qiYpOkJEmC1qYFiRbtc7Fl0xYvq9sDyNbs9pC0+8nznC0HpWGf7nbmZDtjsz3QLNBXlmUrfrp74NV1bYaBtNaUhTHk1NQN0mipj8bB13W9v2gB7n7ZVGR3tt+mMlEUMWlq2/ViyWw2Y7mYM5vNWmXc3rBDv9/nl3cX/PDTa6azOdP7paldQp9OGDLsdzg9PeXpk485Ozljb+8Iz3FJ4oI8zllM18zvZ8RxjNDbWQQThMJmkMlMMRaFGaYRDTU3STbGbKK5xtXKbJDOaGzwgKJso3UYhs3sgzGdiOO45RFMDiacnJwwmYwIgoC7uxtev37Jze0lw1GXshyQxCmL5S1VnhL4As8NyJtFkRYlntsh7HQZDPeYjA8RuMTLOcnaCIi4jkNufRD9ENCmdVlVRF3zkIu6wo9Cut2oqf0cirxiHa+4vL7k/v6eqlI4jpmytOIWVaWoSnCdkMV8Q7LZsLe3x7MnT/l9r0ulSooqp+sYQE9QI3SJ42iijtQvjBsAACAASURBVAd0UErjLpds0pTVcs2gP27akIqyzB8QVHq9AQcHR8TxmiDqttN3oe/R6URUZUm1LLi+XBIFIQcHRzhSohrqOLVCVzVxHJvNEmNUmY5OGI/3ePToCa9e/szlzTVlXvLm5RsufrlohVD8ToTvh3z++ZdkWcKbn18jPZ9KaGoJ/dGQqjKiq8km5n5mdCC+/Oprev0OSE1V9bmdLnEbqbusKBv+iDKCF1KiigpVa6OODQ0OktDr9drDcpfEs4v4W+DY9/0Hat12VN5mchZ7sK1FKSXz+ZzFYmFwk8HAjDs3ASYIAjMObDesmV7zmpR/B8Hf7dnvpP8ffln00QIY3W63tQgPo5BffnnDm1evub6+RqB4+vQpo9GI6+tr5qs5f/7zD/z05qXReXcEw/4hw8mQ89NTDg+OOT485mB/n17XbK40KZle3xPHCXXjIZisE/IsB6HaACClNP4kTc2vlEJL0VhA00ZmIQS6qlktTYkxGAzoDfpmw1dbUMYGNbvpDKDZpd/vMzmYmIyhYWjd3FyxWi/Ii5huNCaMPN7/8iPXFxcMBz083zeTaGVJnhmXm0F/xGh8yMnxI/q9EbPpPYvZwpQnzUhokhi22tBr0sc4aUkeoFBlhSvB9z20NotqPp+TZDHz2bIRunQeAHom5axZrzdMpzPu7+eMhoayfXA4Ye9ozP3tNXG6ZDjqgHDJi5iiTAnKDITED1xc0SdJRi2N+eDggNFoQp7nzOdZm/ra9XV4eEiSdJr7WT7oU1dVgec5qKRiuVw2FFhN1tip2bVYVcYHwLDcCib75oQdj/b4zW/GnF7fmOGmquT29pb54p4sy9g/OuSrr75i72hsRGBnPWpH4/gOXhQgI2kcpbRmtVmTFTmb9b/nbnbH17/6DZ3uiP2DEZ7nM71bEVdGwdnwHVK6negBv8a29rIsY7NeoWqN7wWIQLSdDxsg7fdxHLNeLynLsulw7JlBqoaP8E9RjAWNSY4ycztlWZJlWTN6nG+pwG0dETxsY2ld76T6GsfhwYf6MBjYyGMfntVGK4qCzWbD5e0Fr1694vLde9brNePxmEdPHlNrxd39lOl8htaaweCA4+MOewcTHj9+zN7eHsdHR/iuR+j5lKVpxczvDOkkSww4Ytp0ilqZ1qEU2zqpLCt03fjFaYvSmgWYJEanz0HgCskqW5FmMcOBObVMC9NjMDAIat2IL+7iAFFkWIudjkHV67pEOpDEiVEKXq3wPIeiyLi7u2G9XlGUGUXhEgR9XN9hfb8gTkrC/h7jyQGPnzxn/+CQeJ0wmy3YJDFpmpmTwPMQQuO6Es+V1FVBUVdGztp1kTvMr8B38T2XWpXkhdFPHAwGCFlTVyV7ewfUjYZcUZipuDwzm2S1WvHo/IBOp4Nwa45PTri9vWKxXnF4tM8oGgOKIkvZOCtcJyTwe/jdDp1ORFbkXF9fs7e3x/5kQui7Rshlx1RDIxqbLyN0mcSxGaeuDQuuLnJUWZlDJAwb/CLjfjojDDdM9g7aEgDACw0D7u7mtkHdI7rdLnuTMb7XELakkRi5vLzk4u07umGEdJ8z2TeOTIPRkIPqmNXSJ46XSN8j8qNG4AUub67Z/E3G7H7Fs2cfc3L0mL2DYxzpcSfnZGnJ/v7E8AaqAqRoSq2tzd5gMHjAs7Gb3tbu2zkBietKisJMoDqOx3A4bg/l3RkCKSV11XgUSJONW5cpXVfbw3nHX8A1fXbnQc2xq3v2IV/ZRlu7CUyA2KqY7IKG1j3m8vKSt2/fti2Jfm/EcLxPXirKWnP26AmPn3/UptG2lrMnU1WUJJuMZb5s1XaSJG7fb3f2wLZWbGBSSjV6ohJdg27ERcuqIklTknRDmRf4vqktVVUz7A/odPvtkEaWZXih0SEslWrGN/M28NleP9CmXkVhMIT1ZolSBoNYzObEmxWqUnTCCN8NEI7LbHbPbL6iUg5+0OX5x59wtH9OvE5YzObUhbm+qjlBwLT4dh+8J72WnCSEoCwyiizFdyXdMCAMXcO9cD2EA7Uys/5HR0dsNhvCsGO89jSG/lqWDId99vb2DE8g6HJ6/ozvv3/JYjlntUk5Pg2M5Regq5osSwj8Dp1uSNQJqMqC+XzOyfSQ4sljHEe2J78WtM/NTEeakjNLiyaA1azLGEnDePMchDRr0+j2OyRJQtRJ6fV67bqtM93+DjvCXpYlvmOepeM6PHr0yHgzDMbc399zezMl7IbkZYFyNEcnZzi+6V4palwpcIKQXjMDUOGwXG3427/7v3n7yxVffP4Vn35a8uSxcYa6vLglTox6Va09QFDrLeHHlKSm9Khrk/GgaTfvdvBO4DgGyFOKhuodtNdq9x6A3+hkoqv2/9uOQq/TMZkwgqzIiaIILzRcAteIbmxTeKswsis3tNuS2I7uPuwG2P6kfY2dZFsul6zXa0YDM8e/d7DPcDik2+/T6XSIeiGDwQDP99shBykleW42UJqm6Fqj0hyUoKwtPXJLfjBgliEfOY6HUUFRrZpK4G3lmKVvgJM4T1uVoiAwNFxbO1kmXV3XVFpRlAV+w+DK4qS5L2Gb7XQ6nXbB2cV4dXXV6Pf3SZKY9xfXBL6D70rSeIMjNSkpcZZTFCWu36Ebdvnixdc8e/oR8/maWdPFMKahAUulqHSJUJqiyJrnUjReDibwCGUsoHVltOCCIKDbi4iiiLDbMVTbxm+gyM1iCMPQLIrm2n3fb5D7AM83mE4U9nn86GPGk3/k6uaWm9sFp2c5rhOiVUFerPFcm+6a+zgc9smyhKLIGoNOnyD00SiKRsY9iqKmpWo6NTUaVTVDMwjSzExpaqXI0wxnIkA7jEYjg1c0XAjb/dgufKMHmCTGUcmJOqhKMZ8vGI1GPHv6nJNj87nu7qfMVsbTIRr36A8m3EyvWMUJVakQriQSDn4Y4LgBql6xySqS5Ya3xVui5tkNe0MGozHj8RCFafHVaOqiNvr/H9T49ssCfRZD253Zt0zBo6OjLYCttz4Ydt/af/tQXzPLMlxprPpMJt9wD+rKMl0FdVVSamgmeY1Mc7P5hetQKUUljKqPIyTCdRB1I2mMMC5GSqOKEscOJrgestMlCkJOj0/wok57uttaVSlFWeVmgCbNiefLNvuwRJu6rhEao0egdicVTQJpU3BTD4mW/GBvlOd5Rr/NKY2fgONQNu9t6mXftN1yDTi4no8X9Vq2lVuX9PtGQ8/M+5sI63oGSIxCY9DR7fYZj/dwHIc///nPvLt4Q6cbEkqfXj/EDR3ibIMSPnGVMJ9N8byAqNPD97r0h0O+/fW/4NdffkO2Kbm/mVIkKVkcI4UmyWK8UCC0T7JaI6VL6IftSdGJAtDGXVdKF1VpsiTFly69TkS3FxJ2Q3RVc3t5QbpcUxQ5FRqv41MLkK6DFwaGrppnDDp9slXFaprghxFPnp7x6SdPePXyO7J0zWJ+j0AZHX0/5PjojLqIUYWHUgVPnz/DC3w2ScZivWB/PMGTDiUCrWp8z6Uqa0I/QFU1nusz7A1NKSo0cRwTZyV1nVHXJRqP4aig1zOHRVmWyLKkrjKyukG9EahaoQpzSGitScsCHInn+7ieY0hmsRE/7fT6nJydczu/BRROKLmfXUNaIIqCbL2ATkTqOVSYkzUuS+KiJugO8fyIxTLj3bsL5vcLPnr+lC++eEEUToy0fBqw3qRksjBtZNkxmQ8mGxKYNb1JzKSpJ+ycjAE5pZbURU1VpQ9KBsv4swem7eA5rvHzaOnsEipdUxZ5AyBKijxDYNS53N2aY7eesFFIKI2uajNIprfmhaJZeLbWtjHHlgcG4e3hNyeKkgb8EFqTxjFx067KsuQBfwD1kInYMhMbgsWHQ0lKbd2FbPTcbV3uchvsNe2OSu72X81UogHz7KmeJBusaWpVVQwaW3CadNx1DDVzb88oC/3hT3/gz3/+k9G373eoagMw9qIOUitG4wFlWVHkirLIKUvB4eGQX339W373u9/hui5X17ckSUyWJmgqHEwd6DVprGXjeY7b3uvd7MzzPGMl1WzqJEtxF8v2tMiyjPl8BsBiMyNJkjZ7s2h6mqak66QJtAonEnx68AlfvfgV//iHP3J9c8HN9Z3puNSCycE+WZawSdZoGgvusMcvb96xXhlQcTKcEHY7VFqR5kWb8trnaqnGWmvyNCOTRftZ8jJDOJKo20FhUtv2Gh3ZpsBVVaGhdb+162q5MnwBO7+xXBptCC8IiLodTo6Oka4g7AR4juBt9zVRODSEsLImTjNEWppMJK+YDMeMBnuMx3v4wuXl6zfUZcnl5SWbOOfrb35tFJznK2ql0UJQVSkKI4XfKgg1IPVu3b/LuWn3hdhucruud2dRttjdVtNj97V2VNxK72nVcHz+u//h3/47rTWO3BoXAK27aMs0auoU+yV0Yx4izaayY4y7FwJGMNFMNRXkzex0HMfNpJYh6eRZbmzF2bYTUfX231TdRvPdz2gFF2zG8OFghPks5sYICa5jRprrqoIGw5DC6Bd2uh2GwwHD0Yio00EDmzhmE6/RaMpCEUXd5ncIJJIgMJwAYyDa4YcfvudPf/4jVV3QH/YYjfsURcZyNSNJYnq9Lp1u1GQeDnGSE0U9Pnr+Kb/+9e/YmxyRZwX30xlZnKC0Qoga13dQdU2WJFRlaYJua57SEJMaE4hO12Rat9Mp7y8ucByHzWbNKlmDUBR5yS+/vGE2n1LVJXfTO4QQnD96wosXv0IgKLKS6d0dl+8vcV2HMAwIg5DRaIIMXO7u77ibTrm/vyOJV+zvjRkNh1R1RVGW5FUFwkErWC5WXF9ds9nEnJ0/Ym9vn7qqKYqKoigpywopzXNxHBfPNeWM67kEYQjaoOBplrYz7La2tYHPBGLvQQlgU2FDUjKSWFVVNSazoGvjjlPXFVmSkBeF6RS5MOgP6A6G9Adj+sMRRVE3WaNCI+j1RhwdnfLP/+qv+fTTL0iTgov3Fw3RKef65oasKDg5PcFp2sw0BKaiaSe7wmRBUlrUXjcuQA+7bLLRIVA8xOZ2Owu7xKHdIPKQyGdYvNvD1RiiOP/9v/2f/p3ZuM0NQ7dTf7sRSAoBNuW3QUCYuWWAWikzISiE6dGaF7QTdI40QUKrRhm32cgSYx7qSInrOEiBoew27y+06Vs67hZwtA/afK//4jS3EXEXKQ39AEcYSzOURmiMtnpT6nS7XePAUhrVmJ9++ol3794RhhFocB2j6FNkOWVuvAmiqEN30COMIm6nd/zw448k6Zper0PUifB9x3QZkjVlkTDodzk7PQMtWSxWeG7I8fEjPnr+GY+ffATa5fbyhuXCCFwABIERUMkb8Qdrgaabe+75vlGbcYwTTLffp9fvc3c/5er6Cum6aGGm0qIwIssTfv75NWWZIoQmyRKU0nzy8Ud8+fkLyixnvVqRxClpHOM5LpEfIF3BcDDk6PQEpTVv373l9u4GVzpm8i8MkVKQ5gVJloEwi87BochyZvMlUdTh9PSMMDS0XfucdvEl19m6Ths8IkBIYwFeFhV5XqA1BIHfgmpmU5gStW4NaF203h4GIFG1QmBde83mV83hkmZ5wwTNicIeBwdHnJ085vTRY4bDCbg+tRJsNgW93oTnzz7h6dNPQLjE65TxZI/JeEJeZNxN77i+fE/gu5yeHNMJQvO8KnOouY6kVhW1qrZZm+vg7gQAG7gQsnExaoxvpdPsVZq1rxEYi3WzXbeO2Wj7t8bST2wP9ZaMZFVOm9e3m97+12l+qRb/NA14F43eTd0/1ANoWYYfvNZG8KLIsd7rVVW12ILd9BLnn/w9VuvMcZwHE1L252CbKj0IaHaAwvdaimmSGJnoq6srrq6vGQ6Hxjq6NzBAVZyBaJBaKZCe29hYm7bZbDbDcWUj5y25u70iTjZoSnzHYdQf4PueMQMta4bDMWenj3n29BP60ZD7+xlJkqO1MBJdTZqYJylptm7vR9pQm+097vV6VOrhSLdlZw7GI87PTynzFKVqFvM7osDH8w1A1A0j6loz6I+QzUZbrVYIrZmMxkhpWH8oQbxOOHF9Xrz4FS9fv+L6+oq6yEnTnKzI6fT6+K5Dntc4UjPq9xh2x6haE+cZ333/J07OTvn8888ZDodtF8DW80op6jbLo9noAePxGDDchyxL2mdtZ9t3p+Zs8rlNhRuRVvFwvF01aLlSlbEkQ1NmORrBzeU1/WzEcDhk1D/gd7894tGzj3n7/h3v376jKmpGk2OurwxI60tjgTboRChd8PrlDyxVxX/+T39D5Dt89tkLBr0uZWGe2Wq1QtcK3/VMm3DnQLXTqtvO2zab3tXn2C1z7XXt4gMWILf7wXG3zFz7J89zWgbIXxB7Ggkw0aYozUgwllCzjSTm04nGxOshD2B7UltppG3JoJTClYaZt1s62IvUwpQa9mJ2N/D2YndwAj54yE2/3xgn8BdfBhGVSDSL1ZLFYmFaTo7Dxx991E70DfpD6rKEemuTrhv1Yt/3Wa1WTGf3IAWnpyecnJwQJ6tteuYYsku32+X165958/NblHY52D/hy6++4ezRM+bTGXd39wYMc1wqYQDN2fyeLE4oq5ROaHrUtVYUVYkjXZOxiW0glYBqRk2DIKDb73FwcEBd5sxnd6xWCxA1kpo8TVitl3huSKdx8LXgrJ0yDIKIyN9OsCXrmE6nx2effcH33/2Z169+ZL5cc3xmpuXcwEeKCldKhqM+48E+6Jo/v/yBq4tr3r//hadPH9HphPiN2clu3Wql4GtM5ofQOL7HyflZyynZbDYUlWIdp/i+S8/3cRqzDKS1qjMydFo4aOFgTenqumxBXI1pp5YNTmNEZgSqqimVsQLzIp9uf8CoOyF8NuCzp5+zXhvG6Wy2oEgLSlHiembwBkeyWG3Qdc7V1Q1/+7f/iTzTfPblV4xHAxwpqcqCuE7almZVVRRl3qzr3XshjBnuDpa12563Ge7uftjdI7ZlD1BVoplW3AYTpZShApsU+uEJ60j5oM5whDD0WrvJVLPxxJZFWNc1SmscKR6cRJbnbB+2GY8VjRa9uSh/B8iyKZpqUiSlFVo93OQf6hDYDf3hVzun34xdKm1ksxGgml50nufM7+/NrLfr8+TRo0ZCSuB5DbU2K3EbFlcYhuAIRqMR0nFYrlZUVcX5+TmPn5wRdQI2caOH5w0Z9rr0+h1urm65vJiyXmUM9w754sXXfPLJZ6zna96/f4+uFWXD8xa6oswTqipDswVAfd83G7XJWgLPM2CW4xoEfGfxWN7GZrPBEZrlcmksyXWJdASL5Yy3b99zdHiK43gEXkBZGAYb0Aw1Bcymt9RCMd4fkyUpUa/L2ck5z559xOXVe6aze66uhwwGAzp1hyzJyYIueZpSdgt6gy77ByNe//wjl1fvSdINve4AJChVNS2wEiG2prRgno3S4Ho+NJqSURQ1J5sZ3CoKuW3dtrwU6zMJ0MzS06xppxkC01sGLErhChdFjcpy8BRlCpuigFgwv7snCLuEYYduL+BwNKEjPcbdPoulUV7q9CIur264vrlnNN5nvVmwSQsuLm8pyr8nrxQfffIZvm/a3kopVss1GkWtTFdqO/5rGHxGSNRagm3NRD8EuD/ExVo24M4f6yaENsC9deV2tTSCn9gUf2eTPdAss/1F8aERiG4iTPVAkMD+P0vWcX2PStWUdWWQ2w9qEi0tdtDIJautrdE/hXBu0x6nfZ82c9DbgSRTG+k2tUWYseVWw7BJkzqdTnNqGrVbp0FdaTKCbte4DysM6r5/ZLKDP/7pT1xdXTGeDDk+Pn5gAe37If1BB1dILi9uuL68Jd5k9Lojfv31b/jii1+RJjlXV9dmUecFjjD03TTLqOoCTU3YDQk9001ZbTYPAqAXBEY/rtEp0LXCc9z289dlRZrmlHnMcrGm042oKgc/kK1ohZWVVrWRRdssV5iRVbMx5/M5hSo5Oz9hs0nodHOOD4958eJX/PTTDyxmM96/v2QyMPcgzzLitZmwmy+XuH7I4eE+p6fHbNIN7y7f8dUXXzGeDKkro88QRVFbBgghiBq35yQzdOuicU/2PK+ZKygMNbrcimKaycxdFevdTLAx9LBTc0K17jh1beZfyrLEkZKsKiBLGnFYk1GUSU7mbsg3fpsp9YKI/nmf9SqmFjWr1Ypub0BvtGfaqXHCYp1RVnfkxd+TJBnPn31srOV6fULP534xb0eBd09z+4ztc95iA+pBkLc/Y/fKro6AXeN2atXyXkzXrqH5/4//9n/+d57josrKkEiaml80gw02iiZVhvAcpGu82ouqRKENgOdI8h3DCzAAVa0UVa3Ii5KqKtpSoq4rE4mk0wIWqlYG9FCKujLgjFKq8f8TxFlCWZdUtaKsDcrser4h/iColcLM+ggc1whwKFOTIB1JnCa4nmvcVPMCiTYMLyENQCglvufR73XxXActJUEY4LgOSisqCnAlMgwZTvbp9Xv88N33fPcPf0CXFaPhgCjw8EKX2fyOIjcgW1lrfvjpR/744x+ZLmYEUYd//tf/kt99+89RpWY+M2249WpuCDJVgUKhKpjPl+haMBlN8AOPNI2pyorlYkFV1IyHYwIvQgoXLRxqLej2B4SdLtPpLbc3N7iOYDzus0imbLIFCMl4PEQ6JrPCden2h/zq618RRV1ev3zDfLpEKNeIXpYVpTJkmG5/SK87RANB5DPZG7GJl/z8+jXFJqYTduj1u2g0taipKqM05CGoVU3gBahK4cqAyXiPKOySpCkgyIsczw/QCIqibtp7bsv3qKoS3bT/TNCK6HS6jbo0qFKBMnr8FlQ2vpTanJ7kVHVOXuXUumo58gYj8sjLgqIqQZtuhFKaqqoRSuAgKVVBWWbkZU6apazihKzMUUAQ+qA1w+GQo/0jDvYPGQ4n9IcTPDcgzQqyPGW+WJCkCa7vmpJZGLPcNDVArOu6jSOW3GntNgCn0JSqpiwKhDQq3BqNKyVoA25qZTocjhQovT0IHcchKUpTfjs7Qi7WGqzVv2tUTJqsqE3ZP/xj03rLAzAn55aiuBuF6tpMMrmulVHafqjdGqZVFKqt85BuUsCqfZ050Z32wuyXnZzaTZFsWmWjY69nrKbTJEYLw7rSrstw0EdrzWJR4Djb6CuElV0uDJswcOmPQg5GE7q9PlfvL3j58iVZnTPZH3N0fkyv1+Fues16tTDgjqq5nc2MVsDlW44OT/nNt7/jN9/+jsCNWC6NgOZmszHGknneXtv94p7lcsl4PDR1Yp21tGTXNSPKu7Rn190yyOz9zPOcPl1QBpuJvBAndIgCH60KzNJ26HR6LTfd8T28MMAVLtJxSIqYosqJet0GCDXcAC9yGIx6fPzJJ5w/fsTb168M4aZ5Hkkc4wiXYc/wJsbjMaoWxHHKJl6xWCw4Ojqi2+2QZWmb5VlOyO5acl237WPv0r6B1mEni5NWmNbOx+9moNKx2aSZdN1Nn3cl7H3PbzEnoMkAVFsypLlhYEZhl0Jp8rxon0e322X86BGPHj0iyzJmsxnv3r3l9uqa9xdvSTYxb968pSxrjo+PG5A5JAw7H6gKq+bw3eEBsJWb32YFEoUpZS32pgRGpncHsDf7YLtfaq3bTpxr39hufjuRVBRbTvF28+1YCrVvaEoIe8Pb9qFq+gpKt+Seuq5BN5FOAkKjGywBYaI89TZ4ANSVCRoae2Nsi89QX2lAE5RBRmtV8WGtZL8PwxCtahaLBWVmOOT94YA4jtsAptBI10Fp3cwyzNFas390wKOhcQ2+n855++YXyqqgN+hz/uwRZ0/Pubu9ZrFekCcb4mSDUDWz+T1pltDvjfjVV9/yza++pRcNiDdpS5e2z+DhJlCG4utJhNRkccZ0OkUIh5PjMzqdDq7rP7jvFkSy6bud71BKUaQF68WaMOxQZyVJuiFeJ2w2MUfHPkHYIYwiwk6EF/j4rofrO9RJRVlXuFUFNazXxvug2+3ijD3Ozx/z7PlH3M9nxLnRHux3uhRpwiIr6EU9jg5P6E8mKKW5vb3l/fsLOp0O+/v7dDodNpsNVVVT1/aZWcOYCq0VjitacHJXZ9JiIgCueKiHvxsMnYb/IaU0Fm081Lu0bUIrjGOZpC2XoCHA5E2A833fgOJ1jajNGl4XS/IkJQkbQLUTcXR0RL/f4+mjxxy/PeZNI1Iyny8RwkFKl17PWHrtltxmvTbgekPckbot29v9+GB9N10OuQPM7/J4cLel0e4f95+KMru1vf0hTzpta8603ppoUm91yRzHwZUPgbj2dG5cStHbIaLdDoHd8G1Xga3DSVUZkU/72ezAze5nrlTVZhF2cbQebcLo8UlpPNniOKbM0qYVkhoAyjGsOSlFI0a6TcWCqMvh0RH7hwfUdcnd7TXz+ylC1Tx+9oTnz5+CrsjTDfP7O+6nN4BB6m+md1RK89WLb/jdt3/F3uSIutLE65jFbGm4EU1LxgJBYEQkHMchzdYsl2bRrNcxe5MDBoMBUdRt26tSSnS1fY52LmFvb48g8BoTi9I43uAifI/5bMnt7RSQ9HoDpHRwHM+0fYXk9vYWasWgUfQZ9oYILdGloi5qVvMV/WGP8d4RL379G169+Zn7mxtu7+5RgxJQhL4AUeF6As9xmYzGBL7Pcr7g1U8vefbkOR999BFpklBkBagSJUxqq5XBM3RTDtnMz6rn7GZ9Qgi63S5ZlplhneY+7maqWpustmZ7qO0yKIUw/5aVRSv1/kD3UG5Vr1GC1WpFXdf4jgGZg6jDYhO33P3OsN/S3rvdHp999jmT0YTlctlYmhl9gLKojC9mM76rmoBi8QsrWCN2smbLA1FaG3B+55D7cD/b72tlbcIlEtBNAHF3o6BNr8wbbtNhs/Fo05Ld9MSCLE4j/S1s31I0KYgQuMKhrBpiQ4NE2p9rQcIGODRSUKpNYy2xJwgiXMfFa/r2rivRTfDRDW5gMpNGbbvEcQAAIABJREFU5UdphDKkC8cxIFmSbCgbM0kpZYOINxOFDYbhuD7r+RzPCwwzcDhkOB6zd7LHcDIiixPevHnNYjHj7PyE45N9HBeyzZrNaslqMUcIwTqLefX6DVrA06ef8Pknn3NyeE436nF5ccNsNqMoCpIkbhd1HMdEfkTYD9HCBNWsUSYqiorJZMJoNGqfixmEMco/YodBVtc1ricZDHtIaWYWaq3pDfooBdJzkZ5PlhcIJ8CRLkJL8rRoe+yzuylpkiDFCaen5wjh4DlG9SneJCAEs+mcSSB58cVXvHnzmv/4H/4PluuYrh/S6xgRF5Ru760dNJJSslwumU6nPHv2bBuopURKS1KxXnnKLlSE5ck72xO8VDWgyUVpamRlBrikZzZmjaaqK3zHbTGo3YNt9xBRyoiL2EPHlETSBCMhkWxP6CovWCwWOI7TTK4WVEVO1kxuKsxrpOcitZnk29vba/+7XC5bARprGrPLZLQnvN0ndj/bgGazFGUzHR5Kg9vSXGht/Dy1Idx92DJ0P7wBNro6jveglWRJOm2K33zvCAkNz9+07Oqd99jKP9mILfRDy3Gl7NBP+eAmmIhv5qhdd0vesUiwEObUtNNyGtNTdZ2t/rm9Ga6rWa+NOMV8NjOjoKOBaQMWW61/y7ozJ4gJNN1ul8nBhKOTI4LQ4e//7vf8/OYlk70Bj56eMRh2kY4yo591jRd6lFnN/WxBpTSnJ2d88dlXfPbplxwdnXF3N+Xy8rKhwhaGB1FXSC2J/KjRKdBkWaNPWJq23GjUCEG4Qbto0jRtaLRbAogNqHahdrs9fN9jla4N61IagQs7BbjaFKRpjlJmDFhKl06nx+npOfFmhSNcdK3I8pwirRrSVEMYmq/wuwGTwwm//fZ3/PD997z87jvmqyWT4aOW7GN9F6Mw5OjoiCdPHrFabYjjNavVAt938QPrcls9WHc068BzPbSmrc3tmjWAnWq8DZuSEuNa7ToSKczf7X0SQrQW9UKINsDsjs8KYWYi7CSpHVe2pa50HOoGl7DKOnZtqqa7pWtFVZTQfN40TpqMw5rmBEhZmIAsjRaC2Wc0GMV2IlBrATtivPbztgNAFm9rQEAAp8kElbZdve377X65uxt6N+JIuY1C9mbtblyU6QBgZwZQppVo+/W7QEatjGCilC2xZzfg2JTNgoS7n8XqoFeN7p39fFqbjWuENYo2HcRVSIf2RtufCXyXssjI85TJZMRwON7WkVGnvZHUxkLb8xw8z6Hf7zLsd4k8yd//7f/Ff/67/8h6M2dy0OP0ySl7BxNWyzn3qxlpnpBVJZfXVyzXG/bGe3zxyQt++9U3PDp/ymq+4O76hqooGnRZULMtu6IoAixnvKAsDehX15ped4DvhQ9APtO+sqKTD73giqIwY9ijAcfHxwgX3rx+hXR9OpFP1RtwuH9ErWeA4cojHAQOpydnhGHI3bVDEDq8+vk1VVFzfHCM402oixykZ9p9iw0Hkz1ODk948fkLLt685e5+xsF4wqNHAUFzb4siYzgYs7c35tmzZ+249O3tLU+ePKHb7VI2QdEeBErXCMzk5z+1eO26NGD0loBmAe32kGrnAsw6/JBUY1/nui6B57cENvs5AFRVt/MH1n7LyNZLM0ouO2gptnyYqqKozRgwGDAxSZIdoppoa/6HBjPiQQAQwl571e6LD1uF9nvHcdr9Y9eUXSeOF4AwDNbde+nazbgL8O2y6WwAMJ5oDtB8UPSDD5Pn+YNUTtdbRBfY1mVNba/ZBgA74bZbx9R19cDK2EZmC9TsynjZ1NKSfuxDNzdENl2ADoeH++2kX/tattRK13VJ8017Xa7rMhj26Hc7/PCnP/Hd//sPXF68R0iHw7MjnMBBOZq8Lnh3ecHP79/yw6uXTKdTDg+PePbkI3779W/4/KPPmM2tCYdJs/MqR0gNaltWFYVho9WVGdyo65okztDUbY/cpui+H7bApRDmhFRKEYY+QWA8DdbrNWma8OTJY6LA4ertW96+eYvz5Jzz83OKSpFmVTtYpLXGDwOUq0guM+7mM7qdkOnsnrurO4Oh9HsIx0GnFa4nyZKE1XLJ/vEhX3z+gj/+4R/4YTXnbjplvlzxfLyH63qkm5i5MyeO4xZgW61Mh8SMiffZrONmHW43qGgcp8w6Ue1mbkuA5hSkWbN2vdi+vk3lQy9sQeIP+SKO41CU+QPPvF6v9wBQtC22babgIgSUqkYJiON1e8KbYLN16QGThZghsO11GUNdO9LrorVRQ24ihmXxNwHQSLvJptyW7i7AubNn7cGqt7yAsizRNqA4zf6Uxi7MVSikazaVtOirVghqHGnmkuu6otIK10BjVFohnMYFqEnLNGbyTzSR0/UaU4SqSbFVTqWaGWjpUGUWb9CmPtNmOitJjQiDG/gEUcc8TD9COQqJoKgqRK0oyxpdQ+B1WpCnKqFUZsoJ7YB2zClbl9RZzWRvRFWqhkNuhFDaOlBp0iwhr8pGZjpitDeh0xvw/vqG/+eP/8j1eo4chhyfnvLk48csFjPmt5f88vMb/vAP/8Db9xdcT6eMJ4c8OnnGv/5X/xXffvMbklXGxcVFy+E3C9aIXEjXoNdpI2kWBQrXc8iyHK0KOpHHapWzSTcMJ+NWT65sBEFonlFVqmYDRDhOADVMb6ZMBn10XZMWKTfLO36Z/czB8zHjow7Dpc9w1DViKqXZYHVZk25S5vczrt9fMhwOOD0+w/M8bmeXDA567I8nZGlG6GlUFrGeregPRjx/+ilfffM7fnl7SVIo3r2/ohP1eBp1ma3nXN7fc3szR5WKxWpJXZdkyYrNaoHnRwRhj7TRr6vqCtfz0bXCQbZa+EpbzwoJaIRrcKWi0Up0m+5QSz1vTttKaGgIUvZQk0I0FGEzV5xnBQQBvh8goZ0tqVTDSi3r1iXYafCQqjbiI7XKqWpwGiqzFpqiqnBEM+7rbcU7gzBACqcN6lJClqXNAWxPbSPuIRqiXqWK5iB2cLxdI97G2EaZ/yKM/FtlSwM/aIB5s691tTN+LOUWA9iNrDbteYAoGtix1dRrX6dpUee6rlswbov+m/cOvU4LrpRliq4sAGN+R5ZlgJkAU55Ba62DkBCmBqq0NqKY9bbGzbKs2VAmLb69nxJFEaenp03bz9RVGk1VNvUU0gQQ/UE65LqEoaH6Wq35zWbF5dV77u7ucF2X//a//m/4+NOP6Pe7XF1e8H/+zd/w3R//ZEwpyoq98YQnT57yb/71v+GvfvvPiJdrfnnzC2VZt10Kc5o99FSIoshYn6Vpa7CSpimu6zaUXK9Ncc19b35eG7RcSOMr0La/HIdKV8wXC+7ubri4fMP87tbYbns+VVmayb/lgn5v0qLeRqMhIytylBRUukJ4LsfHx9zdmfn/0POJvAjRLOI8z4360WTEV199xU/ff88f/vN/4uIip9+LiDoBByfHpLGxYEuLCiUg7HRJy4r5cs14/wQ/cBEbzKYXtoX8kKZu+Sl2zdrTvHW8seCX2NrUtetY6qYboNqftxmovQ7AKFVFUbvG69qAcFVpugEm422G2xz3QQlrYcYPwTtdbyW8sizbrju9tQS3mei2Beq07e6/ZMNuwfjdktpkk8aMd7ds17vU5/Zeqm0J8OH/1FrZcgIpBVo+7CM6lmNtFyLgSImzY1JgHHhMFC3qoiEGNeYGWjZRrGxmCEz7xPdC/K6P8TqR28mvKmtaJzWqGYn1Xa/d+FJKVquVMZeIou2Db0sK88eRLlI01GW9vfFg9PyiyHC1u90AUMwX99zc3CCl4Lff/pZvvvkaLeDq2ugcvvz5JRdXlzhCsrd/xMHxCX/91/+Sb7/9LWma88sv71itNjuzEA970NsAbNhdRWbFWCVZVtDtRgwGXaJOz2RbjV20GQE1jK+yLHGa2QCE0Z8zwdSnrArevn3DdHpp9AF7EwLPZ7NcsZjN28XouKLpltTU1AzGQ87VIyQVYNJIR0gcHAIvxA8Daq0p8opkk+J2EjrDPod7+3z00Ue8fvk9N5fv8TyHp08fE3gOohfR7fbJcs3ewT5oyXw2Y51mpGlCEIT4LiYbEUa407arTN/caRe6vYe7IPN2c2x5Am1tXW/1FC1WYtbpVtPSPiNbugZBAFIa9Fybg63SNAGhCQ6lKaGgKVwED363nUugGUO2KXmLUzQBYFdOb4vDGX8Ok6FZAJ52rn+3dP/wSwiNELv04ofO3vY+uY6UaKUMxXAHUGkvqNnYorn52AELKXeiy18O6lgmWpZlTb2e0+122xrLkhqUMr8z8KIWB/A8j9A3ssd1ZVxuNArVTE+JMDS0ZSlxbPByJGHZ4bzbodfr7QCAzU2qjDOQKw1wqaQ9Kay671ZX3XVdBoMReZ7z9pf3bDYb/sU/+xd8+dWXbLIVP778gZcvf+Lm+pLVaoXruvT7fQ4PD/kv/tV/yTe//g3JJmV+tySOU8qyoqrqNqDuEj20fliP2qzGLoooiuj3+0jpws4CV1Vz/Y2MextUhKkvtVA4nskCVusF3X6Hj/rPcIMQ3w+5vZlyd3dPWRpwS6Ip8pRkE5OsNxzu7dONAjarJUWWsVoskNJ9YIyiFNC0WNM4I15vGIz6vPjyS3784U/c310zXy25ubni9OyIQW+AlhGjSQc/6FHkFSBJlmsWiwUnx8d0IkPWSndQb1VZr4qHgjP2+92NU6ut5p49lcuqJPBDRHPPTQGhQdXUDaDc7/cJgqDNKC2/wj4TP/BNoGiyBKtQbAfM7EnsSAfpNBOuWlDTuGrv4FsP94xuOxHbzbuVRbepvvG0aEdxdjb29l7Y1++Cnhaz25V+3/3Zdhrw/w/t340YDza6YS2bhdsIDrQ6ZDsfzL5/EEQ4jodqCDtCmhPXa3Tt0M3wDUbcUzS/z/IAHAGh54PSFEVu5vhdjyo37xdKn+ODQ0NXzTJ0VSOEpLRgiC4Q0kM3mYfnyHZDWvBHSkkUdhgNxyg0P778ievbG87PT3n27CmeC9PpLS9//JGfXn/PdDolS3K6/SGPzh/z7bd/xddffQPKYT6fk2cFWWqMMHaZbGVZUrfpv24Xsk3/4jimyDPjKjwcEkVdUy/WpjQy0Vy1VGApjfmEZf6ZaUtIs5hCwHjSozeMjFAlLmlZsopT8qKirjWeGxBFkWE+3k2pSwM26QZvSePEzEx0O80Me4XvGnIVGF8FmTqsF2u63YhnT5/z9dffcHN9yfzujlevfqbbCTg/f0xvsMfByYiTs2M2cc7tzQ33N9esN3MeuYZOXZbGXaeuNagK4RhJNLsG/8KY1NmK1u6u4d35990U2m4u+3fLUbBDPm1ZaQOQUkjhECcJWZ62rT/LabBdqL/c3Lvdi+1gmwUD7ZdRdLJ7busKbNd/VVU4nvsg67Hv9WEmuXso73babLawW3ZqrXFt3fOgxYdJIbYnlTQlgcJwjNn2Iu0vKqviQTS2D8CKbezOmRdFAZ7TnrZCCKrG2KPfNwy4oqmxyqpAVaXhPFc1i9USrTUHJ8dmATafX0uBG/iGALRzgfYB2htkPrMyQ0TajDNLCZ5nbL/6wz5RN+Llq+/5/vvvmOwNeP7RE7J8w92rC969/5mri3fcXF1TFBW9Xo/jozM+/fwrPv38BaHbYXa/Yjadk6U5eicobn//7rSiPbk1QtIyFdM0bezFm9afdNtJNgOyNoYeDXArhUBIO8UpqIqCIkvxHNB1Tp5L0jwjSY1GQp6V5HlFXWlcxzGy4GppgpXjUJYVrnTJkpT76S3d3oAg8FBVzWa1pjcAxzPvCeD5PnlqnIuPTg558dXXvH79kj+s1swXK37/+39gsVjx7PknDAZjXKkJHJCqRNU5qs5xPYl0PLzYx/GMYk6lipbYUjf1+O7JaK95q/yzPQ3tmraZYN0g7I6QD/gqrusaYQ/fx/U9nLpqyTyOI1vJcqUUWZobIdOm8+Q7Lm5g3qOqKsomA9mewDxYiyZWOzv7Z1su2HUgnYetSqUMEGrozOIvNnsbpHaud/t7lSnhW0B0uz+UUrhFUbQRyXygrbimjST2TT+MQLvAgwUCgRbosieU1rpJ5YsWwLG1mZSy7ZWGYYcgCHEcl6IyG9t1XaPUojVJHFOWJXt7e41DjPE86/X7ZsqvqnAQD9otFq9w/QiJYxhdUrbECNsXdlzJaNzn8GjC7e01L1/9mbJK6PUPCEKHskj54cfvefn6B6bTW/I8p9cbcP7oCacnj3j8+Bm97ogsrVjOl2zWsRERaU7sqqqQwlCitTabzi5cpZRhq/k+uiopClMC2HZWXdfUgOu5eJb4onQzN/EwY3OEqVmz3Kjn1A5GgUZXZGVNVUEn6IIX4ckQ39FEYRetBb3BiOFwRJGVRH4AQpnZCMdpeRFa1aw3m5Z77nnmJCwy05o0CraKk5NTPv/yBXe3t/z80w+wrJhPZ+wfrFktZ9xevqMqQdQ5e8M+UgqyIqU36BIN+sS54dmjPTMzX2/18HazUa12/B5tGu5sxV/tyevgIKTTUoHt+msxIN20w3e8C3Zb1JXS7SSdVSOSUiK1HT5q2nVNWg+WH0MrsfchbmHbv3af7WbNbYruOUBgfBEekIPs0NxfUoFtwNsNhnqHgGf3d1EU2y5Am5rWZXsy755QnnTaE8h+SKUUtlLrdo1Nk637hRAtkmr79rt6Aeiy6Xl6zeYP8TxD+NmdQgyCgCovyJKUThTRHw4YDAbked4YWphIbNARZUQYy4pab+nEvm/GR3VTVwppTlQpZUsrHQ77DAY98jxlen+D42oGw5BNtuTm9j1BEBDHay4v3jGbzQi9gMO9fQ4Pj3j+/GPOzh/T6w24vrpjsVi1Ed20c7yWc1BXWxVjrY2OnV1svu+zWptJOd/z6Pf7rQWZZuvAXFUVjmissxqGpu+5jdy6wTOoFZvVCq1KRsM+vSgk32SEUY9+2CMcjpHK5c3bK4bDYfveUbcPOqWoCrSu6fWHFFVJ6HsEvqmDizR7MLsvpaQqS4osZ7lUBL0OZ2enfPH5C96/ecv1u3fkyZo4zSnylPVywdvqFXlWsdkkgMARRrikN9qj2+sxX2xwKhfjPJSYTscHpSWA0jvzEDuZJztBQ0qJanTwBc093JGysweNmUalLQl2T0vrpmxPzpYp2JREvV7nwf2g+T112478y6m+3dLbZno2M9gtpbdTn7tyYDb1f0h20k2Xzn5tA8S2ZNgtgVzblsiy7IHpJcgG6DFIZqVpKY+7XGm36VPqyjyINElMf9txqBsFVKE0xY7ZSJZl1EoxGoUEToDn+zieT9FkDkYu2ZyANDPbWigG4zFuEJIkScujttOI7SJQNW4UoBtxT6kVIvApdGIQXe0jhMT3GsAE2J8M6XUdwkCTFRWhH7A3nnC4f4AWivU65n52w6ZYge+QO9CdDDh69oyPv/iaLz75FaNoxM3FFffvL6HMkWCAP+nih11QVWNr3QRVzGkhlMYVklKVTIYDimzTvi6MukjHx3EVZZZSa1PqKLSZAdcKXwQG7RWaqipQ0kNJj1QX1NLMtCMc1llNklcIv8ILPbqDAeNSs8oq/DBC1oIqLdCVsa6qZUmRVkg/pDfcoywS5qslQgj6wwGe15CQpKQojUW4ThMiIpJ5wrq35uzsMZ9+8w0/X73nl9c/ENcF09Uc504Srn3yvGS5Tuh2htRy7//r602b5EiOLMFnl7uHR0TeCRSOQhVYN6tYRbKnt1dmZGVkf/nKzErLzvR0b3PY29Mki3WwDgCZyDNud7djP6ipmXkA7BAB8orD3Q411adPn2L40aGa1Hjy+BnOT2e4+HkDHwKMqtCHDs7njrjeUQWcUUQQ6/seSknI1NyCPD8q8QZWu5xHp8MLaWMppWAdrVU7OGK5ShK4zRV6lJtHlIffrdZgghGJyUQAXVdRspwyBOxlKMPdl0WkFlcwlYmqyBJdP6R0sJAOu902k3y0gHdZEo/Sv2IkuweQBocUpHbFhCfe6Lsd8UaM1hichagq1JUhA7CPEpaWqHRJylQLpy04pcFWi19fEjFKSyQEMfc4b83vudlsyDpGQwKfKwF5c1tr4UUOI0oQhGsRQvDJ0FRVBRmiso0N0NpkK2lpwqezGs1E4sGDE3T9Bt98+0fc3F7jvefPMJu12HUbvH79Gv/69de4vibdv7OTEzw4f4KP3v8YH73/AY7mR7i/JrmtwVkSJ/GURjWKyFKiyFmX48InwsOHD3FycoK//PBdKjJRinAJkiqLteKFNnvK2uwJR3J9+snJCc5PT/D00VP0wQGCajzqCXXNWS6X0DWBX845uIFbxJNgZYcNbE8qOZthQB+7I8EHzGa5IIlDAQApnXZ1cYmHTx/jqy9+hRc//YjF7SU2yzssl0sczqfY7pa4u11g0/XoD3r4waKqFjg8PsKD03NMpg2qSY2uG4qYNer8FWIXvIFTTj/KyCHG2cJT9WrbEmGMOhQPqd02r9sEiuns5rNXRiA2611EMk9dp/Hmz+e90fc9PEppepHicC6zL7kI/DW9di/UKb3xFF7H++Pn76P/XBzGnsZsNktpdH6vtm0pBOCUBi8odkn54ZyD4TRgsfD2DQYzp0oXlxH2umrS77TWkZKYiRjgwVcCGgpwIqUQxy4OFWw0NYUXyuTBCSHAW/IYlCIDgygwUlUNgke09OTiaQMcHLR4/OQck3mFf/5//hv+4R//kdpuVQP+7n//W4TlDl//j3/D19/8Ade392hMg/eefYjPPv4UHz3/CKeH51hc3+LVywusF0twabFAgAgSIlB6TSjOcozp1vyVu7ZeX1/j5uYGx8fHafGVJ5fgRSfGBoVFVoGsg1jXNebzOU12M4U6ayC1xsnxAygtRoufc+Baa/RdBwigqSoMXQchFKbNFNv1GkNn4ZqQ0rxKV6NiGC7+EcqTRNZRiy9++Tle/Pwt/uV3/4irm9d47/1HqHSDFy9+ohbnx0cQYsByscHLn3/A8+fPcXj0AM2kwnqlMUSJdCqRFXCOT3DyUrU2UCrTw1MoIBW8IHqsVjqGtlkrgDf6MAxoGur7JyBTkQ9z/pumgfUWVWXQ1AZaiQRuA6RJYC1ThkMU9yAqLxPn+j4Cv0JDxtJ26k7FHnc2BrzGGf8BkFKU+4Ay71t+bSqHF3K0B1Oa2ecK3BACNOeayyqrciPzz7ajk7cMA8qURgb4yF2ytodzKsb5ApO2gR1camudLrqp0qIli+2gBeAlkWOYmcfiFz6CT0rGfmixZqDMhZdxjov6BbUysMGiUtH1iZv/9OwE09kEL179iN/97p/xv/7wrzBGow89VtsVrm5e43/+y+9xefsaAgbn7zzCRx98il/98td48uAJFncrXF1cYXl3mxSM4i4nUk6ka0KKkVZBmY5iV7TvqZnmZrNJCjO7XZcWRQgBEBHEiYAQs8ao+2xWTuq6DsvlEt9s1mhMg+3gcHp6jv/jP/+feP78OVZr6pRzeUPkqd16hW67RV1polrbLbTMueiqqjCfHeL4kFiJ3Iq7qqnvYNIzEDL2JXTotjuYWuPJk6f46JNP8OLlT9gub7FYrdFODY5OD1GpCqfHRzg+Osf97Qo3Vxd48dOPOD97iNlshvu7FfygIERDegGe+RMA/Jg4Q/9ovpkEQ8Qv8vrKA6nrugRUA0ibS0oKI6qqQlXTxumHOAcFsF2mjgmcc1FiLCRgVkoJLXIL+hAipyauDQiioAfv0++9p2a2VVzvts9FQEyKG4YBAi6tc2NMMhS8poiLkFP8IY6bc1RgxtiSzpJSWRyhdOVTusJm16F8bkk/FCKMXKOUAXCe0inxZAIApWPuux+w3W7TCafi4PPG4KYdQpC30NnIn05pyihqGlM2AnlBlA83DKiMgROkMaiUQDOpMZ3W6PsOf/rTn/D69Q3W2w56CLi9W+K//t//DTd3N3AIMHqKZ+8+xxef/Aq//ep/wwfPPsD6vsPd1TW67S5Z2H5gdNlAwcN6T4hsGFMzszeF5OqzmMW7776LDz74IMW2xhikzkhAMgTlxLKaE+nKkbFZr9dwQw8/eLy6usGHH34M7z2Ojo7QTCocHh6ifnmJodslZHuz28EP1GbdDZY66HiPIKj6ra40yXL3fXKLu+glOEcNWKibsE5A1XQ6xScf/wrff/sd/vLdn/Di8jXqCjg+PIBpG5i6AoTHfD7FYAPubq6wXN1jPp9hOm3h+iWkz0SoMs/Oa5VP1GwQeGwpdSZBbEAXjYjriV9CjVFbbMIGnfMIzsMPFrpuUp/EriPeSYnOy9gyzXti6k0mEzIiNhcsOecgozGoq4aIbT5vVKOrdBo3TTMShQmBeiMul0vKSgSXKOKLxQJDb9MhwXE+G+u+7+H7nKrkOoly/7LHmYhA+249v1lyF6KFZd06jqm6bpueT5aHXs9SVoPt4B3ghYcxNZoJGQgjyZrd3t7i5uYGJjYuaNsWdaz+44FiywgAInIS+DPLXue8EHhx0PORYj3CCaj4QmlgOq3Rzlu8ePkjvvn2W1zf3ODo8AxNM8Gu6+C9QtMSL+HBgwf4/NPP8cVnv8Z7T9/HetXh5cuX2Ky2iThCY0jFOYAk9zMQh0Ei56jLMSZjpLBcLnF1dQVrLc7Pz/HgwYMkFMLWnzkM3pNGnRACWhooVTbGEKnyTGuNk6NDwAFBSBgl8erFD3h9+S6apkKlgarWMBWpBDcTjZ9e3WG33qGqFYzSMDUtFO+ojmK3I/0AJsOw51jXkxQCYBhQTSrs1hsoJaCkwbOnz/DVl3+Lxd0tXr74Adttj92ux3q7Q7cZcHY0QHhy51erJS5fvcS7736Eg1kLPwQs7xdp3GhzDXFsuMiGDgGhaOMHQZr/IeohQgkglK3tdQKP2QsOIeDq6gr39yTp3rZtIvkgHXyM2htst1vc3t+irmucnT5A3TTYbaIikZaxtmONyWSKo0NqssLFPrwOOCwM8HQoSj1TYrMCAAAgAElEQVRy8Rmgr5sqpR611lguSB16Op2msJr3Kxkam7J5BHISJiVAxkhJDaPDuDloIleIXOLLrpIMGP2NXaAQck6VbipbabLKPYRQCC5bT+9J2Zeovj0qo1LH4Mo0kZk2TVad2n6rVP3GjEHa5+ONleupudiCvighYXvyAupKo2kMTk4P0Q9b/P5ffoev//wHKC3QNDPUdQNpya0yvsGzp8/w0fsf49MPPsV7zz7A7fUdfv7h5whS9hhcH08icgeVJFkr7z28olPbi+zGs3fD+VoGzn744Qfc3d3h5PgMUsrk7tFruEHLm4Za6zFtlI0Rg1jvnD/A8fExXrx4ge+//QbTukJdV7i4vETfbVDXGtPpBN12B6mIQyDVBLN2CmWi2KqLqHY8QdlzpNbc5HkER/eilYLtLJb3K9hAKdnTh+/gt7/5O2xWC/yX5Ro3dy8RECBWO9zdvoDtPB4/fIq+t/jxhz+haQ/x/P2PcXx4hN26xwZU9zD26+gUZg1BNoIlk47CAvIUJTJ4mNc7t5fXqYT44uKCBEwmE1CjDgvBPAEd94uS6IYel5eXBLpOZtRFWlJXpzpm03brDbTQGFpHPAnHoKZImAWHfxxasFFlGjiVf1cJD5tMJvCH43Jjfk0CKEWVQHq+5xLz4bWhyxr6svsOgNgrjVoxHc7mySVPAppxo5PFo4ISFl9kS2ct8ZERjYUxBJgITyffdDrF8fFxMih9N0537FMY881m3j5jEiWYwgo91P/NJ6xCSKrDfvLkEabtBP/0+3/C73//z7C2x2TSwMLC2gHNhAC4h++8gw/f+xC/ePYJnj58H1eXt3j54hX6qBYMuMLgOQRBOeBh6CClgDYVqCWhSEy0krzBakTeZ1eQeQ7bSCOmLE1Gi4mAMgZhuRKQf2Y9AG8HPH30GE+fPsbd3Q3+/M3X2G3WmM1adNseQRloCTSTGkIGHBzMMAwDaq3QziawIeIzNUl7wcf+kNz8JeIcTdNQv8UISFpr4bdbWD/AB4W6WeHo9Aj/4W/+DtfXr/Hf/2mBYeiw3vSw/YCbuyUenGdw8fb2Fvf39ziYHqE2Op5wAtJbOAR4TQ00TEXrl7NIXKfC/SCo0MwhBEVpMplp1/S9Tjp+ADVDWS5Jh3G5vMdsNgOnrne7HSYzwjx4L5AugELXb2F2tMY4RJ5Op1CgcuGM8+yiu65Ga5sPO17fQRPwd3R0RJs3nui8Hx88eJDWj5RyFJIJIRKbMLMSKfTgNmxsGDQ/iQU9tFDonYMfHKZNi7Ym16iZTaNbSQtwPfRRB8Bhs9tABuLUw4nYNcjA9QFwdLIPzkEpGevVKRVTVzV0TRkIyWxES2ysIVAbscoYWO+hoLDrHSQ82rjYKHXVURup4FMWASCNeAkAwkBIiUF4krw+mGByMEczO8Tl9T3+1+//iNubDXa9QB88zKRB7z1mUHj/2Ud4/uRdPHv8HKeHD/D68ibq8/Xo3QAbiGkmNJ14pjJwLsAOPaX/pISIyi+7bgsbHCql4OAxDAQI9hHEHLxD3U7x7P0PcXx2Dl1TzEi1QgJWuIgeOwTnIHRF4Y/w6L1D2HUk1hFcFEYI6FZbiOBhphrm2EAeaHS3PS6vrtF3DloaaB0gUCGggkUDqAbzg2OEYCPXgha6Fx4DJAYXILRKoV5lFCqj0PVrku42pNPn+w7aO8B5dHKN9eQWbVthfnSITz7/Epc31/jL99/AdysooTB0G2w3S5iqxvu/eA+zgylu729xcHiMetZALTT64OAHwAaPWsfwIwj03QAX5eO1VpCCuj476yGCggNgPae6BVwIkJH446wDQBu8qio00xYPHr1DufPBQvYDIElXX2qDAA0hK9T1BKenNbTW6LqOxij01D4vNrmhxq2H4O7EbrtNh5S1PrZdm5CBNzEkcA4COWMkNTUG7WNVLQQVgHFPTqkEcWy8xXaXPXTnx8QjDmF88ER/VxKQIAxgGAbYwaHvhvQCRvknsUgiKEb86fnb9TK5LwoC280Gg+qTcs+wiyALK9e4PsW0TK/sug6LxQJKKZyeniYgitIjJgGKIYQEnkjJpwwrnUT6py7VXz18wT+QklohcQnzdDqFtw7ff/8DfnrxApvtDgiUUnLOYzqZ4RfPP8LHzz/C+ckZzo7PcH+7wmpJHH0+8Zk6XfIjOEfNikn8KIEh9khyXE/3cHJygpOTE7Rti+12O+oY460DJOkxkKyai6EOu70KEFSv7oLF4MhIHTYzzOczPH76FHd3CwxbD/SAqhS9T1SI8XDJvecxDwU2RHTYuMAkFefAZzXjbbcjQCqi16MU5WCxXqwxn+9wfnCKp4+f4uHDh7i5vsRWOKzublF5jV3X4f3nz9G2c7x4eY3rq0s8ffwMk5rINl03pHlNbm3k3itpovaDT8bJe6pelVJCRKl0LVUKuTit6iNQy9fNpz6nYfu+x7TowyCFwPKe1u3x4VHSEgghpOamrPbM80eX/SZDD28BM3m9lPwaDm1K8FMUY1FmwPg9Ei4nSfyjBMfZ+9Cc2gueuq8y4JRcTa0htab6bKHgg0UXB7DrOtSxSolaNfWYt3O07Qx96GGtgzcCEJkowUbDGIPlconNZoP5fJ5SNLPZDEzF5A1irSU5ZmQSiGfikcx5byHo9AkIsJwfjXiADz71O5zP5+itxbfff4cfXr7E3f0dmmkL6QTaaYsPf/EJfvnZL/H04VM0ymC9pCYPm/U2uVw8mM5l1JbTUCGEJMnEf0ubqkj/cQxYuu9sIMuYjmscRNRIYI14AQDBQyoCXynlSsxN/r6dTXB4coiT40N88vGHsL3HxU+X0FJj2kzRNLORHJuWEkEpSMG17LHQxBTFSxGI6rbkFhtjoAOh3/UkNyuhBSlhLfVWXN+vcXh8gKfvPMWXX/4aV68v8M3dDYJQ2Gw79I5Sxsz0vLi4wNXVBd59+gus1lssl+vcHt2RZ8SAq5QhMe2CpJg/hABEQRojSA2oJO4IISBCGJUAs2Ze2VOBpcDYtb+5ucFqtcDh4SGAozi/ufAGQBKAoZQ1p/jeLtvNP5fkuYRTRPA904GR1gfxCvIBw+uyNDxApDm7LCLKoXMIAZq1yDn9UFWUT971RN0NUfU3xIXphp5SgqAcZh/zpwAxlVN8K0mVxgvSWtdGpBthQILjJNboM8agbiZv8KTZdQOQOP5CSShosNACDyjHVPuD25gK00mLhw/OUekaLy5+xMsXl7i6voVzHqZVaNoDfPWr3+DzT7/Ag7NzNGqCm6tr3F3fYbVYJm5EkBJe5M8YM7eyVX7bP7bMyfMq+OWlcSh/Voqkzeh1Pn0vBWValBIYhg7DoBDgYKM7bOoKTUuyatZnXnxd1zC6ohCradBM23TNJP7RwTsLKZG66lpfVDEKwDtgs9nB2h6z2YwES9hAiDE+4b1Ht9piW6+xuL7H+eMH+OzDz3D9+gpXV69xf38PJT3uFgv86x//hErXODs+gwwedzdXePzwSdTYv8PQ9dHFjSxVQQeHCzam5sbl7eyJ7HtgZUrW1DV8cDEkyGXF5TryjpSGgwqpDoV5MKWYBxvTIYrVGl0Bhgy39z4x8cBSZCJEDYexth9fWzme5Vc+KITKgDKvwfJeef8IkJhMCAEmejE+BGhONXRdF+mINIhCKJiorb4PyvGAArkySmuN6XSKyWwKG4tu2raFiTG+UkjhAU/CZDJJRUTlqcGfw+4LeQIRQY/WWSX3KMpgj3K0MuoZIolumlRcM8Vyuca33/+AlxevAaFR1TWOjk7x+S+/xFdf/Bpnxw8RvMfriytcXrxGKKwng55CAIpYOaPxYRDKeeooIyJvf38R8jUxKYVdvMlkgqqqknHg18lYNiqJ9h/dWgHea8k4xU2am34KLBcbSKPx048v8fryFggSOgjcLZYwuqVqTC/gbYgy5B2c7TCZ1ICiBCZ1aJJJB3K32yW57+l0jtl8TvlnQeAcHczMzqT53q436FYbrO8WaOYTfPbxZ3jx8ics7++xWi3w8uI1VssNnr/3CzjncHt7i2ryCk+ffYD5/AzT6RTb9Q5COHD/AOeykErOhPg0RqxzGXx2nXn98Wap6xohNUPNQrZd7NRMvJPoFXNX6AJ4ZoNNm1DC2iGVvUtBJ3fyWH0uUQe4vKeg2xcAMXuSpWvP65uvnz8fQKqKLEF93lvsJWcMIv4tLzSauO12m1Dlpq6JVNIP0ecU0S30IAombWgTgcKqaQFIeD8kTX1T1TE1JFOahesH2NvgGKrrOiB24+EL5oFkrrnWkYmlKJZz8HDeQRQI79us5uAddRcaPF69fIWv//ANXr++Ra1nODk7xW9+/Tf4zZdf4WB6gO1yheVijeurK/jBjlJMvIiIeKRyIxQ2AIJFK4uS1ZDLVDNjLS8+fs+SzlmmbryjopvgCeMIaQEJCisFFQkB9BwjDaqqQaVrbJYbvHp1Cesddp2DVjWCVNh2Pa5vF5hPTyJL0Scmn1EaIVhIrQBBHZTZsBlTR8n3bTJa7E4S9oKUrmQsyVsiCHnrsNtusV3vII3E0cERPvrwE7x+9RJf//lPWC/usVltIYPEZrPF7c0St4sl2skh/uN/+s84PDzE4u4+HlYGQhAxzFpLhV6SmKeEX+SNEUKIy1fAF4dN3/dpgyudBVXKQypYh+ADZbhCQL+lQq3D2Zzwj65H0AY+zp/zA4auA1yAkRq1MWiqCtuho4NVAkJS3t/HySw3NR8Oad2oLGziizXOxo4fbNhK9WheZ5zl4AOYjRfxSArApmlySSJvTtcPCIG07FQkU8g48VTU047qp30I0MagqetIG0YCYvgmSiYhgBQPbzYbBIh0evGNvTVdsmcBeShIMUdAcaccCEDl1M92u8Wf//xn/PTjSxjd4PT0GL/66kv8zW/+BtNJi363xf3VHZarBVFaRdGw0hEYSZsvuvRq7KbxeIYwBnaUzJOWkNroDpZcbfbI+L3otRrxE0nVxwcEGT0QAN476GDAakpKaRg9AYLC8m6N26t7HB6dYDY9hHo4hR0C7m5uYYdrhCBQ1xMy3C6r4yhHGoVsmDyfUmQKUdc1Dg4OEl+dqbRQLMQZ60kEMRMDPOCphbY2BqaWmB7N8N7T9/DTs/dxdXWF1d0C1nsYU+H4+BiXFzf4y4ufcHLyDj7/4h6z2TGm0ynW620S35RCE9lHjV32NwGyDByWtHHrHbV8lzHYKQA0yn7w6Z6JcYTbVKkAjViqxDBlj5T3D2/EFKYWngqDlJkT8iZGwB4jHw7lPSmlIJDJTaUh4M9PXnGI62VvH2rKECgYQ3RGE/nf3K99OVh4R9VhUgBOEjAklUEAaLEVBoDRVM3pOAcE69AFN7JeCTeIi7yua6r6U5nSys+n/Ga2yl3XoYuDIaM8+VDUMpSnLv+ramqM8PU33+Lb7/8CQOLdp+/hs8+/wKe//AyTusFmtcXi7gab1RqW8/MqxtRQ8TSmwiVfILps0MoQRIgoHCkA4QN8QPZaiuoz59yosUmSQCviOiklggAgBIQXEfsiLjnRjFkcQ5BgKhQkJOCA7bbDbttBCNItrLVF35Pr3LbXUFWN4AW0iinMgk7Lc2SMQe/z76WgAjIdFzeJvFJMK+L4s1q0EAJGc/FLj25FKTMnBgQV8PDhQ3z22ed49eoFXvz4E8LgsF5t8dGHJ3jyrkXnPJabNW5v7nF89CB1Reb3TkzRECsFIyaEmBEoVXrZQ2MQjdYFZy3iBkQ2JET4ybRc5xzaljQn12vqH3F8fDwCtrMYjk4H2263Q3sY9QLCGOzl6ytFdEqpsW1HzMK2bUcgX/Ioo3pRuV/KeQNy2bO1NtX0sOq21lVE6J2PCjKcBhkwDGsEt0GlJAK62DCTVEykCGgnkyRUwWWJSrDLEltZC7KkobeoNIElfd9THbxm/j9JgM1nByk9xgYFim/aIgQqhi2RUSkMxdvWAzIXW3jLqRPibduhw9XrC/zw43fwYcA7D8/w4Ycf4ovPPoGzA+7u70bNJb2g+mrfE8K77bcpVKqqClrqtFlcbEklpYGEhLcxBi1ddDh0wwY2ljuXFOeq4lJswhCapkknTZKnHnqEMADSkg8pNILUMLJKaR5vezgE7HwPM1WQtUDtajRVDWUEVtt7dDuPaXuEdjrH0ekJjk+P4KXFelhDGdaAAKSOpdqC8IzeddDRINngoQAorSHiYttt1wTiqhq+t/AhMvKEA6TExvawHdU1yPsV5cn1EkpX+OzTz/Hq6jX+9M23WNze4cXtDc6vrvDLr75Ee3iAH/7yAheXP+PRo0cQij53u9tACIl60qDvd0AgA+OTZoAijwiAgIJ3hLPAZekwrXVqeLvbxD4LQcBHRiOHqZAKw3IBCEDXKpb6OlQVMQW5Td1icQdtJNHkVYC1HW4X1zDGoEWb9hltTgXSOQTxVHo6GCqtoYQgnQNN6fSh72GrYaS4xWxTNgYc0xtJgLFOoRzJxq/9DgEBOzsk5mPlPVUDCiEg45Ph6URCyPHEvuURogDr4u/atqXTbEdtrYihZRBSh59crVbGNC71N9MJGefiBaSDbi/OLr4vw4Ayw8BZhvQ5Mc0JUOfdR4+e4MmTJ1iv14nx2MV6d/48a4lFFn0NUGppLLDIY8InZpmfzSe4glSxVtwT14I3NgubsNGjz8lgK3sD1gtIRcCfD5RuVDIrxEwmBkpROjbAo2kMHr7zAMFRLbiWBs1sitt+DS0liY3WLebzOWYT6oJDTD5KIUoZUGkNh4DBOTSR58+uo5EicRUYdOSceQgBOkqFsVektYbwGUSlsuEdquUKxhj86vMvcfHTK/yX//p/4eLiAj8e/YzDw5Pk8XE3XmoMS0pBgBh5LDzm++5/Os1FLpvl8d1ut1gulymcKUNTjqn5c8u/zWaUPiUhkozddB1xEqYHVSIIcY1ECQbm0t98fSU+xL9jz2K8nnLlIBuq7AmVFOjMlvUiVvlKCcMYm5TQPFCa3ZdAedHtJgojRkRTRL6+UDqeqrERQ/QAeAF461KDBdromTRTkkzSpo6IMQ9AGc8QgScDb38txiO3VKYJLD+HXyti0Q11ctU4PDyGtRab9TYBkwwKle/jQ250+rZ74L8h5MVY4ip5USKNSYna5lSfQYja82U+mNxpjrwlfAiwlkRAKykIRvYhcvI1pQUFMGlrHB0doN91UFpit9zg7OEBHj86gB0CNuselTaYT2e0QKLHJOEBbxHgIaCifPaQFpmM94yQaeAAkgvKcbGMzWXzg/QLvae0l3MO6/WawGVIzI/n+O1v/xY3Vzf4+7//e7x48RJSKjgb0DRt6qZLwDLzSij9SfPLLLhSts4BIOMrwpt9LhkMWyxIwu3x48eQkrpGl5uqrmtoU2hXADCVSXPVNE36febb6yQ+wul0nnc6QNgQxetGJO3wxnbRkEaszWKIYCxSpoD3SAkQOgR4AWiRNTqstRBaJcPDIQYAaPixWihTGznmAWKBR5V79JWWi2GhMu4YbxIFKUVmXqUYOQ/ICKwo8p+0bN6ULS9P2PRzgaaWE8zeBrlsFebzwxSrLZfLt77X6F+QkHGyjK5i3Eai6Czsyddcsvr2DRQzHHlS2dugLrE6ezIq9qHjaweicrEkRN5bQrpFgA8WOhDVWSbCi4EQCtOWyFXffPc9FosVnr/v8c6Dh3jy+CHW6y1+9/O/4X5xDeE/gu0HcLGMCIg16oFKZiGI1RYXm44eo40lxHw//JWr6qzLZdlKEUvRxXZzQhJY6bY9IBS02qBuWhzNT/Hll7/F1dUd/vjHf0PACzx+5xGGHelM3t/dYTadYlI3qAylhofewbshEqWIhpsNJ2EAIuQceWLAxSyTMQZtm/X8+FHG1IQxYaQ9SOlHyrx4n2P4soEoeZYUWihTxQ2rwVLw5TUpRcK0KnqApVp3VWsIn9l/bwOT2YNM+EBFoXTXdei7Pu1Nfg0ftqkYiG/auoH46RGsAhMkPMVSVdVEq0KurPOFDJL30LFVuHMOznoYxa2bsmHgB4My5c0ktDQSbbjbcImU7r9H6Y7vW3n+m5Q5VZWschhXz3EueN8IjTwSjPXoS0CTJ7M8/VOY4hyGHbHdWN9AiNwvgD2HfQNJJ4pHEDaOxQCleJHnKkySmhZJeGI+P4DRDV6+eIXXr16j1gZf/PITTFsDiYDt5g63V6/hhh5N02Jxe4eh53ZpCt459L2FB52q3MyVu/CWnhY1CqF7ZkMfCn17TrNR7UhIbr0QxOkYtjus79aYzWZ49M67+PVX/wFaa1xfX5MITazLv7x8hbOzM0xaKsJZr9cj413OfTmnlHfLWBWv9RCIi3F8fAwp5SiFVr5f13WwsYNVWp/IcuSr1Qrceotl7GxkRrJBFKBGtRB5XZQHTUL5C2OSQqdiLSdeQhGWc6jAKXM2xryW02kf56MEHPXbbmaxWABRhLAfOjgboBSRRBjFzqd8XvhEDa4SYknPy5LhZUyeNsje5NFCe3MiR265z8y7lGJB2VcteyDskhmpR00feDD5K3++Ugo+kEvGD9rgPJA88LHppPWEFRQoean8k+9BQUoNMTjIIGORh8/XV1WQSkUXNqSQwSHWQXjWQRRQWtNJwoo4jjABFzdtCAGTyRTzo0NMp3Ncv75E3++glcDp2QHu7pYYhi2aicHsYI6maXDRk0fivAcEx6d0omqtYX3WsisBMhvvj9cFj6WMPe34YW0U6VAxVRsohneDxXa9wa6nA+X89ByffvoZhJL4y3ff4+bmCt4D6/UWFxcXeO+955StqjT8ijxUYxT2Dxeq28/rRCkFiZyW498DGNWc8L2Vay8V5sR0n7UkGMIclr7vY3bgIBoDovCypkAIAdzoaJ8HwocIyYpZODuAdQc5ncpzypgRABwcExmJ6fvl/aTMjMxyc0YWfSVdVkdKoqBsGdiKDDuqXBKS0ksMZHCOOi3w6Hoyss2PRFQo4v0kThAXixBUmUWxdmZg8WSwh7APAu67axRD5TCktKx8unJNNf/Mkz2Z1CC+en5Pay25+UKAG4iURq80RiVPoTRkJd/BOYc+Vk9yflZCAFKhjyeGqWrIQncxyNxgxXsP7xDLrVUyQNzbgFRsqVCKVXAhA6bTFrPDGTarJdhVvbm5wXfffQ/vPc7PH1DOX2vYgXoCxmUKFioJMiCgaKnNizfGxqH0/grACntYhveAENmDYpe96zoM3YBm1uL1xRUGF3ByfIbn7w/wloz74voW6/UCr1+/xt3dDer6YYpjBVUkU/pxr2EmjR1lj7wXqRZkDGiL5BWW9SfleitTstYCwY/L5nneJ5NJPp0jucoYyuo4Hz1Hn0k65cHGv3PFe5bxfTog45pQEDBKo1Mqofrs4jvn6DBh4FMIyGJvlnoJqRqQxQam0ymstfj56jWcczg8op5p5amulIJi5RIxLl4QgTcguaTCUx9yipmrVPbIN8VIa1Wb0U3vGwC2aIm5pTJ3mg1RyS3ggU0GSWV5LfrcITEZCcihGM3F9tRgC6lZ89CClWf4vXnhkyur02ZNJ0bhfvV9j9VqhcPDw3RddV3DdWGkv5hCEjmu/ydZQZFqMpT0EBX1ACDADvDWAsJHFF+gnTao6wrzgxlub+/wz//v/8QPL/+CV68ucXW1wMMHz3B4eJjccSmpT4IPVFAldIAQHkPvYOoGzhaCJgIjRdrRXAgRU8aFEVCaRDo90bcrJcn7i95Rt92hDhJXVzeQ2uDx46fodwMWiwVWt6RbuFqtsFwucXp6mtJofT/u/FQ+yhDOWguooodgJMsIIVIpPM9BXiPjjA6fptm4ZE+VuQWMi8yPDpNAat9bHB0fo++pkQ0fgpyf3weUywOF1xGvA6bOs2Hgqlp+PW9uDq299wjxM9lDK8Nf7YODNgqDBVBITptmgmlV4eTkjCxYoJr9AAEhFYJAqnijuC8DK0GQLBWkgAd1edXCY7VbQvaxrFgFdLtdSrt1fRhV9QEU4wbPrhi1haIBEchFQFkuWcb+as47+KjNxqAQL0QeXPZO2WJ33ZDQfMQW4kSQorTTrr8CJNVVB0FfhQKMyF2U9skcJfd63e0gjIYTwBDBKecsIAQm0biWqsFwniksVMhhO4SgoCS5t5UW0FXECaRA7yQwKPQ7CdgabdMAqKAbjcnRBLvQ4R/+v3/A8YsjeO9xd7vGyfkZDk6mgPbohg6DBbyXkKImNHrwgJeodYV+20fmGRl5omxXqOpCkDO6utNYXMQZAlpQxIWg1m3RFUZMYogA0cUTMVgsLl9BuXM8ffAOtssVVrf3uLm5xt3iHj+/fIF3Hj+K3HwDY1wyuiMlIJA0tpIVECS17JIgeXYtoZVGN/SJ3DN0FDuLEGDjYcggr/cem56MBHcC7oaBDJhWcEOPzXqVxHMnkwlkACZVjVVPwizWOUwP5qjSNTrsdhsMO9qcw24bvae4XiFgo4GR2mBwHbTMcT4DmCGIBMyz8dluSaZvMpkgeNqnu2EFZy0CZPoc5zx0mZZiOu4wDDg/P6f67uhyMk+6pAs7Ryq/dIK2I4tbgmucDvQupFiZJi3nzeumTjERLZ7sWusoirBv3ffdov3f8eu999DFZiTryqEJ1dQnYM0zSyt6AshyUbyg+b2994xVommaVN67z0nw3sfmEZluzQ8eK2PGacPyK0+mEAI+glE53ZQ9LyU447CDbhrMZjO07QxD15PCUQRuST3G4PT0FLNZC2p64WiDJvyBTjgfSrm3bDT5Uf6e06k8BqXr6tl4MwqGscQZi2IiSmVdXl7i+PgY5+fnePbsGe7v73B3f4OLiwu8evUKJ0en6d55nkt33RaltwDiCZ8psABSavH4+Bjz6YzmNWQGJICozLRFPW1zOBeBNqWoqSfXuCSsIYKNvDHX6zW6vkeQAtNmkrwIay12sbqRPWwR5d6ZepyN69hjLvcke+WlYeDDhL2NbruNHhpT0O74fxkAACAASURBVOl5ukQhS9ID53MHmy1rJmFkt4or2pjIw//KsMIYg9pEVwd0wnL8wwOmtCDjYDlFEoDYVy/hCXsbhD6r/F1eXPw1whBvvDYWL6ffp2v3HH+9qZHIzysXSJlqLHEAxjkYFWZ3j12xEqEtDde+K8s/8/giZL136rTMBS8egCHGYdehRUMLez7HZkNkm2o6oQXgPSZNhbMz8u4261xJmK+FQTT6ng1zqoso5np//TA1tRw3F+XSQ7onGecnp0l54/R9D1PXqGsDUzd47733sFjcY/OHFW6u7/Dq5SWMonSbVga7beSd6NzzbrOl9FszIQ8AivAAOBIMUTEvvl6v6WCr6uy9CqrK4/vtug5mQr0CuBkrHzrMgdFapzZ2LDgiJZ22B9MZvCSa9g47ctUVAX/CZ/r1KJQploEQApMmS/e3bZuAS2o7n7to837j9cal/ow/lZiDMQapHVBd15jNZiNwQimVZI7blop+1rFBZ13X0FJBqOjqCZcKhajM2acTRwlAVHUcsJj3l1kkREqJ3nYphVRVFZRk0VES3QgJWxiDf+VC5NOo3Fz5BGJMoSzdfZNQxMYpf46HECEt3NIQlcaDT4USVBrxF0AxvHcufS+FSNRlZ316XmnG+Pu+H+KJyTX5ceNHRBeMnThP3XwgcXR4iLaZJHykaWZQisqPm4pELJU0sHY7uhfvPZBi96gmk/LrUfUIJHTqCjqq0DHHH8ug2biHECAtA7QxxAvjJp8uxG5TyFoJq9UKrfeoqwpP332MzXaFVy8vsVgskpEpsSE2ptvtFovFgjygaUMGIBDnyBYH13w+h+0HSIiRoee43IVMGWZWX5XEcDM4x3ulaRq4nuJ+9vyIdHYIaWSkmffwzgCKtDUn1SSFwXwfIQ4wr2H6/G0quJpOp4mZuNnsksclpRwRs2gNx7JzTOJhnTEHIQRlAfgXs9ksWXB2X7zrk+gBn2yLxQJt2+Lg4CC9lk8GnnROObCFLAk53ucCFt5o7OqUpwp/Ty7nHuq/ZwjYLeW/8YCk+wMvYH5RNgQZ1KHP4YEjZR1EfGFMUipDjf3sQ0nUSCck8vWUn1carn/vERyRgwSnjpA/P0Q3h8eQrkdgNj1ILLV60gBCRQ6Hg2o1JkWsXt4D4uYGj5cAUJxOpafD98Ebscz9cy6a06ilkQmhuHbk1lg6SruVLqz3HocHx3j86CkVLmmNvhtSc5iSBOOsh0AOwagXn4XW7KnmAqa2bSEhUjFWeMuaDELA1DVsTP9xyJfCjzD2nDilx5ua31N5AQUB6zyGXQcZmYleA6bJ8u/eg+okECCjsTdKYr0ZUkNSNjpkKDM5qBxfDhFVTH83Ve6J6H3sV2EtNCOIjCiWbir/K0EWY0wyDkyb9d7Duqxv7uNJy/GRNsRuG3UuFWPiCw+cgCqMxdtDgPLBk1WGJuW/tMnUuJwyYGwweFKT+xvGC73vh9HzkzEIGC0YNnolWabkfvMJw3/LGMw4Dbr/SDUbfOIixjYy9n/3BGBxjGiDjbnpObiOgaipROpSqkJlWgRwhsPBOzqhlZKUK0aufeD74nvgsUpZiiJ/zmNR8izeROrHnlY2hKzxKOGDw3a3gXUGVSwRZzVc7kBdhlR8EjZNA13lFKy1FpWu4APJw4fgSeE4usqMy7AhZMxndIgIJM+E15uUJDxTbnQbMyN8Qncd1cZ4Fw1b38MOA1I615LMN0I+nMqwkseRq3P5cB0GaqhDVZ1tAqB5T63Xa1hrMW1nCXT3geZUaJVkzjVP0giw8ZkgYXTmrPPfuSSTJ6/v+yRDzJNZbihrLYvixLxtydkm4o+SBlLkBqXk1apikvcZgEiLkb7ySZTThLTnON5kC1mQkAprv2/5gcx4I2wgvPX+5GhRY/T3ciMEjL0W/jwGcfZj//334toLgbFgRNo4hVfB4ipN0+Do6Ah13aAbLIwNkRGnoaSBMVQKPAzk6YQQabMhRHlzUDYH2fAlnkIY/549jdKj4ZO2NB7791+OabmAS8JM3/fo4wE0nZJsuYyFQNyTL19bFFw1On62G4Gx5Touqczl57E3k+Jo7yG1SixLXhPOOSid13jJtON1633sNqSinPreOCJQJWA69Ao13+z9AkEGkl6bTNLaozEfk+Z4r3JdC6+xfuAGPjFTF4ljuqwZZrCAB8VaCzvQ6cUFEgww8IMBrsH2ozRe6fKH4GEL/gAtBort2epO2lneLCFASmZJcYVWptv+tTicrX1Jl9zPrQJZaqlcxHySlaEIL9oQcsuzcqGUWYBETCk2chlelV4Av5bfu+97KJmNX3lP/EjAo8gGrMxyMGbCG8Z2PWbNHPP5nFhmfRdje9roShlUpoaSBs4SVVUIKgbzqeIxIGvVxcMhEFKOIvUHAJO2TRkhJqCEkKtFldQQISAVh3EVSWEIlKJ0nbcDaSh4IsZorTGInCcXQlCjkoL3wV9DrGINAtEzIMLS0A1pQ7G3y+u3rGUoMRzCVuJm7aOaczz5WQ1ZOrp2Xh8AVRje3NxgNpthNptBCYntbgmjdOopMFgmlZnkwfD10TVkI8ihxn7Yux9qsifGfAG+N2MMAjiDFQ/7uIx0qbzDC44zAN57SCUw2B673Sb2KDMpXRdA+uKcny+ta/4+nvYIkCLLYFOc5LDb0eLveyLmsMUla+YhRBeLd/rRAGWSTQSRBkugmqCiGS2ptRW7dmyAJJNRLOv0ZXIH0yqNMYAkZF2KnNbhxgvlpk4pVJvLiIWIPAiBKOkkIX0OVYQghRYi1EhMm0lKUTHwhKKohYwb8RS85NQpF9lQhWBwPVYrh2mYAtzEAwFPHj3FZDLBcrvBZreFkvR+davQTmtY14/0B0NhGIeBqLZ0OLg3XFNygcn17rstEBwQPJzNxlNICakUBrvLXoBAxCzIwACgE8lmMIvO8rjII3Yx8hgQolPn4UJGwCGIB8KSYHy9uoqeVhDQojiotBydlOT4cMqYBDStpfb1BKYRjbmS7GGCOvHuiGkqdYWmapLn0zsLSKBuWtJ3aBoKYbpt1H8kYL2zUR1aANYOcLFOhNWNBxtBUgZ7GQUSngrIAlX0crEW7yFjDDz8yDtTSgFK5mKgUXGA5p5l2XWTEmgL1Ve2JMyP3we/2P3gU5X/xq4//z7xCiBHp0Z58pWbvvyM0hLSDbsYk4roPUikctC9k5niN3ZDkTbySNuOXbRIiTXQWeQDJBqhBBFKrLXkNsf4lQlSpaUu9exLNzCfYrEikg3IXkSghCKBpUA0YOp6q2JaMMAoDe4R2PXUdy9A4uDwGOdnD/Hq6hphiK2tQBWOHIfS55O0djLgfjzW5cbn+5CSRkNKmcgnUuY5Kd3SxFDD2ItLc+oLoUzOHJSZnGI8yjXCn8M0b16z5etLDzCnUH0ab/5MzvHzGmGPjeeMOiYRIN6HAQgeskhlWmuhjEY9aeBClnsjg+9TqpTnnVOf+/hIPtyQxt6IcWhUermlB8DXy2PjXBTmUeM58VHaTpfxffkG7BZngLAabdA3wLD4vL7v02LgKjHvPbQyacPxIkibzgP8h9Jt5mthFJmFIEpe/n5cvQ/AAePnkVEouvSGceMFDiPSApfUyRj2TYBRa528JeY8lAaxfPCiTOOHrKhMYzWJGz+OQ/FcAFSWLImCS0owVAAkQJwF7wOMkXAhoOsGrNYdht7jYH6Md955ij/8+RuaFxeglIGKWnoMDPI1lsaW7iHPc+klpucUY8utsoCcWeB1tP8oZbAp/47RZwPkvieAUb3pYZbXWa6JfRyhJHCVa6o0AGwUGOzmTVgSf4ZhwBbbeB3xvkVUEPIOm8jmY+q8UgrS0JqSAaNOvRwy7mdfyvWzH4qWBxXfE+9JICtD8/WX4Swg9gwvjX8CAflRpvMyK4/55xqpG43MH84f1HVdktQqLT5fqPc+5X9LMg0Zg3zC0EmeO/2UhoP8vnwT7LLyv/1TZOxNILqd4wWOgDQxpSYfGwPvfRJsKBHt0rspyT3l6cGZFB0Xi3PkJvP3uyGeOJGIwqDiyFjEVBwp27IUFEhvUbKlDzm+E9TqarnpULUVTs8e4nB2iO1qi20/oG00jJlACgHbWQy7LnYFIgNJY0qsQD56y4WWxy8Lg7BWRPYoGWvgPDbz1TWYfcnjJYSAMlRyDG7CmQ4EKubh6szyACrXFnNIePzLDbB/UJVZJn7PshZgP5de8lV2kb5e13XqlCUEqVUDJrXP6zoqrIMjQ2hkbstNjD1an2UzHgBFynzc5NUVUnLEl0CiKiMEqHi/dhgQIsaR1ngIqckvwOAmawWqXKfPk8ofzIOmYiENt1eimRHw8SRyzmGw/cgCle506UqxAShBurzYx67heLG9yeenBQI45zPGX3gQJejGhm4/X5re24aRYWKXjq9HqxxblelPvmf+W5kPL6955MMCCFJAGo3KV8n7KDeELKw3uZBxQdv4czGmbKCccyR7LSWG3mG5WOOoOsD52UOcnj7AxcUVbLeDaisczU9QmRZD7zAMETjzAgGOYui9eRhdSxkKeiT3nStFAewZQpnQeg4Rymv33if26dBn5uT+XO8b9PL35QbmE7685nKuR+ureC+u4WAwnNeuMYaq76RCpwgvGbyDErH6zgdoo2F0Lrm1gei7hsQlEYROgDZAXaWZes9e0DBIKCWgVA3neA3nLNG+6z/KUnG873MxGmNWbLTIAKnRAaWpeQNgoitrLS1WqQxE7KPmA2+AUk/NvTHgQohUUpl/F0E1kfUEeYEksoYm5Z+3Peg18TS1IfLVs0HgayiNTAgh6a9LSZ1090/t0giUFtjEFmT59GAX3Ee1XQCCSizdMCBEt1hHV9UNA4YQIBG5Cd6nttT88OS7J94FAMq5i/HJX16jQ8jKwFLCs0BHfA4JTFry0KLx2ixXmB3McX76Ds5PH6A232Lr12iqKc6OzzAxUyyXK/JShmjEQKmzvEnYQL9pnMmjC3FufBp3Nmb8HB730mMq3VNevARqEkcjgAA9H1xs8vLX06T8+jLGLQ05r7fSoCR8QBbFZIXRYsOejEhcYxPDBTk7OKci/rFOr3VuSJ9Z13Wqw+c1xt4FhxZl1SpfH3memdnY9z2qSZNk90Z7J+S6G36U3jt7Lkzua5omGQrnHIUAtIBMPPF4c/KF0aaVaqy3R24cqwQHVLFxh1R5ghlA5IlJE1xMSlpQxelSumal+0+/lxEwG7v7bO140Vk3JD52OVi8AHJcKpPLWw6k85zLZSJIRos5hVTGVAldRSaMjE6vmCnxwUdDQW6zTukoMqipHjyU94xsiBRlOYIbd2nikAWe0qvOWqzXa2w2G7Rti/OzR2gnB7gXCyhlUFdTOEfderzN4RgDnZ7ljOFjvEvjJPaMFHfgYRCOG2zwScRjzXMwmvPiwaXa5d9Gp3fx3PIkL0M/5uQz/rA/5yNMZe8w4JOf57KUuue5pufL7IYLARc8BmchvICucj0+kNdNyTPg9TMM3R5TMqsUEeYwZot6n0V1+Fpo3WQvlb/n+hzmIzQx80B9OsbaiJq/4ZvftywAUNeTmFaiDc0PckHG7ocPRUpFlAtIQEiqXS83Kn0OES1KwYhykZXWLYFGKKsFdbKyQkZ11n6XFHebpkl90e2QtQtpw4rRQsv5do7HKL6mWD4DlzyhZZiRyqGLRVnGYfw8ai8eQZyEWKvRItn3UoSKC6XIrtAGZEMQGYx0bMI5h263w3q5Qm0qHB8eoalyFyJ22bfbjsBEQRp3AWLUsaYce7oWEeP7iNWIjHuQmjQiXpKvnTawHKks8Vzy2JfUXx7D0lsoN3/5ld+fwzIAqSqT32scio2xBx7zZMCKze29T9WxlcrgJgA07SRx9LWWCQD1noy0UXGzuhxeW2vTQcUkI9YOZPyE+Qd1PclsQ6Wov6bOytmlF5z3oij2VFYfllLi4OAghagUMkWWLj+J/8BvVCK4w9DBegspo1uiEDvdEKjG+oC0b2KVl1C05oMGBLXvso7KFSVr/cemiJBcoJFppd5H7XxJ+uqksabhQVWDKuZqbT8gONIiJGMgYXQFpUjj38OhaWs46RE0ALDmoIiCo0PUD6D7rRJ24VLcpwCs+g20ohNqV5SDirhgEsgiBNVdh4A6Ir1d16UQJwCQVYVWNnGCVVq05YKVMmrUxSIZGxygiD/gvYs54OwYb7tdJHwE9HaAHmgxrO8XmDYTaG1w9uABXr++wmx6CCmJ3LXertANGwD5tCMufbnBHMW8WgEIsGFI4pWDj0SwwVL6M3hstgO8t8nIsnIv5dFpfJkHwQa4tw5CaSCi/S6ecl4KBMHlsdnjY2PKjE3ngL53UAoIQUII2oy0OSS8G+KiJ+KNdwMq02A3OLx8+RJ93+PJkyeJcssbiI2UFVzdGrv0BgPvAO8UjG4jjyEaNGjiP0gJG4hYBS9i0ZGPvAsqoa+qCldXV2nTsqtujEnXUFUVNRmNnAAZeRHcxm82m8G7QHwToeAdN2Sp0jhtfT/yHrQ2sAApAqVTNbyZS+RYgRcmnwqla8QWjk66+Jx0YnDKyo0whGTdXUb+xyBTjCOFgxCA0SZtFiEol60USWuV0ls+LkgpqQ24h0v3Vp4c+48ENoac9y4Bw7JSrVyEfJqy51BWgbHFFUKkGLI8VUsAdL+WoQxv+PpG98DzE2+HhSqiaYCMr2egyRiDg4MDHB0dYTaj2nfO2JTz/TaQzXtqQU4LKETi1/h5PIesu+C9TScV31t5YtkQAOdB5hVQlaF7Ke6b0rCs8PvWaUuP8lQvx5YxJCkdXNSjYHANkCltzf0pre3BzT359VprVE0dY/zYjdh6bLdbhDBmE5ZjxgQrJSXmswMMXYf7+3v0fY+mqdN4cHdsgPoNsEEt0368L3g91XWdDAaHYKXXyY/kRWMcxrhoJHS5sfcf+67329wuntj8j9le7F5RysoHjmFYp58rtQiFJn4yodtKChLmFCKGDz5hEMKH5OkKEZ+vss5g4BZkElF9N5I0vKD3D1yEBDCLsLxP6hQXUCk2KtzDTcC6sQZ+iVTnwRUj4wBEiSmRN3NZ/11mQkpjyl/Z5VNKvhEHl3Pk4/2Uhpk3+Wq5hJlMcHJ0jEePHmE+J8nw1WqVFvq+ARDYC0Ec9V6QInsHGbDKIpYqMszKOJyrSd9YlCEkuSolMn7C902LOwJa4k33v/zK47iPIaVxYrwyZn69oDlrmgbn5+dwzo06MpUhHd0rUFVN8owHPySBztlsBpmKgvzo+kmKjOS5RZxLktxn+bCccubX7O83OkCowIevWWuiFZc8nn0uBH/ltCKHOEIIanoKUHNQ/vBywPJF0HIoFytvzGxhx8aDPQD6G6K7bEACm0QvpeId1st3xQkYLXaawIjwe6om5PdNmxeACz61oE7gYOA0CsfOPiH4pScjYu069/pLGygSbnwcYOfHGnF5HMa5cXbdeFOwO9cNfTIUnGJ6o+KsGM9yLpjTXi568HUU11BiCCUwtNlsMFMa83aKh2fnCRRarVbpWnxkMfJJIVz2BhPAWBRISVDc7q2DGyza6SQ9n11c78PII6JrerOrzSjOj4w3V0hflbLjf+2xfzjtGzWlGGCMm8U6WOFgKlJGYo0ABls5Fcmx++Z+AQCJ71DFBrh936f6gDJ87vueBEA5xRd5EFkp2MeQghvD0GGyXC6htUbbztL6CIFqKvq+T/0CmIfA87fb7UYAd3mYaK1RqzqtKe89hljvkToD7QM+fEJy1Z4rwAxyzccqvPtgUbZexWbx1LqIWUhsePbTFuXXHA9naeT9xUAeBZn21BswWjwmMQVki/i2xziuzC6kY06/yKhxecKX7jxvFAZymO2VT7M3FWn5vZiFuA9WlRP6tpMvkIsU6fVvhjnBOvTbHdYg4dT5dEbuYoxFXUFbLt+TryO5oAHQUkGKzFQjPIfwlNINZVCL7ouajmqy2aNuyuVchIgFcBfl0sCWqPdfe+yvm9IAeO9TFobfW+vIILQ+hTh0z5kzz5/P87dcLtE0DU5OTlDXmjov9TYZMyb6DMOAbteDexEISNS1SR7D8fExhEBsrbZLn8fMUDJG9QgLKDMp7BWyB1auB35OaWC997EBjYR3nhrc+gD4QCEALz56E5qO/YEs44sSqNrf+Ol1yIuYJ4E2Ip9QlFJKraSkhPcOrITCXgdC5nSXZB5Ok/B7c8wtQu4T4H3s7+4ChAbhE0he4GjRl0SS8lTiKr0h5ndL14wfvPGFECmW5KqvsrQ0LcaQcZd99Hb/M9Li52qwPQ+Gx5w7CvFrhaesgIuLl4uNylOKiENjry8ZkZBTgqRDRBxMxRtXUZjGrymzF1zjURq8dNoDCD5EElkAFTPlatQy1SoEVf0pMWZ1/rXN/raD7K+9pvSurLWopBl5Z3QiE+YhhELTtOh7i76nnoZsGCcT8gKoWjZfIwOgKd8vc89Kay0mkybKiJN8GHtj+6XIDC6b2IeAlblKXUD2Usr1xOuI54aL+fIao/tPoqAlNbfcGEIGyEQGKYGE8XMzeBgnBG8yr2hwMi5AjEH2Lt5M9RD4U/Q9K8gdgdNUxUZhF9YFzy0FE1Kc3je2sQ5JyipEN2wsKskMtzKW2scL0hi9xSDsM9nYkpcbpQRc3+ZNjFuF5+xFuejL0MF7nwxbWZDkvYeLoJJQksKa4n323efyHniTBC+iYEgEcD0gPKH5tC5srNgcawbsx+N8zQ5ca5FBTr6HcbgZy8Ex9lT+2mPsxeZ5N5UebQjnxqHC0NMJrpUBVC4OojWgUNcKx8fHWK1WCYEv074AIqjKWJccgZ8sPc4nvYhEMO6ixYVB/BxW3uq6jkqNY8etco3sry2e6xITSV6lc/DROGtjSPswBJIES3Gg9yOXnd5IcOU2nCuouFKMBjrHpvvWlqmrbBximi9YSrFJHRc/5ZaFFLG8EYBjYxFSG+cc44rRiViqsFprkwEgD0KNQGS+rv2FQr+PrmGslhIxZcmu3f6G2Y+7WQ6cT1neTGVoUXpRDDqxgkxJ9eTXGGMQ/NhAuz0DwGCQ4M/Am4VJ9L65XmDfrS4NFi9uPpUqlZVsGZNgzIVBQT7d+r5jMB8QAoaI55HRxyAoUqpsfx3RgmWj4dMm+/c8gP253P9+RPJymU3K81aScKSUCZlP0l6xLHo6naLrujS3rLzTNM3Ii2M2Jb8mFJ9ZCpWw2nN5jUIILJdL9H2Pw8ND8qaiMSmNMr+OG4PwHPPzeP6pjodiMGP0qKxdO8etuYm0k6wHlzna2PnHbQqEGQA4ZpeJNCKljE0rfWpdHYKFkBK2Jy5yiBtZCAV4Glhy1118jUPfDRCQMIoEQUIIGFwPZUqkOIYNwsVwImAYigYX7PIKyrUPwdG1xA2iJMdTudljCAIKVHSjpcDgPGA9KkMpqqo20fgRUxAAtFFJyZYRWmaVCSkiQcphKFxUpTVJcTkL4cnr6DsCcaQAhr6D3e0oBqwqeGthXcYGlGJ9fgEt84nBuocCgvR8A/8nEDz1TaDioZh/ByAFa+GRZ5SRdMqAiEBtwr1wsD6zG4WPmycWcVEsTJRgrWoESfr0SimoWiEIDyfpc5z0EMpAGo0QKFVZpfb08cCAg3W0dqpaY9P1RWqW3keqQqJMRCMIxiYo/8+YhJQag8sNWwJifp6BTSVxf3eH+/slHSSS+vpBKmqX5gO0ovSfkjqFzVJ4NHUNAQElASkMXKwcpTCAmIlBEIVbaolJU4Ea01CoVLcT2JhW5FC06xZxv1F427uB9A5F7gPgHPX0kBBwnjwYGQ1McB5wTDsnOZBKK3gpsNptYS1Jxuk3LGaMHT3G7m6JVvODTjGVBpmtU+nqcV6eGWRASOARn4LliVm6MHSTsWuOyKd/adV94XGUIAjXHugEziEtMK44e5v7G8rvi7+X7mOJ8PM9s7w0u84M4JSWnb96H1tj7fU62A83vAAGn0GpMgTiMIE9kNy1+c34FyjSenGjpx8Ll7K87xAZnIFj5En9Bo5Rvq5MQfEpzuNAeg90FZwm04LaWzEaHWT+bKUUtCHRClYGKjMmNIZvnvxVVaX0s3NZ6JSvufSI6KUZgGb6rHMD+j6HIcnDC2GUHmTXnf/Or9eaa2pyUxQpZTKGASqSfejEXi6XAMjLoy5C/chbYeRfVQa9yy3sGQsQkjyAEnAupcnSWijmhb24YRigc+xN5A7yqrMbQ1/F6PRll52xgDK+44XJsQ4/2MUi113GNleARxYeHXGZVdanl4qyB/uLj2N+CgXGfISArLATAll7KWUitIQQqJecGMeWeRPkdCV9HfMlSsMVQu7GopTCwcFBpibH11RSYfCBTjWBpPiT7kekHTnaWLyRfJGWKzduuQFKl7g0XjQeeyg6M4jEGE8QsVQZvNlFSCXHbKR5ETIFmwGrEMKoPXdJ0fY2MgELxScChcf3GmLRE7v9XDXnGXuQRfef4rBgxlzCVRwBcD6Qsdaq7DgVRqEu3//x8TEARMHREAt+YvjXb2HtgIAAY/JmK7s7k+HJEt8lpqG1xt3dHbRRmM1m2G6HFEpUVQXbcV/OIbr9dTIOfd9jUpkELPP+IgwFKXx827rkPelDGBl5NhA6DTyn+WQmuLAl894nEEUA1C/eeQRJuXlnLZRga+mgpaKfhSSXLFI52YLuD3wI1AF3PHC5yIEWX35NWTyhdQRhykWc8AuZmlnG6BiJqMRlNxHJzpWDGZAsTwzeiKUmIl8Ld8OpqiqVtXZdh9vbWwghMJ/P0U6mcCBZaVFs2DxJdB3WZZ07HitTVRj6DCKVY8ATXnI59j2XMUg5JsrELCdJaCGn9LgaqUx5cqhRdsYBkE5A76n7U/m65NnF2gEtDITwxN3w1CJNi3E2KQSS93aWJLVKUBHo0ziUnmZ5LTz3rMgrpcTkYJqNjs9yZt579EOP3WaLpmlwdnKK7XZLXYME9cocgk9pbWITSwAAAW1JREFU72QIvYV1uYJwu92OMgjMFyCD45LXwMtvsVhgvV4nVqZSKlb7seHU8QDNLNO2bdG2bTowh2FIYryMVfAY8DpJB2IK3zPA6r2HDi6LU4xc6PhkJUQSfuS/s4pPOcmle8G/469sccuFS5acxCYpphyDcSWg4pyD0tUotcJAFVSUgy5OU77GTCDKWQO2yMwYZIvqYqiy5xCM7o0XHYNDLELBINBkMkm0TWstXr16BQCYz+dvfc/SoHmfr48fZchTbu5yo5Tj/LbPKH/e9xrKR07txvEPY05C6d5zVVrZ4iotKvem7kLCJbwvDFc+IekzeFHacUgRRJQvi8SjyJwrjSHPed/3GGLBDbvkItURhH/3HxeOTSaTZMx4/AjPwajlGT8olB1XQPJa4bVFTEeBk6Mj+HjQTZsJhl0HBYHD2Ry6brDZbLBebXB/fw+pYlt262BU3o/lGHrv4QoQmkNCno9xKJ49bNp/dB//PymSDc98rI1xAAAAAElFTkSuQmCC;" parent="WIyWlLk6GJQsqaUBKTNV-1" vertex="1">
          <mxGeometry x="850" y="90" width="74.42" height="75" as="geometry" />
        </mxCell>
        <mxCell id="qqBHOzDwhK9ZLctGtH0j-0" value="Batch of&lt;div&gt;Generated&lt;/div&gt;&lt;div&gt;Artificial Images&lt;/div&gt;" style="shape=cylinder3;whiteSpace=wrap;html=1;boundedLbl=1;backgroundOutline=1;size=15;fontSize=16;strokeWidth=4;fontStyle=0" parent="WIyWlLk6GJQsqaUBKTNV-1" vertex="1">
          <mxGeometry x="550" y="150" width="80" height="110" as="geometry" />
        </mxCell>
        <mxCell id="qqBHOzDwhK9ZLctGtH0j-1" style="edgeStyle=orthogonalEdgeStyle;rounded=0;orthogonalLoop=1;jettySize=auto;html=1;entryX=0;entryY=0.5;entryDx=0;entryDy=0;entryPerimeter=0;strokeWidth=3;endArrow=blockThin;endFill=1;" parent="WIyWlLk6GJQsqaUBKTNV-1" source="WIyWlLk6GJQsqaUBKTNV-3" target="qqBHOzDwhK9ZLctGtH0j-0" edge="1">
          <mxGeometry relative="1" as="geometry" />
        </mxCell>
        <mxCell id="qqBHOzDwhK9ZLctGtH0j-2" value="Batch of&lt;div&gt;Real&lt;/div&gt;&lt;div&gt;Artificial Images&lt;/div&gt;" style="shape=cylinder3;whiteSpace=wrap;html=1;boundedLbl=1;backgroundOutline=1;size=15;fontSize=16;strokeWidth=4;fontStyle=0" parent="WIyWlLk6GJQsqaUBKTNV-1" vertex="1">
          <mxGeometry x="550" y="3" width="80" height="110" as="geometry" />
        </mxCell>
        <mxCell id="qqBHOzDwhK9ZLctGtH0j-3" style="edgeStyle=orthogonalEdgeStyle;rounded=0;orthogonalLoop=1;jettySize=auto;html=1;entryX=0;entryY=0.5;entryDx=0;entryDy=0;entryPerimeter=0;strokeWidth=3;endArrow=blockThin;endFill=1;" parent="WIyWlLk6GJQsqaUBKTNV-1" source="tTjq3sFlfbg2cPFl6WFy-9" target="qqBHOzDwhK9ZLctGtH0j-2" edge="1">
          <mxGeometry relative="1" as="geometry" />
        </mxCell>
        <mxCell id="qqBHOzDwhK9ZLctGtH0j-9" value="" style="endArrow=blockThin;html=1;rounded=0;exitX=0;exitY=0.5;exitDx=0;exitDy=0;endFill=1;strokeWidth=3;entryX=0;entryY=0.5;entryDx=0;entryDy=0;" parent="WIyWlLk6GJQsqaUBKTNV-1" edge="1" target="tTjq3sFlfbg2cPFl6WFy-52">
          <mxGeometry width="50" height="50" relative="1" as="geometry">
            <mxPoint x="640" y="80" as="sourcePoint" />
            <mxPoint x="690" y="130" as="targetPoint" />
          </mxGeometry>
        </mxCell>
        <mxCell id="qqBHOzDwhK9ZLctGtH0j-12" value="" style="curved=1;endArrow=classic;html=1;rounded=0;dashed=1;dashPattern=1 1;strokeWidth=3;" parent="WIyWlLk6GJQsqaUBKTNV-1" edge="1">
          <mxGeometry width="50" height="50" relative="1" as="geometry">
            <mxPoint x="690" y="100" as="sourcePoint" />
            <mxPoint x="670" y="170" as="targetPoint" />
            <Array as="points">
              <mxPoint x="690" y="90" />
              <mxPoint x="660" y="100" />
              <mxPoint x="640" y="120" />
            </Array>
          </mxGeometry>
        </mxCell>
        <mxCell id="qqBHOzDwhK9ZLctGtH0j-13" value="" style="endArrow=classic;html=1;rounded=0;strokeWidth=3;dashed=1;entryX=0.5;entryY=1;entryDx=0;entryDy=0;" parent="WIyWlLk6GJQsqaUBKTNV-1" target="WIyWlLk6GJQsqaUBKTNV-11" edge="1">
          <mxGeometry width="50" height="50" relative="1" as="geometry">
            <mxPoint x="1230" y="165" as="sourcePoint" />
            <mxPoint x="401" y="255" as="targetPoint" />
            <Array as="points">
              <mxPoint x="1230" y="320" />
              <mxPoint x="1057" y="320" />
            </Array>
          </mxGeometry>
        </mxCell>
        <mxCell id="qqBHOzDwhK9ZLctGtH0j-15" value="Discriminator Loss" style="text;html=1;align=center;verticalAlign=middle;whiteSpace=wrap;rounded=0;fontSize=14;fontStyle=1" parent="WIyWlLk6GJQsqaUBKTNV-1" vertex="1">
          <mxGeometry x="1080" y="280" width="130" height="30" as="geometry" />
        </mxCell>
        <mxCell id="qqBHOzDwhK9ZLctGtH0j-17" value="" style="endArrow=classic;html=1;rounded=0;strokeWidth=3;dashed=1;entryX=0.5;entryY=1;entryDx=0;entryDy=0;" parent="WIyWlLk6GJQsqaUBKTNV-1" target="WIyWlLk6GJQsqaUBKTNV-3" edge="1">
          <mxGeometry width="50" height="50" relative="1" as="geometry">
            <mxPoint x="593" y="260" as="sourcePoint" />
            <mxPoint x="420" y="263" as="targetPoint" />
            <Array as="points">
              <mxPoint x="593" y="320" />
              <mxPoint x="400" y="320" />
            </Array>
          </mxGeometry>
        </mxCell>
        <mxCell id="qqBHOzDwhK9ZLctGtH0j-18" value="Generator Loss" style="text;html=1;align=center;verticalAlign=middle;whiteSpace=wrap;rounded=0;fontSize=14;fontStyle=1" parent="WIyWlLk6GJQsqaUBKTNV-1" vertex="1">
          <mxGeometry x="450" y="280" width="110" height="30" as="geometry" />
        </mxCell>
        <mxCell id="5LVbGl9885HKMfYbEwoe-0" value="" style="endArrow=none;html=1;rounded=0;dashed=1;strokeWidth=3;" edge="1" parent="WIyWlLk6GJQsqaUBKTNV-1">
          <mxGeometry width="50" height="50" relative="1" as="geometry">
            <mxPoint x="590" y="320" as="sourcePoint" />
            <mxPoint x="1060" y="320" as="targetPoint" />
          </mxGeometry>
        </mxCell>
      </root>
    </mxGraphModel>
  </diagram>
</mxfile>
